  0
SECTION
  2
BLOCKS
  0
ENDSEC
  0
SECTION
  2
ENTITIES
  0
LINE
  8
0
 10
3.51799
 20
-111.945
 11
7.03253
 21
-111.779
  0
LINE
  8
0
 10
7.03253
 20
-111.779
 11
10.5401
 21
-111.503
  0
LINE
  8
0
 10
10.5401
 20
-111.503
 11
14.0373
 21
-111.117
  0
LINE
  8
0
 10
14.0373
 20
-111.117
 11
17.5206
 21
-110.621
  0
LINE
  8
0
 10
17.5206
 20
-110.621
 11
20.9867
 21
-110.016
  0
LINE
  8
0
 10
20.9867
 20
-110.016
 11
24.432
 21
-109.303
  0
LINE
  8
0
 10
24.432
 20
-109.303
 11
27.8533
 21
-108.481
  0
LINE
  8
0
 10
27.8533
 20
-108.481
 11
31.247
 21
-107.553
  0
LINE
  8
0
 10
31.247
 20
-107.553
 11
34.6099
 21
-106.518
  0
LINE
  8
0
 10
34.6099
 20
-106.518
 11
37.9386
 21
-105.379
  0
LINE
  8
0
 10
37.9386
 20
-105.379
 11
41.2299
 21
-104.135
  0
LINE
  8
0
 10
41.2299
 20
-104.135
 11
44.4806
 21
-102.789
  0
LINE
  8
0
 10
44.4806
 20
-102.789
 11
47.6873
 21
-101.341
  0
LINE
  8
0
 10
47.6873
 20
-101.341
 11
50.8469
 21
-99.7927
  0
LINE
  8
0
 10
50.8469
 20
-99.7927
 11
53.9564
 21
-98.1463
  0
LINE
  8
0
 10
53.9564
 20
-98.1463
 11
57.0126
 21
-96.4031
  0
LINE
  8
0
 10
57.0126
 20
-96.4031
 11
60.0126
 21
-94.5647
  0
LINE
  8
0
 10
60.0126
 20
-94.5647
 11
62.9533
 21
-92.633
  0
LINE
  8
0
 10
62.9533
 20
-92.633
 11
65.8319
 21
-90.6099
  0
LINE
  8
0
 10
65.8319
 20
-90.6099
 11
68.6456
 21
-88.4974
  0
LINE
  8
0
 10
68.6456
 20
-88.4974
 11
71.3915
 21
-86.2975
  0
LINE
  8
0
 10
71.3915
 20
-86.2975
 11
74.0669
 21
-84.0124
  0
LINE
  8
0
 10
74.0669
 20
-84.0124
 11
76.6693
 21
-81.6445
  0
LINE
  8
0
 10
76.6693
 20
-81.6445
 11
79.196
 21
-79.196
  0
LINE
  8
0
 10
79.196
 20
-79.196
 11
81.6445
 21
-76.6693
  0
LINE
  8
0
 10
81.6445
 20
-76.6693
 11
84.0124
 21
-74.0669
  0
LINE
  8
0
 10
84.0124
 20
-74.0669
 11
86.2975
 21
-71.3915
  0
LINE
  8
0
 10
86.2975
 20
-71.3915
 11
88.4974
 21
-68.6456
  0
LINE
  8
0
 10
88.4974
 20
-68.6456
 11
90.6099
 21
-65.8319
  0
LINE
  8
0
 10
90.6099
 20
-65.8319
 11
92.633
 21
-62.9533
  0
LINE
  8
0
 10
92.633
 20
-62.9533
 11
94.5647
 21
-60.0126
  0
LINE
  8
0
 10
94.5647
 20
-60.0126
 11
96.4031
 21
-57.0126
  0
LINE
  8
0
 10
96.4031
 20
-57.0126
 11
98.1463
 21
-53.9564
  0
LINE
  8
0
 10
98.1463
 20
-53.9564
 11
99.7927
 21
-50.8469
  0
LINE
  8
0
 10
99.7927
 20
-50.8469
 11
101.341
 21
-47.6873
  0
LINE
  8
0
 10
101.341
 20
-47.6873
 11
102.789
 21
-44.4806
  0
LINE
  8
0
 10
102.789
 20
-44.4806
 11
104.135
 21
-41.2299
  0
LINE
  8
0
 10
104.135
 20
-41.2299
 11
105.379
 21
-37.9386
  0
LINE
  8
0
 10
105.379
 20
-37.9386
 11
106.518
 21
-34.6099
  0
LINE
  8
0
 10
106.518
 20
-34.6099
 11
107.553
 21
-31.247
  0
LINE
  8
0
 10
107.553
 20
-31.247
 11
108.481
 21
-27.8533
  0
LINE
  8
0
 10
108.481
 20
-27.8533
 11
109.303
 21
-24.432
  0
LINE
  8
0
 10
109.303
 20
-24.432
 11
110.016
 21
-20.9867
  0
LINE
  8
0
 10
110.016
 20
-20.9867
 11
110.621
 21
-17.5206
  0
LINE
  8
0
 10
110.621
 20
-17.5206
 11
111.117
 21
-14.0373
  0
LINE
  8
0
 10
111.117
 20
-14.0373
 11
111.503
 21
-10.5401
  0
LINE
  8
0
 10
111.503
 20
-10.5401
 11
111.779
 21
-7.03253
  0
LINE
  8
0
 10
111.779
 20
-7.03253
 11
111.945
 21
-3.51799
  0
LINE
  8
0
 10
111.945
 20
-3.51799
 11
112
 21
0
  0
LINE
  8
0
 10
112
 20
0
 11
111.945
 21
3.51799
  0
LINE
  8
0
 10
111.945
 20
3.51799
 11
111.779
 21
7.03253
  0
LINE
  8
0
 10
111.779
 20
7.03253
 11
111.503
 21
10.5401
  0
LINE
  8
0
 10
111.503
 20
10.5401
 11
111.117
 21
14.0373
  0
LINE
  8
0
 10
111.117
 20
14.0373
 11
110.621
 21
17.5206
  0
LINE
  8
0
 10
110.621
 20
17.5206
 11
110.016
 21
20.9867
  0
LINE
  8
0
 10
110.016
 20
20.9867
 11
109.303
 21
24.432
  0
LINE
  8
0
 10
109.303
 20
24.432
 11
108.481
 21
27.8533
  0
LINE
  8
0
 10
108.481
 20
27.8533
 11
107.553
 21
31.247
  0
LINE
  8
0
 10
107.553
 20
31.247
 11
106.518
 21
34.6099
  0
LINE
  8
0
 10
106.518
 20
34.6099
 11
105.379
 21
37.9386
  0
LINE
  8
0
 10
105.379
 20
37.9386
 11
104.135
 21
41.2299
  0
LINE
  8
0
 10
104.135
 20
41.2299
 11
102.789
 21
44.4806
  0
LINE
  8
0
 10
102.789
 20
44.4806
 11
101.341
 21
47.6873
  0
LINE
  8
0
 10
101.341
 20
47.6873
 11
99.7927
 21
50.8469
  0
LINE
  8
0
 10
99.7927
 20
50.8469
 11
98.1463
 21
53.9564
  0
LINE
  8
0
 10
98.1463
 20
53.9564
 11
96.4031
 21
57.0126
  0
LINE
  8
0
 10
96.4031
 20
57.0126
 11
94.5647
 21
60.0126
  0
LINE
  8
0
 10
94.5647
 20
60.0126
 11
92.633
 21
62.9533
  0
LINE
  8
0
 10
92.633
 20
62.9533
 11
90.6099
 21
65.8319
  0
LINE
  8
0
 10
90.6099
 20
65.8319
 11
88.4974
 21
68.6456
  0
LINE
  8
0
 10
88.4974
 20
68.6456
 11
86.2975
 21
71.3915
  0
LINE
  8
0
 10
86.2975
 20
71.3915
 11
84.0124
 21
74.0669
  0
LINE
  8
0
 10
84.0124
 20
74.0669
 11
81.6445
 21
76.6693
  0
LINE
  8
0
 10
81.6445
 20
76.6693
 11
79.196
 21
79.196
  0
LINE
  8
0
 10
79.196
 20
79.196
 11
76.6693
 21
81.6445
  0
LINE
  8
0
 10
76.6693
 20
81.6445
 11
74.0669
 21
84.0124
  0
LINE
  8
0
 10
74.0669
 20
84.0124
 11
71.3915
 21
86.2975
  0
LINE
  8
0
 10
71.3915
 20
86.2975
 11
68.6456
 21
88.4974
  0
LINE
  8
0
 10
68.6456
 20
88.4974
 11
65.8319
 21
90.6099
  0
LINE
  8
0
 10
65.8319
 20
90.6099
 11
62.9533
 21
92.633
  0
LINE
  8
0
 10
62.9533
 20
92.633
 11
60.0126
 21
94.5647
  0
LINE
  8
0
 10
60.0126
 20
94.5647
 11
57.0126
 21
96.4031
  0
LINE
  8
0
 10
57.0126
 20
96.4031
 11
53.9564
 21
98.1463
  0
LINE
  8
0
 10
53.9564
 20
98.1463
 11
50.8469
 21
99.7927
  0
LINE
  8
0
 10
50.8469
 20
99.7927
 11
47.6873
 21
101.341
  0
LINE
  8
0
 10
47.6873
 20
101.341
 11
44.4806
 21
102.789
  0
LINE
  8
0
 10
44.4806
 20
102.789
 11
41.2299
 21
104.135
  0
LINE
  8
0
 10
41.2299
 20
104.135
 11
37.9386
 21
105.379
  0
LINE
  8
0
 10
37.9386
 20
105.379
 11
34.6099
 21
106.518
  0
LINE
  8
0
 10
34.6099
 20
106.518
 11
31.247
 21
107.553
  0
LINE
  8
0
 10
31.247
 20
107.553
 11
27.8533
 21
108.481
  0
LINE
  8
0
 10
27.8533
 20
108.481
 11
24.432
 21
109.303
  0
LINE
  8
0
 10
24.432
 20
109.303
 11
20.9867
 21
110.016
  0
LINE
  8
0
 10
20.9867
 20
110.016
 11
17.5206
 21
110.621
  0
LINE
  8
0
 10
17.5206
 20
110.621
 11
14.0373
 21
111.117
  0
LINE
  8
0
 10
14.0373
 20
111.117
 11
10.5401
 21
111.503
  0
LINE
  8
0
 10
10.5401
 20
111.503
 11
7.03253
 21
111.779
  0
LINE
  8
0
 10
7.03253
 20
111.779
 11
3.51799
 21
111.945
  0
LINE
  8
0
 10
3.51799
 20
111.945
 11
0
 21
112
  0
LINE
  8
0
 10
0
 20
112
 11
-3.51799
 21
111.945
  0
LINE
  8
0
 10
-3.51799
 20
111.945
 11
-7.03253
 21
111.779
  0
LINE
  8
0
 10
-7.03253
 20
111.779
 11
-10.5401
 21
111.503
  0
LINE
  8
0
 10
-10.5401
 20
111.503
 11
-14.0373
 21
111.117
  0
LINE
  8
0
 10
-14.0373
 20
111.117
 11
-17.5206
 21
110.621
  0
LINE
  8
0
 10
-17.5206
 20
110.621
 11
-20.9867
 21
110.016
  0
LINE
  8
0
 10
-20.9867
 20
110.016
 11
-24.432
 21
109.303
  0
LINE
  8
0
 10
-24.432
 20
109.303
 11
-27.8533
 21
108.481
  0
LINE
  8
0
 10
-27.8533
 20
108.481
 11
-31.247
 21
107.553
  0
LINE
  8
0
 10
-31.247
 20
107.553
 11
-34.6099
 21
106.518
  0
LINE
  8
0
 10
-34.6099
 20
106.518
 11
-37.9386
 21
105.379
  0
LINE
  8
0
 10
-37.9386
 20
105.379
 11
-41.2299
 21
104.135
  0
LINE
  8
0
 10
-41.2299
 20
104.135
 11
-44.4806
 21
102.789
  0
LINE
  8
0
 10
-44.4806
 20
102.789
 11
-47.6873
 21
101.341
  0
LINE
  8
0
 10
-47.6873
 20
101.341
 11
-50.8469
 21
99.7927
  0
LINE
  8
0
 10
-50.8469
 20
99.7927
 11
-53.9564
 21
98.1463
  0
LINE
  8
0
 10
-53.9564
 20
98.1463
 11
-57.0126
 21
96.4031
  0
LINE
  8
0
 10
-57.0126
 20
96.4031
 11
-60.0126
 21
94.5647
  0
LINE
  8
0
 10
-60.0126
 20
94.5647
 11
-62.9533
 21
92.633
  0
LINE
  8
0
 10
-62.9533
 20
92.633
 11
-65.8319
 21
90.6099
  0
LINE
  8
0
 10
-65.8319
 20
90.6099
 11
-68.6456
 21
88.4974
  0
LINE
  8
0
 10
-68.6456
 20
88.4974
 11
-71.3915
 21
86.2975
  0
LINE
  8
0
 10
-71.3915
 20
86.2975
 11
-74.0669
 21
84.0124
  0
LINE
  8
0
 10
-74.0669
 20
84.0124
 11
-76.6693
 21
81.6445
  0
LINE
  8
0
 10
-76.6693
 20
81.6445
 11
-79.196
 21
79.196
  0
LINE
  8
0
 10
-79.196
 20
79.196
 11
-81.6445
 21
76.6693
  0
LINE
  8
0
 10
-81.6445
 20
76.6693
 11
-84.0124
 21
74.0669
  0
LINE
  8
0
 10
-84.0124
 20
74.0669
 11
-86.2975
 21
71.3915
  0
LINE
  8
0
 10
-86.2975
 20
71.3915
 11
-88.4974
 21
68.6456
  0
LINE
  8
0
 10
-88.4974
 20
68.6456
 11
-90.6099
 21
65.8319
  0
LINE
  8
0
 10
-90.6099
 20
65.8319
 11
-92.633
 21
62.9533
  0
LINE
  8
0
 10
-92.633
 20
62.9533
 11
-94.5647
 21
60.0126
  0
LINE
  8
0
 10
-94.5647
 20
60.0126
 11
-96.4031
 21
57.0126
  0
LINE
  8
0
 10
-96.4031
 20
57.0126
 11
-98.1463
 21
53.9564
  0
LINE
  8
0
 10
-98.1463
 20
53.9564
 11
-99.7927
 21
50.8469
  0
LINE
  8
0
 10
-99.7927
 20
50.8469
 11
-101.341
 21
47.6873
  0
LINE
  8
0
 10
-101.341
 20
47.6873
 11
-102.789
 21
44.4806
  0
LINE
  8
0
 10
-102.789
 20
44.4806
 11
-104.135
 21
41.2299
  0
LINE
  8
0
 10
-104.135
 20
41.2299
 11
-105.379
 21
37.9386
  0
LINE
  8
0
 10
-105.379
 20
37.9386
 11
-106.518
 21
34.6099
  0
LINE
  8
0
 10
-106.518
 20
34.6099
 11
-107.553
 21
31.247
  0
LINE
  8
0
 10
-107.553
 20
31.247
 11
-108.481
 21
27.8533
  0
LINE
  8
0
 10
-108.481
 20
27.8533
 11
-109.303
 21
24.432
  0
LINE
  8
0
 10
-109.303
 20
24.432
 11
-110.016
 21
20.9867
  0
LINE
  8
0
 10
-110.016
 20
20.9867
 11
-110.621
 21
17.5206
  0
LINE
  8
0
 10
-110.621
 20
17.5206
 11
-111.117
 21
14.0373
  0
LINE
  8
0
 10
-111.117
 20
14.0373
 11
-111.503
 21
10.5401
  0
LINE
  8
0
 10
-111.503
 20
10.5401
 11
-111.779
 21
7.03253
  0
LINE
  8
0
 10
-111.779
 20
7.03253
 11
-111.945
 21
3.51799
  0
LINE
  8
0
 10
-111.945
 20
3.51799
 11
-112
 21
0
  0
LINE
  8
0
 10
-112
 20
0
 11
-111.945
 21
-3.51799
  0
LINE
  8
0
 10
-111.945
 20
-3.51799
 11
-111.779
 21
-7.03253
  0
LINE
  8
0
 10
-111.779
 20
-7.03253
 11
-111.503
 21
-10.5401
  0
LINE
  8
0
 10
-111.503
 20
-10.5401
 11
-111.117
 21
-14.0373
  0
LINE
  8
0
 10
-111.117
 20
-14.0373
 11
-110.621
 21
-17.5206
  0
LINE
  8
0
 10
-110.621
 20
-17.5206
 11
-110.016
 21
-20.9867
  0
LINE
  8
0
 10
-110.016
 20
-20.9867
 11
-109.303
 21
-24.432
  0
LINE
  8
0
 10
-109.303
 20
-24.432
 11
-108.481
 21
-27.8533
  0
LINE
  8
0
 10
-108.481
 20
-27.8533
 11
-107.553
 21
-31.247
  0
LINE
  8
0
 10
-107.553
 20
-31.247
 11
-106.518
 21
-34.6099
  0
LINE
  8
0
 10
-106.518
 20
-34.6099
 11
-105.379
 21
-37.9386
  0
LINE
  8
0
 10
-105.379
 20
-37.9386
 11
-104.135
 21
-41.2299
  0
LINE
  8
0
 10
-104.135
 20
-41.2299
 11
-102.789
 21
-44.4806
  0
LINE
  8
0
 10
-102.789
 20
-44.4806
 11
-101.341
 21
-47.6873
  0
LINE
  8
0
 10
-101.341
 20
-47.6873
 11
-99.7927
 21
-50.8469
  0
LINE
  8
0
 10
-99.7927
 20
-50.8469
 11
-98.1463
 21
-53.9564
  0
LINE
  8
0
 10
-98.1463
 20
-53.9564
 11
-96.4031
 21
-57.0126
  0
LINE
  8
0
 10
-96.4031
 20
-57.0126
 11
-94.5647
 21
-60.0126
  0
LINE
  8
0
 10
-94.5647
 20
-60.0126
 11
-92.633
 21
-62.9533
  0
LINE
  8
0
 10
-92.633
 20
-62.9533
 11
-90.6099
 21
-65.8319
  0
LINE
  8
0
 10
-90.6099
 20
-65.8319
 11
-88.4974
 21
-68.6456
  0
LINE
  8
0
 10
-88.4974
 20
-68.6456
 11
-86.2975
 21
-71.3915
  0
LINE
  8
0
 10
-86.2975
 20
-71.3915
 11
-84.0124
 21
-74.0669
  0
LINE
  8
0
 10
-84.0124
 20
-74.0669
 11
-81.6445
 21
-76.6693
  0
LINE
  8
0
 10
-81.6445
 20
-76.6693
 11
-79.196
 21
-79.196
  0
LINE
  8
0
 10
-79.196
 20
-79.196
 11
-76.6693
 21
-81.6445
  0
LINE
  8
0
 10
-76.6693
 20
-81.6445
 11
-74.0669
 21
-84.0124
  0
LINE
  8
0
 10
-74.0669
 20
-84.0124
 11
-71.3915
 21
-86.2975
  0
LINE
  8
0
 10
-71.3915
 20
-86.2975
 11
-68.6456
 21
-88.4974
  0
LINE
  8
0
 10
-68.6456
 20
-88.4974
 11
-65.8319
 21
-90.6099
  0
LINE
  8
0
 10
-65.8319
 20
-90.6099
 11
-62.9533
 21
-92.633
  0
LINE
  8
0
 10
-62.9533
 20
-92.633
 11
-60.0126
 21
-94.5647
  0
LINE
  8
0
 10
-60.0126
 20
-94.5647
 11
-57.0126
 21
-96.4031
  0
LINE
  8
0
 10
-57.0126
 20
-96.4031
 11
-53.9564
 21
-98.1463
  0
LINE
  8
0
 10
-53.9564
 20
-98.1463
 11
-50.8469
 21
-99.7927
  0
LINE
  8
0
 10
-50.8469
 20
-99.7927
 11
-47.6873
 21
-101.341
  0
LINE
  8
0
 10
-47.6873
 20
-101.341
 11
-44.4806
 21
-102.789
  0
LINE
  8
0
 10
-44.4806
 20
-102.789
 11
-41.2299
 21
-104.135
  0
LINE
  8
0
 10
-41.2299
 20
-104.135
 11
-37.9386
 21
-105.379
  0
LINE
  8
0
 10
-37.9386
 20
-105.379
 11
-34.6099
 21
-106.518
  0
LINE
  8
0
 10
-34.6099
 20
-106.518
 11
-31.247
 21
-107.553
  0
LINE
  8
0
 10
-31.247
 20
-107.553
 11
-27.8533
 21
-108.481
  0
LINE
  8
0
 10
-27.8533
 20
-108.481
 11
-24.432
 21
-109.303
  0
LINE
  8
0
 10
-24.432
 20
-109.303
 11
-20.9867
 21
-110.016
  0
LINE
  8
0
 10
-20.9867
 20
-110.016
 11
-17.5206
 21
-110.621
  0
LINE
  8
0
 10
-17.5206
 20
-110.621
 11
-14.0373
 21
-111.117
  0
LINE
  8
0
 10
-14.0373
 20
-111.117
 11
-10.5401
 21
-111.503
  0
LINE
  8
0
 10
-10.5401
 20
-111.503
 11
-7.03253
 21
-111.779
  0
LINE
  8
0
 10
-7.03253
 20
-111.779
 11
-3.51799
 21
-111.945
  0
LINE
  8
0
 10
-3.51799
 20
-111.945
 11
0
 21
-112
  0
LINE
  8
0
 10
0
 20
-112
 11
3.51799
 21
-111.945
  0
LINE
  8
0
 10
-0.094223
 20
47.0015
 11
-0.18837
 21
47.0059
  0
LINE
  8
0
 10
-0.18837
 20
47.0059
 11
-0.282318
 21
47.0133
  0
LINE
  8
0
 10
-0.282318
 20
47.0133
 11
-0.375992
 21
47.0237
  0
LINE
  8
0
 10
-0.375992
 20
47.0237
 11
-0.469299
 21
47.0369
  0
LINE
  8
0
 10
-0.469299
 20
47.0369
 11
-0.562134
 21
47.0531
  0
LINE
  8
0
 10
-0.562134
 20
47.0531
 11
-0.654419
 21
47.0722
  0
LINE
  8
0
 10
-0.654419
 20
47.0722
 11
-0.746063
 21
47.0942
  0
LINE
  8
0
 10
-0.746063
 20
47.0942
 11
-0.83696
 21
47.1191
  0
LINE
  8
0
 10
-0.83696
 20
47.1191
 11
-0.927048
 21
47.1468
  0
LINE
  8
0
 10
-0.927048
 20
47.1468
 11
-1.0162
 21
47.1774
  0
LINE
  8
0
 10
-1.0162
 20
47.1774
 11
-1.10437
 21
47.2107
  0
LINE
  8
0
 10
-1.10437
 20
47.2107
 11
-1.19144
 21
47.2467
  0
LINE
  8
0
 10
-1.19144
 20
47.2467
 11
-1.27733
 21
47.2855
  0
LINE
  8
0
 10
-1.27733
 20
47.2855
 11
-1.36197
 21
47.327
  0
LINE
  8
0
 10
-1.36197
 20
47.327
 11
-1.44525
 21
47.3711
  0
LINE
  8
0
 10
-1.44525
 20
47.3711
 11
-1.52711
 21
47.4178
  0
LINE
  8
0
 10
-1.52711
 20
47.4178
 11
-1.60747
 21
47.467
  0
LINE
  8
0
 10
-1.60747
 20
47.467
 11
-1.68625
 21
47.5188
  0
LINE
  8
0
 10
-1.68625
 20
47.5188
 11
-1.76335
 21
47.5729
  0
LINE
  8
0
 10
-1.76335
 20
47.5729
 11
-1.83871
 21
47.6295
  0
LINE
  8
0
 10
-1.83871
 20
47.6295
 11
-1.91226
 21
47.6884
  0
LINE
  8
0
 10
-1.91226
 20
47.6884
 11
-1.98393
 21
47.7497
  0
LINE
  8
0
 10
-1.98393
 20
47.7497
 11
-2.05363
 21
47.8131
  0
LINE
  8
0
 10
-2.05363
 20
47.8131
 11
-2.12131
 21
47.8787
  0
LINE
  8
0
 10
-2.12131
 20
47.8787
 11
-2.1869
 21
47.9464
  0
LINE
  8
0
 10
-2.1869
 20
47.9464
 11
-2.25032
 21
48.0161
  0
LINE
  8
0
 10
-2.25032
 20
48.0161
 11
-2.31154
 21
48.0877
  0
LINE
  8
0
 10
-2.31154
 20
48.0877
 11
-2.37045
 21
48.1613
  0
LINE
  8
0
 10
-2.37045
 20
48.1613
 11
-2.42705
 21
48.2366
  0
LINE
  8
0
 10
-2.42705
 20
48.2366
 11
-2.48123
 21
48.3137
  0
LINE
  8
0
 10
-2.48123
 20
48.3137
 11
-2.53297
 21
48.3925
  0
LINE
  8
0
 10
-2.53297
 20
48.3925
 11
-2.58221
 21
48.4729
  0
LINE
  8
0
 10
-2.58221
 20
48.4729
 11
-2.62891
 21
48.5547
  0
LINE
  8
0
 10
-2.62891
 20
48.5547
 11
-2.67302
 21
48.638
  0
LINE
  8
0
 10
-2.67302
 20
48.638
 11
-2.71448
 21
48.7227
  0
LINE
  8
0
 10
-2.71448
 20
48.7227
 11
-2.75325
 21
48.8085
  0
LINE
  8
0
 10
-2.75325
 20
48.8085
 11
-2.78932
 21
48.8956
  0
LINE
  8
0
 10
-2.78932
 20
48.8956
 11
-2.82263
 21
48.9838
  0
LINE
  8
0
 10
-2.82263
 20
48.9838
 11
-2.85316
 21
49.0729
  0
LINE
  8
0
 10
-2.85316
 20
49.0729
 11
-2.88087
 21
49.163
  0
LINE
  8
0
 10
-2.88087
 20
49.163
 11
-2.90575
 21
49.2539
  0
LINE
  8
0
 10
-2.90575
 20
49.2539
 11
-2.92775
 21
49.3456
  0
LINE
  8
0
 10
-2.92775
 20
49.3456
 11
-2.94685
 21
49.4379
  0
LINE
  8
0
 10
-2.94685
 20
49.4379
 11
-2.96306
 21
49.5307
  0
LINE
  8
0
 10
-2.96306
 20
49.5307
 11
-2.97633
 21
49.624
  0
LINE
  8
0
 10
-2.97633
 20
49.624
 11
-2.98668
 21
49.7177
  0
LINE
  8
0
 10
-2.98668
 20
49.7177
 11
-2.99408
 21
49.8116
  0
LINE
  8
0
 10
-2.99408
 20
49.8116
 11
-2.9985
 21
49.9058
  0
LINE
  8
0
 10
-2.9985
 20
49.9058
 11
-2.99998
 21
50
  0
LINE
  8
0
 10
-2.99998
 20
50
 11
-2.9985
 21
50.0942
  0
LINE
  8
0
 10
-2.9985
 20
50.0942
 11
-2.99408
 21
50.1884
  0
LINE
  8
0
 10
-2.99408
 20
50.1884
 11
-2.98668
 21
50.2823
  0
LINE
  8
0
 10
-2.98668
 20
50.2823
 11
-2.97633
 21
50.376
  0
LINE
  8
0
 10
-2.97633
 20
50.376
 11
-2.96306
 21
50.4693
  0
LINE
  8
0
 10
-2.96306
 20
50.4693
 11
-2.94685
 21
50.5621
  0
LINE
  8
0
 10
-2.94685
 20
50.5621
 11
-2.92775
 21
50.6544
  0
LINE
  8
0
 10
-2.92775
 20
50.6544
 11
-2.90575
 21
50.7461
  0
LINE
  8
0
 10
-2.90575
 20
50.7461
 11
-2.88087
 21
50.837
  0
LINE
  8
0
 10
-2.88087
 20
50.837
 11
-2.85316
 21
50.927
  0
LINE
  8
0
 10
-2.85316
 20
50.927
 11
-2.82263
 21
51.0162
  0
LINE
  8
0
 10
-2.82263
 20
51.0162
 11
-2.78932
 21
51.1044
  0
LINE
  8
0
 10
-2.78932
 20
51.1044
 11
-2.75325
 21
51.1914
  0
LINE
  8
0
 10
-2.75325
 20
51.1914
 11
-2.71448
 21
51.2773
  0
LINE
  8
0
 10
-2.71448
 20
51.2773
 11
-2.67302
 21
51.362
  0
LINE
  8
0
 10
-2.67302
 20
51.362
 11
-2.62891
 21
51.4453
  0
LINE
  8
0
 10
-2.62891
 20
51.4453
 11
-2.58221
 21
51.5271
  0
LINE
  8
0
 10
-2.58221
 20
51.5271
 11
-2.53297
 21
51.6075
  0
LINE
  8
0
 10
-2.53297
 20
51.6075
 11
-2.48123
 21
51.6862
  0
LINE
  8
0
 10
-2.48123
 20
51.6862
 11
-2.42705
 21
51.7634
  0
LINE
  8
0
 10
-2.42705
 20
51.7634
 11
-2.37045
 21
51.8387
  0
LINE
  8
0
 10
-2.37045
 20
51.8387
 11
-2.31154
 21
51.9123
  0
LINE
  8
0
 10
-2.31154
 20
51.9123
 11
-2.25032
 21
51.9839
  0
LINE
  8
0
 10
-2.25032
 20
51.9839
 11
-2.1869
 21
52.0536
  0
LINE
  8
0
 10
-2.1869
 20
52.0536
 11
-2.12131
 21
52.1213
  0
LINE
  8
0
 10
-2.12131
 20
52.1213
 11
-2.05363
 21
52.1869
  0
LINE
  8
0
 10
-2.05363
 20
52.1869
 11
-1.98393
 21
52.2503
  0
LINE
  8
0
 10
-1.98393
 20
52.2503
 11
-1.91226
 21
52.3115
  0
LINE
  8
0
 10
-1.91226
 20
52.3115
 11
-1.83871
 21
52.3705
  0
LINE
  8
0
 10
-1.83871
 20
52.3705
 11
-1.76335
 21
52.427
  0
LINE
  8
0
 10
-1.76335
 20
52.427
 11
-1.68625
 21
52.4812
  0
LINE
  8
0
 10
-1.68625
 20
52.4812
 11
-1.60747
 21
52.533
  0
LINE
  8
0
 10
-1.60747
 20
52.533
 11
-1.52711
 21
52.5822
  0
LINE
  8
0
 10
-1.52711
 20
52.5822
 11
-1.44525
 21
52.6289
  0
LINE
  8
0
 10
-1.44525
 20
52.6289
 11
-1.36197
 21
52.673
  0
LINE
  8
0
 10
-1.36197
 20
52.673
 11
-1.27733
 21
52.7145
  0
LINE
  8
0
 10
-1.27733
 20
52.7145
 11
-1.19144
 21
52.7533
  0
LINE
  8
0
 10
-1.19144
 20
52.7533
 11
-1.10437
 21
52.7893
  0
LINE
  8
0
 10
-1.10437
 20
52.7893
 11
-1.0162
 21
52.8226
  0
LINE
  8
0
 10
-1.0162
 20
52.8226
 11
-0.927048
 21
52.8532
  0
LINE
  8
0
 10
-0.927048
 20
52.8532
 11
-0.83696
 21
52.8809
  0
LINE
  8
0
 10
-0.83696
 20
52.8809
 11
-0.746063
 21
52.9057
  0
LINE
  8
0
 10
-0.746063
 20
52.9057
 11
-0.654419
 21
52.9277
  0
LINE
  8
0
 10
-0.654419
 20
52.9277
 11
-0.562134
 21
52.9469
  0
LINE
  8
0
 10
-0.562134
 20
52.9469
 11
-0.469299
 21
52.9631
  0
LINE
  8
0
 10
-0.469299
 20
52.9631
 11
-0.375992
 21
52.9763
  0
LINE
  8
0
 10
-0.375992
 20
52.9763
 11
-0.282318
 21
52.9867
  0
LINE
  8
0
 10
-0.282318
 20
52.9867
 11
-0.18837
 21
52.9941
  0
LINE
  8
0
 10
-0.18837
 20
52.9941
 11
-0.094223
 21
52.9985
  0
LINE
  8
0
 10
-0.094223
 20
52.9985
 11
0
 21
53
  0
LINE
  8
0
 10
0
 20
53
 11
0.094223
 21
52.9985
  0
LINE
  8
0
 10
0.094223
 20
52.9985
 11
0.18837
 21
52.9941
  0
LINE
  8
0
 10
0.18837
 20
52.9941
 11
0.282318
 21
52.9867
  0
LINE
  8
0
 10
0.282318
 20
52.9867
 11
0.375992
 21
52.9763
  0
LINE
  8
0
 10
0.375992
 20
52.9763
 11
0.469299
 21
52.9631
  0
LINE
  8
0
 10
0.469299
 20
52.9631
 11
0.562134
 21
52.9469
  0
LINE
  8
0
 10
0.562134
 20
52.9469
 11
0.654419
 21
52.9277
  0
LINE
  8
0
 10
0.654419
 20
52.9277
 11
0.746063
 21
52.9057
  0
LINE
  8
0
 10
0.746063
 20
52.9057
 11
0.83696
 21
52.8809
  0
LINE
  8
0
 10
0.83696
 20
52.8809
 11
0.927048
 21
52.8532
  0
LINE
  8
0
 10
0.927048
 20
52.8532
 11
1.0162
 21
52.8226
  0
LINE
  8
0
 10
1.0162
 20
52.8226
 11
1.10437
 21
52.7893
  0
LINE
  8
0
 10
1.10437
 20
52.7893
 11
1.19144
 21
52.7533
  0
LINE
  8
0
 10
1.19144
 20
52.7533
 11
1.27733
 21
52.7145
  0
LINE
  8
0
 10
1.27733
 20
52.7145
 11
1.36197
 21
52.673
  0
LINE
  8
0
 10
1.36197
 20
52.673
 11
1.44525
 21
52.6289
  0
LINE
  8
0
 10
1.44525
 20
52.6289
 11
1.52711
 21
52.5822
  0
LINE
  8
0
 10
1.52711
 20
52.5822
 11
1.60747
 21
52.533
  0
LINE
  8
0
 10
1.60747
 20
52.533
 11
1.68625
 21
52.4812
  0
LINE
  8
0
 10
1.68625
 20
52.4812
 11
1.76335
 21
52.427
  0
LINE
  8
0
 10
1.76335
 20
52.427
 11
1.83871
 21
52.3705
  0
LINE
  8
0
 10
1.83871
 20
52.3705
 11
1.91226
 21
52.3115
  0
LINE
  8
0
 10
1.91226
 20
52.3115
 11
1.98393
 21
52.2503
  0
LINE
  8
0
 10
1.98393
 20
52.2503
 11
2.05363
 21
52.1869
  0
LINE
  8
0
 10
2.05363
 20
52.1869
 11
2.12131
 21
52.1213
  0
LINE
  8
0
 10
2.12131
 20
52.1213
 11
2.1869
 21
52.0536
  0
LINE
  8
0
 10
2.1869
 20
52.0536
 11
2.25032
 21
51.9839
  0
LINE
  8
0
 10
2.25032
 20
51.9839
 11
2.31154
 21
51.9123
  0
LINE
  8
0
 10
2.31154
 20
51.9123
 11
2.37045
 21
51.8387
  0
LINE
  8
0
 10
2.37045
 20
51.8387
 11
2.42705
 21
51.7634
  0
LINE
  8
0
 10
2.42705
 20
51.7634
 11
2.48123
 21
51.6862
  0
LINE
  8
0
 10
2.48123
 20
51.6862
 11
2.53297
 21
51.6075
  0
LINE
  8
0
 10
2.53297
 20
51.6075
 11
2.58221
 21
51.5271
  0
LINE
  8
0
 10
2.58221
 20
51.5271
 11
2.62891
 21
51.4453
  0
LINE
  8
0
 10
2.62891
 20
51.4453
 11
2.67302
 21
51.362
  0
LINE
  8
0
 10
2.67302
 20
51.362
 11
2.71448
 21
51.2773
  0
LINE
  8
0
 10
2.71448
 20
51.2773
 11
2.75325
 21
51.1914
  0
LINE
  8
0
 10
2.75325
 20
51.1914
 11
2.78932
 21
51.1044
  0
LINE
  8
0
 10
2.78932
 20
51.1044
 11
2.82263
 21
51.0162
  0
LINE
  8
0
 10
2.82263
 20
51.0162
 11
2.85316
 21
50.927
  0
LINE
  8
0
 10
2.85316
 20
50.927
 11
2.88087
 21
50.837
  0
LINE
  8
0
 10
2.88087
 20
50.837
 11
2.90575
 21
50.7461
  0
LINE
  8
0
 10
2.90575
 20
50.7461
 11
2.92775
 21
50.6544
  0
LINE
  8
0
 10
2.92775
 20
50.6544
 11
2.94685
 21
50.5621
  0
LINE
  8
0
 10
2.94685
 20
50.5621
 11
2.96306
 21
50.4693
  0
LINE
  8
0
 10
2.96306
 20
50.4693
 11
2.97633
 21
50.376
  0
LINE
  8
0
 10
2.97633
 20
50.376
 11
2.98668
 21
50.2823
  0
LINE
  8
0
 10
2.98668
 20
50.2823
 11
2.99408
 21
50.1884
  0
LINE
  8
0
 10
2.99408
 20
50.1884
 11
2.9985
 21
50.0942
  0
LINE
  8
0
 10
2.9985
 20
50.0942
 11
3
 21
50
  0
LINE
  8
0
 10
3
 20
50
 11
2.9985
 21
49.9058
  0
LINE
  8
0
 10
2.9985
 20
49.9058
 11
2.99408
 21
49.8116
  0
LINE
  8
0
 10
2.99408
 20
49.8116
 11
2.98668
 21
49.7177
  0
LINE
  8
0
 10
2.98668
 20
49.7177
 11
2.97633
 21
49.624
  0
LINE
  8
0
 10
2.97633
 20
49.624
 11
2.96306
 21
49.5307
  0
LINE
  8
0
 10
2.96306
 20
49.5307
 11
2.94685
 21
49.4379
  0
LINE
  8
0
 10
2.94685
 20
49.4379
 11
2.92775
 21
49.3456
  0
LINE
  8
0
 10
2.92775
 20
49.3456
 11
2.90575
 21
49.2539
  0
LINE
  8
0
 10
2.90575
 20
49.2539
 11
2.88087
 21
49.163
  0
LINE
  8
0
 10
2.88087
 20
49.163
 11
2.85316
 21
49.0729
  0
LINE
  8
0
 10
2.85316
 20
49.0729
 11
2.82263
 21
48.9838
  0
LINE
  8
0
 10
2.82263
 20
48.9838
 11
2.78932
 21
48.8956
  0
LINE
  8
0
 10
2.78932
 20
48.8956
 11
2.75325
 21
48.8085
  0
LINE
  8
0
 10
2.75325
 20
48.8085
 11
2.71448
 21
48.7227
  0
LINE
  8
0
 10
2.71448
 20
48.7227
 11
2.67302
 21
48.638
  0
LINE
  8
0
 10
2.67302
 20
48.638
 11
2.62891
 21
48.5547
  0
LINE
  8
0
 10
2.62891
 20
48.5547
 11
2.58221
 21
48.4729
  0
LINE
  8
0
 10
2.58221
 20
48.4729
 11
2.53297
 21
48.3925
  0
LINE
  8
0
 10
2.53297
 20
48.3925
 11
2.48123
 21
48.3137
  0
LINE
  8
0
 10
2.48123
 20
48.3137
 11
2.42705
 21
48.2366
  0
LINE
  8
0
 10
2.42705
 20
48.2366
 11
2.37045
 21
48.1613
  0
LINE
  8
0
 10
2.37045
 20
48.1613
 11
2.31154
 21
48.0877
  0
LINE
  8
0
 10
2.31154
 20
48.0877
 11
2.25032
 21
48.0161
  0
LINE
  8
0
 10
2.25032
 20
48.0161
 11
2.1869
 21
47.9464
  0
LINE
  8
0
 10
2.1869
 20
47.9464
 11
2.12131
 21
47.8787
  0
LINE
  8
0
 10
2.12131
 20
47.8787
 11
2.05363
 21
47.8131
  0
LINE
  8
0
 10
2.05363
 20
47.8131
 11
1.98393
 21
47.7497
  0
LINE
  8
0
 10
1.98393
 20
47.7497
 11
1.91226
 21
47.6884
  0
LINE
  8
0
 10
1.91226
 20
47.6884
 11
1.83871
 21
47.6295
  0
LINE
  8
0
 10
1.83871
 20
47.6295
 11
1.76335
 21
47.5729
  0
LINE
  8
0
 10
1.76335
 20
47.5729
 11
1.68625
 21
47.5188
  0
LINE
  8
0
 10
1.68625
 20
47.5188
 11
1.60747
 21
47.467
  0
LINE
  8
0
 10
1.60747
 20
47.467
 11
1.52711
 21
47.4178
  0
LINE
  8
0
 10
1.52711
 20
47.4178
 11
1.44525
 21
47.3711
  0
LINE
  8
0
 10
1.44525
 20
47.3711
 11
1.36197
 21
47.327
  0
LINE
  8
0
 10
1.36197
 20
47.327
 11
1.27733
 21
47.2855
  0
LINE
  8
0
 10
1.27733
 20
47.2855
 11
1.19144
 21
47.2467
  0
LINE
  8
0
 10
1.19144
 20
47.2467
 11
1.10437
 21
47.2107
  0
LINE
  8
0
 10
1.10437
 20
47.2107
 11
1.0162
 21
47.1774
  0
LINE
  8
0
 10
1.0162
 20
47.1774
 11
0.927048
 21
47.1468
  0
LINE
  8
0
 10
0.927048
 20
47.1468
 11
0.83696
 21
47.1191
  0
LINE
  8
0
 10
0.83696
 20
47.1191
 11
0.746063
 21
47.0942
  0
LINE
  8
0
 10
0.746063
 20
47.0942
 11
0.654419
 21
47.0722
  0
LINE
  8
0
 10
0.654419
 20
47.0722
 11
0.562134
 21
47.0531
  0
LINE
  8
0
 10
0.562134
 20
47.0531
 11
0.469299
 21
47.0369
  0
LINE
  8
0
 10
0.469299
 20
47.0369
 11
0.375992
 21
47.0237
  0
LINE
  8
0
 10
0.375992
 20
47.0237
 11
0.282318
 21
47.0133
  0
LINE
  8
0
 10
0.282318
 20
47.0133
 11
0.18837
 21
47.0059
  0
LINE
  8
0
 10
0.18837
 20
47.0059
 11
0.094223
 21
47.0015
  0
LINE
  8
0
 10
0.094223
 20
47.0015
 11
0
 21
47
  0
LINE
  8
0
 10
0
 20
47
 11
-0.094223
 21
47.0015
  0
LINE
  8
0
 10
-43.3641
 20
22.0007
 11
-43.4583
 21
22.0041
  0
LINE
  8
0
 10
-43.4583
 20
22.0041
 11
-43.5523
 21
22.0105
  0
LINE
  8
0
 10
-43.5523
 20
22.0105
 11
-43.6461
 21
22.0199
  0
LINE
  8
0
 10
-43.6461
 20
22.0199
 11
-43.7395
 21
22.0322
  0
LINE
  8
0
 10
-43.7395
 20
22.0322
 11
-43.8325
 21
22.0474
  0
LINE
  8
0
 10
-43.8325
 20
22.0474
 11
-43.925
 21
22.0656
  0
LINE
  8
0
 10
-43.925
 20
22.0656
 11
-44.0169
 21
22.0866
  0
LINE
  8
0
 10
-44.0169
 20
22.0866
 11
-44.108
 21
22.1105
  0
LINE
  8
0
 10
-44.108
 20
22.1105
 11
-44.1984
 21
22.1373
  0
LINE
  8
0
 10
-44.1984
 20
22.1373
 11
-44.2879
 21
22.1669
  0
LINE
  8
0
 10
-44.2879
 20
22.1669
 11
-44.3764
 21
22.1992
  0
LINE
  8
0
 10
-44.3764
 20
22.1992
 11
-44.4638
 21
22.2344
  0
LINE
  8
0
 10
-44.4638
 20
22.2344
 11
-44.5501
 21
22.2723
  0
LINE
  8
0
 10
-44.5501
 20
22.2723
 11
-44.6352
 21
22.3129
  0
LINE
  8
0
 10
-44.6352
 20
22.3129
 11
-44.7189
 21
22.3561
  0
LINE
  8
0
 10
-44.7189
 20
22.3561
 11
-44.8013
 21
22.4019
  0
LINE
  8
0
 10
-44.8013
 20
22.4019
 11
-44.8821
 21
22.4503
  0
LINE
  8
0
 10
-44.8821
 20
22.4503
 11
-44.9614
 21
22.5012
  0
LINE
  8
0
 10
-44.9614
 20
22.5012
 11
-45.0391
 21
22.5546
  0
LINE
  8
0
 10
-45.0391
 20
22.5546
 11
-45.1151
 21
22.6104
  0
LINE
  8
0
 10
-45.1151
 20
22.6104
 11
-45.1892
 21
22.6685
  0
LINE
  8
0
 10
-45.1892
 20
22.6685
 11
-45.2615
 21
22.729
  0
LINE
  8
0
 10
-45.2615
 20
22.729
 11
-45.3319
 21
22.7917
  0
LINE
  8
0
 10
-45.3319
 20
22.7917
 11
-45.4003
 21
22.8566
  0
LINE
  8
0
 10
-45.4003
 20
22.8566
 11
-45.4665
 21
22.9236
  0
LINE
  8
0
 10
-45.4665
 20
22.9236
 11
-45.5307
 21
22.9926
  0
LINE
  8
0
 10
-45.5307
 20
22.9926
 11
-45.5927
 21
23.0636
  0
LINE
  8
0
 10
-45.5927
 20
23.0636
 11
-45.6523
 21
23.1366
  0
LINE
  8
0
 10
-45.6523
 20
23.1366
 11
-45.7097
 21
23.2113
  0
LINE
  8
0
 10
-45.7097
 20
23.2113
 11
-45.7647
 21
23.2879
  0
LINE
  8
0
 10
-45.7647
 20
23.2879
 11
-45.8173
 21
23.3661
  0
LINE
  8
0
 10
-45.8173
 20
23.3661
 11
-45.8674
 21
23.4459
  0
LINE
  8
0
 10
-45.8674
 20
23.4459
 11
-45.9149
 21
23.5273
  0
LINE
  8
0
 10
-45.9149
 20
23.5273
 11
-45.9599
 21
23.6101
  0
LINE
  8
0
 10
-45.9599
 20
23.6101
 11
-46.0022
 21
23.6943
  0
LINE
  8
0
 10
-46.0022
 20
23.6943
 11
-46.0419
 21
23.7798
  0
LINE
  8
0
 10
-46.0419
 20
23.7798
 11
-46.0789
 21
23.8665
  0
LINE
  8
0
 10
-46.0789
 20
23.8665
 11
-46.1131
 21
23.9543
  0
LINE
  8
0
 10
-46.1131
 20
23.9543
 11
-46.1446
 21
24.0431
  0
LINE
  8
0
 10
-46.1446
 20
24.0431
 11
-46.1732
 21
24.1329
  0
LINE
  8
0
 10
-46.1732
 20
24.1329
 11
-46.199
 21
24.2235
  0
LINE
  8
0
 10
-46.199
 20
24.2235
 11
-46.222
 21
24.3149
  0
LINE
  8
0
 10
-46.222
 20
24.3149
 11
-46.2421
 21
24.407
  0
LINE
  8
0
 10
-46.2421
 20
24.407
 11
-46.2592
 21
24.4997
  0
LINE
  8
0
 10
-46.2592
 20
24.4997
 11
-46.2735
 21
24.5928
  0
LINE
  8
0
 10
-46.2735
 20
24.5928
 11
-46.2848
 21
24.6864
  0
LINE
  8
0
 10
-46.2848
 20
24.6864
 11
-46.2932
 21
24.7803
  0
LINE
  8
0
 10
-46.2932
 20
24.7803
 11
-46.2986
 21
24.8744
  0
LINE
  8
0
 10
-46.2986
 20
24.8744
 11
-46.3011
 21
24.9686
  0
LINE
  8
0
 10
-46.3011
 20
24.9686
 11
-46.3006
 21
25.0628
  0
LINE
  8
0
 10
-46.3006
 20
25.0628
 11
-46.2971
 21
25.157
  0
LINE
  8
0
 10
-46.2971
 20
25.157
 11
-46.2907
 21
25.251
  0
LINE
  8
0
 10
-46.2907
 20
25.251
 11
-46.2814
 21
25.3448
  0
LINE
  8
0
 10
-46.2814
 20
25.3448
 11
-46.2691
 21
25.4382
  0
LINE
  8
0
 10
-46.2691
 20
25.4382
 11
-46.2538
 21
25.5312
  0
LINE
  8
0
 10
-46.2538
 20
25.5312
 11
-46.2357
 21
25.6237
  0
LINE
  8
0
 10
-46.2357
 20
25.6237
 11
-46.2147
 21
25.7156
  0
LINE
  8
0
 10
-46.2147
 20
25.7156
 11
-46.1908
 21
25.8067
  0
LINE
  8
0
 10
-46.1908
 20
25.8067
 11
-46.164
 21
25.8971
  0
LINE
  8
0
 10
-46.164
 20
25.8971
 11
-46.1344
 21
25.9866
  0
LINE
  8
0
 10
-46.1344
 20
25.9866
 11
-46.102
 21
26.0751
  0
LINE
  8
0
 10
-46.102
 20
26.0751
 11
-46.0668
 21
26.1625
  0
LINE
  8
0
 10
-46.0668
 20
26.1625
 11
-46.029
 21
26.2488
  0
LINE
  8
0
 10
-46.029
 20
26.2488
 11
-45.9884
 21
26.3339
  0
LINE
  8
0
 10
-45.9884
 20
26.3339
 11
-45.9452
 21
26.4176
  0
LINE
  8
0
 10
-45.9452
 20
26.4176
 11
-45.8993
 21
26.5
  0
LINE
  8
0
 10
-45.8993
 20
26.5
 11
-45.8509
 21
26.5809
  0
LINE
  8
0
 10
-45.8509
 20
26.5809
 11
-45.8
 21
26.6602
  0
LINE
  8
0
 10
-45.8
 20
26.6602
 11
-45.7466
 21
26.7378
  0
LINE
  8
0
 10
-45.7466
 20
26.7378
 11
-45.6909
 21
26.8138
  0
LINE
  8
0
 10
-45.6909
 20
26.8138
 11
-45.6327
 21
26.888
  0
LINE
  8
0
 10
-45.6327
 20
26.888
 11
-45.5723
 21
26.9603
  0
LINE
  8
0
 10
-45.5723
 20
26.9603
 11
-45.5096
 21
27.0306
  0
LINE
  8
0
 10
-45.5096
 20
27.0306
 11
-45.4447
 21
27.099
  0
LINE
  8
0
 10
-45.4447
 20
27.099
 11
-45.3777
 21
27.1653
  0
LINE
  8
0
 10
-45.3777
 20
27.1653
 11
-45.3087
 21
27.2294
  0
LINE
  8
0
 10
-45.3087
 20
27.2294
 11
-45.2376
 21
27.2914
  0
LINE
  8
0
 10
-45.2376
 20
27.2914
 11
-45.1647
 21
27.3511
  0
LINE
  8
0
 10
-45.1647
 20
27.3511
 11
-45.0899
 21
27.4084
  0
LINE
  8
0
 10
-45.0899
 20
27.4084
 11
-45.0134
 21
27.4634
  0
LINE
  8
0
 10
-45.0134
 20
27.4634
 11
-44.9352
 21
27.516
  0
LINE
  8
0
 10
-44.9352
 20
27.516
 11
-44.8553
 21
27.5661
  0
LINE
  8
0
 10
-44.8553
 20
27.5661
 11
-44.774
 21
27.6136
  0
LINE
  8
0
 10
-44.774
 20
27.6136
 11
-44.6911
 21
27.6586
  0
LINE
  8
0
 10
-44.6911
 20
27.6586
 11
-44.6069
 21
27.7009
  0
LINE
  8
0
 10
-44.6069
 20
27.7009
 11
-44.5215
 21
27.7406
  0
LINE
  8
0
 10
-44.5215
 20
27.7406
 11
-44.4348
 21
27.7776
  0
LINE
  8
0
 10
-44.4348
 20
27.7776
 11
-44.347
 21
27.8118
  0
LINE
  8
0
 10
-44.347
 20
27.8118
 11
-44.2581
 21
27.8433
  0
LINE
  8
0
 10
-44.2581
 20
27.8433
 11
-44.1684
 21
27.8719
  0
LINE
  8
0
 10
-44.1684
 20
27.8719
 11
-44.0777
 21
27.8978
  0
LINE
  8
0
 10
-44.0777
 20
27.8978
 11
-43.9863
 21
27.9207
  0
LINE
  8
0
 10
-43.9863
 20
27.9207
 11
-43.8942
 21
27.9408
  0
LINE
  8
0
 10
-43.8942
 20
27.9408
 11
-43.8016
 21
27.958
  0
LINE
  8
0
 10
-43.8016
 20
27.958
 11
-43.7084
 21
27.9722
  0
LINE
  8
0
 10
-43.7084
 20
27.9722
 11
-43.6149
 21
27.9836
  0
LINE
  8
0
 10
-43.6149
 20
27.9836
 11
-43.521
 21
27.9919
  0
LINE
  8
0
 10
-43.521
 20
27.9919
 11
-43.4269
 21
27.9974
  0
LINE
  8
0
 10
-43.4269
 20
27.9974
 11
-43.3327
 21
27.9998
  0
LINE
  8
0
 10
-43.3327
 20
27.9998
 11
-43.2384
 21
27.9993
  0
LINE
  8
0
 10
-43.2384
 20
27.9993
 11
-43.1443
 21
27.9959
  0
LINE
  8
0
 10
-43.1443
 20
27.9959
 11
-43.0502
 21
27.9895
  0
LINE
  8
0
 10
-43.0502
 20
27.9895
 11
-42.9565
 21
27.9801
  0
LINE
  8
0
 10
-42.9565
 20
27.9801
 11
-42.863
 21
27.9678
  0
LINE
  8
0
 10
-42.863
 20
27.9678
 11
-42.77
 21
27.9526
  0
LINE
  8
0
 10
-42.77
 20
27.9526
 11
-42.6775
 21
27.9344
  0
LINE
  8
0
 10
-42.6775
 20
27.9344
 11
-42.5857
 21
27.9134
  0
LINE
  8
0
 10
-42.5857
 20
27.9134
 11
-42.4945
 21
27.8895
  0
LINE
  8
0
 10
-42.4945
 20
27.8895
 11
-42.4041
 21
27.8627
  0
LINE
  8
0
 10
-42.4041
 20
27.8627
 11
-42.3147
 21
27.8331
  0
LINE
  8
0
 10
-42.3147
 20
27.8331
 11
-42.2262
 21
27.8007
  0
LINE
  8
0
 10
-42.2262
 20
27.8007
 11
-42.1387
 21
27.7656
  0
LINE
  8
0
 10
-42.1387
 20
27.7656
 11
-42.0524
 21
27.7277
  0
LINE
  8
0
 10
-42.0524
 20
27.7277
 11
-41.9674
 21
27.6871
  0
LINE
  8
0
 10
-41.9674
 20
27.6871
 11
-41.8836
 21
27.6439
  0
LINE
  8
0
 10
-41.8836
 20
27.6439
 11
-41.8013
 21
27.5981
  0
LINE
  8
0
 10
-41.8013
 20
27.5981
 11
-41.7204
 21
27.5497
  0
LINE
  8
0
 10
-41.7204
 20
27.5497
 11
-41.6411
 21
27.4987
  0
LINE
  8
0
 10
-41.6411
 20
27.4987
 11
-41.5634
 21
27.4454
  0
LINE
  8
0
 10
-41.5634
 20
27.4454
 11
-41.4875
 21
27.3896
  0
LINE
  8
0
 10
-41.4875
 20
27.3896
 11
-41.4133
 21
27.3314
  0
LINE
  8
0
 10
-41.4133
 20
27.3314
 11
-41.341
 21
27.271
  0
LINE
  8
0
 10
-41.341
 20
27.271
 11
-41.2706
 21
27.2083
  0
LINE
  8
0
 10
-41.2706
 20
27.2083
 11
-41.2023
 21
27.1434
  0
LINE
  8
0
 10
-41.2023
 20
27.1434
 11
-41.136
 21
27.0764
  0
LINE
  8
0
 10
-41.136
 20
27.0764
 11
-41.0718
 21
27.0074
  0
LINE
  8
0
 10
-41.0718
 20
27.0074
 11
-41.0099
 21
26.9364
  0
LINE
  8
0
 10
-41.0099
 20
26.9364
 11
-40.9502
 21
26.8634
  0
LINE
  8
0
 10
-40.9502
 20
26.8634
 11
-40.8928
 21
26.7887
  0
LINE
  8
0
 10
-40.8928
 20
26.7887
 11
-40.8378
 21
26.7121
  0
LINE
  8
0
 10
-40.8378
 20
26.7121
 11
-40.7852
 21
26.6339
  0
LINE
  8
0
 10
-40.7852
 20
26.6339
 11
-40.7352
 21
26.5541
  0
LINE
  8
0
 10
-40.7352
 20
26.5541
 11
-40.6876
 21
26.4727
  0
LINE
  8
0
 10
-40.6876
 20
26.4727
 11
-40.6427
 21
26.3899
  0
LINE
  8
0
 10
-40.6427
 20
26.3899
 11
-40.6003
 21
26.3057
  0
LINE
  8
0
 10
-40.6003
 20
26.3057
 11
-40.5606
 21
26.2202
  0
LINE
  8
0
 10
-40.5606
 20
26.2202
 11
-40.5237
 21
26.1335
  0
LINE
  8
0
 10
-40.5237
 20
26.1335
 11
-40.4894
 21
26.0457
  0
LINE
  8
0
 10
-40.4894
 20
26.0457
 11
-40.458
 21
25.9569
  0
LINE
  8
0
 10
-40.458
 20
25.9569
 11
-40.4293
 21
25.8671
  0
LINE
  8
0
 10
-40.4293
 20
25.8671
 11
-40.4035
 21
25.7764
  0
LINE
  8
0
 10
-40.4035
 20
25.7764
 11
-40.3805
 21
25.685
  0
LINE
  8
0
 10
-40.3805
 20
25.685
 11
-40.3604
 21
25.593
  0
LINE
  8
0
 10
-40.3604
 20
25.593
 11
-40.3433
 21
25.5003
  0
LINE
  8
0
 10
-40.3433
 20
25.5003
 11
-40.329
 21
25.4071
  0
LINE
  8
0
 10
-40.329
 20
25.4071
 11
-40.3177
 21
25.3136
  0
LINE
  8
0
 10
-40.3177
 20
25.3136
 11
-40.3093
 21
25.2197
  0
LINE
  8
0
 10
-40.3093
 20
25.2197
 11
-40.3039
 21
25.1256
  0
LINE
  8
0
 10
-40.3039
 20
25.1256
 11
-40.3014
 21
25.0314
  0
LINE
  8
0
 10
-40.3014
 20
25.0314
 11
-40.3019
 21
24.9372
  0
LINE
  8
0
 10
-40.3019
 20
24.9372
 11
-40.3054
 21
24.843
  0
LINE
  8
0
 10
-40.3054
 20
24.843
 11
-40.3118
 21
24.749
  0
LINE
  8
0
 10
-40.3118
 20
24.749
 11
-40.3212
 21
24.6552
  0
LINE
  8
0
 10
-40.3212
 20
24.6552
 11
-40.3335
 21
24.5617
  0
LINE
  8
0
 10
-40.3335
 20
24.5617
 11
-40.3487
 21
24.4687
  0
LINE
  8
0
 10
-40.3487
 20
24.4687
 11
-40.3668
 21
24.3763
  0
LINE
  8
0
 10
-40.3668
 20
24.3763
 11
-40.3879
 21
24.2844
  0
LINE
  8
0
 10
-40.3879
 20
24.2844
 11
-40.4118
 21
24.1932
  0
LINE
  8
0
 10
-40.4118
 20
24.1932
 11
-40.4385
 21
24.1029
  0
LINE
  8
0
 10
-40.4385
 20
24.1029
 11
-40.4681
 21
24.0134
  0
LINE
  8
0
 10
-40.4681
 20
24.0134
 11
-40.5005
 21
23.9249
  0
LINE
  8
0
 10
-40.5005
 20
23.9249
 11
-40.5357
 21
23.8374
  0
LINE
  8
0
 10
-40.5357
 20
23.8374
 11
-40.5735
 21
23.7511
  0
LINE
  8
0
 10
-40.5735
 20
23.7511
 11
-40.6141
 21
23.6661
  0
LINE
  8
0
 10
-40.6141
 20
23.6661
 11
-40.6573
 21
23.5823
  0
LINE
  8
0
 10
-40.6573
 20
23.5823
 11
-40.7032
 21
23.5
  0
LINE
  8
0
 10
-40.7032
 20
23.5
 11
-40.7516
 21
23.4191
  0
LINE
  8
0
 10
-40.7516
 20
23.4191
 11
-40.8025
 21
23.3398
  0
LINE
  8
0
 10
-40.8025
 20
23.3398
 11
-40.8559
 21
23.2621
  0
LINE
  8
0
 10
-40.8559
 20
23.2621
 11
-40.9117
 21
23.1862
  0
LINE
  8
0
 10
-40.9117
 20
23.1862
 11
-40.9698
 21
23.112
  0
LINE
  8
0
 10
-40.9698
 20
23.112
 11
-41.0303
 21
23.0397
  0
LINE
  8
0
 10
-41.0303
 20
23.0397
 11
-41.093
 21
22.9694
  0
LINE
  8
0
 10
-41.093
 20
22.9694
 11
-41.1578
 21
22.901
  0
LINE
  8
0
 10
-41.1578
 20
22.901
 11
-41.2248
 21
22.8347
  0
LINE
  8
0
 10
-41.2248
 20
22.8347
 11
-41.2939
 21
22.7706
  0
LINE
  8
0
 10
-41.2939
 20
22.7706
 11
-41.3649
 21
22.7086
  0
LINE
  8
0
 10
-41.3649
 20
22.7086
 11
-41.4378
 21
22.6489
  0
LINE
  8
0
 10
-41.4378
 20
22.6489
 11
-41.5126
 21
22.5915
  0
LINE
  8
0
 10
-41.5126
 20
22.5915
 11
-41.5891
 21
22.5365
  0
LINE
  8
0
 10
-41.5891
 20
22.5365
 11
-41.6673
 21
22.484
  0
LINE
  8
0
 10
-41.6673
 20
22.484
 11
-41.7472
 21
22.4339
  0
LINE
  8
0
 10
-41.7472
 20
22.4339
 11
-41.8286
 21
22.3864
  0
LINE
  8
0
 10
-41.8286
 20
22.3864
 11
-41.9114
 21
22.3414
  0
LINE
  8
0
 10
-41.9114
 20
22.3414
 11
-41.9956
 21
22.299
  0
LINE
  8
0
 10
-41.9956
 20
22.299
 11
-42.0811
 21
22.2594
  0
LINE
  8
0
 10
-42.0811
 20
22.2594
 11
-42.1677
 21
22.2224
  0
LINE
  8
0
 10
-42.1677
 20
22.2224
 11
-42.2555
 21
22.1881
  0
LINE
  8
0
 10
-42.2555
 20
22.1881
 11
-42.3444
 21
22.1567
  0
LINE
  8
0
 10
-42.3444
 20
22.1567
 11
-42.4342
 21
22.128
  0
LINE
  8
0
 10
-42.4342
 20
22.128
 11
-42.5248
 21
22.1022
  0
LINE
  8
0
 10
-42.5248
 20
22.1022
 11
-42.6162
 21
22.0793
  0
LINE
  8
0
 10
-42.6162
 20
22.0793
 11
-42.7083
 21
22.0592
  0
LINE
  8
0
 10
-42.7083
 20
22.0592
 11
-42.8009
 21
22.042
  0
LINE
  8
0
 10
-42.8009
 20
22.042
 11
-42.8941
 21
22.0278
  0
LINE
  8
0
 10
-42.8941
 20
22.0278
 11
-42.9877
 21
22.0164
  0
LINE
  8
0
 10
-42.9877
 20
22.0164
 11
-43.0815
 21
22.008
  0
LINE
  8
0
 10
-43.0815
 20
22.008
 11
-43.1756
 21
22.0026
  0
LINE
  8
0
 10
-43.1756
 20
22.0026
 11
-43.2699
 21
22.0002
  0
LINE
  8
0
 10
-43.2699
 20
22.0002
 11
-43.3641
 21
22.0007
  0
LINE
  8
0
 10
43.1756
 20
22.0026
 11
43.0815
 21
22.008
  0
LINE
  8
0
 10
43.0815
 20
22.008
 11
42.9877
 21
22.0164
  0
LINE
  8
0
 10
42.9877
 20
22.0164
 11
42.8941
 21
22.0278
  0
LINE
  8
0
 10
42.8941
 20
22.0278
 11
42.8009
 21
22.042
  0
LINE
  8
0
 10
42.8009
 20
22.042
 11
42.7083
 21
22.0592
  0
LINE
  8
0
 10
42.7083
 20
22.0592
 11
42.6162
 21
22.0793
  0
LINE
  8
0
 10
42.6162
 20
22.0793
 11
42.5248
 21
22.1022
  0
LINE
  8
0
 10
42.5248
 20
22.1022
 11
42.4342
 21
22.128
  0
LINE
  8
0
 10
42.4342
 20
22.128
 11
42.3444
 21
22.1567
  0
LINE
  8
0
 10
42.3444
 20
22.1567
 11
42.2555
 21
22.1881
  0
LINE
  8
0
 10
42.2555
 20
22.1881
 11
42.1677
 21
22.2224
  0
LINE
  8
0
 10
42.1677
 20
22.2224
 11
42.0811
 21
22.2594
  0
LINE
  8
0
 10
42.0811
 20
22.2594
 11
41.9956
 21
22.299
  0
LINE
  8
0
 10
41.9956
 20
22.299
 11
41.9114
 21
22.3414
  0
LINE
  8
0
 10
41.9114
 20
22.3414
 11
41.8286
 21
22.3864
  0
LINE
  8
0
 10
41.8286
 20
22.3864
 11
41.7472
 21
22.4339
  0
LINE
  8
0
 10
41.7472
 20
22.4339
 11
41.6673
 21
22.484
  0
LINE
  8
0
 10
41.6673
 20
22.484
 11
41.5891
 21
22.5365
  0
LINE
  8
0
 10
41.5891
 20
22.5365
 11
41.5126
 21
22.5915
  0
LINE
  8
0
 10
41.5126
 20
22.5915
 11
41.4378
 21
22.6489
  0
LINE
  8
0
 10
41.4378
 20
22.6489
 11
41.3649
 21
22.7086
  0
LINE
  8
0
 10
41.3649
 20
22.7086
 11
41.2939
 21
22.7706
  0
LINE
  8
0
 10
41.2939
 20
22.7706
 11
41.2248
 21
22.8347
  0
LINE
  8
0
 10
41.2248
 20
22.8347
 11
41.1578
 21
22.901
  0
LINE
  8
0
 10
41.1578
 20
22.901
 11
41.093
 21
22.9694
  0
LINE
  8
0
 10
41.093
 20
22.9694
 11
41.0303
 21
23.0397
  0
LINE
  8
0
 10
41.0303
 20
23.0397
 11
40.9698
 21
23.112
  0
LINE
  8
0
 10
40.9698
 20
23.112
 11
40.9117
 21
23.1862
  0
LINE
  8
0
 10
40.9117
 20
23.1862
 11
40.8559
 21
23.2621
  0
LINE
  8
0
 10
40.8559
 20
23.2621
 11
40.8025
 21
23.3398
  0
LINE
  8
0
 10
40.8025
 20
23.3398
 11
40.7516
 21
23.4191
  0
LINE
  8
0
 10
40.7516
 20
23.4191
 11
40.7032
 21
23.5
  0
LINE
  8
0
 10
40.7032
 20
23.5
 11
40.6573
 21
23.5823
  0
LINE
  8
0
 10
40.6573
 20
23.5823
 11
40.6141
 21
23.6661
  0
LINE
  8
0
 10
40.6141
 20
23.6661
 11
40.5735
 21
23.7511
  0
LINE
  8
0
 10
40.5735
 20
23.7511
 11
40.5357
 21
23.8374
  0
LINE
  8
0
 10
40.5357
 20
23.8374
 11
40.5005
 21
23.9249
  0
LINE
  8
0
 10
40.5005
 20
23.9249
 11
40.4681
 21
24.0134
  0
LINE
  8
0
 10
40.4681
 20
24.0134
 11
40.4385
 21
24.1029
  0
LINE
  8
0
 10
40.4385
 20
24.1029
 11
40.4118
 21
24.1932
  0
LINE
  8
0
 10
40.4118
 20
24.1932
 11
40.3879
 21
24.2844
  0
LINE
  8
0
 10
40.3879
 20
24.2844
 11
40.3668
 21
24.3763
  0
LINE
  8
0
 10
40.3668
 20
24.3763
 11
40.3487
 21
24.4687
  0
LINE
  8
0
 10
40.3487
 20
24.4687
 11
40.3335
 21
24.5617
  0
LINE
  8
0
 10
40.3335
 20
24.5617
 11
40.3212
 21
24.6552
  0
LINE
  8
0
 10
40.3212
 20
24.6552
 11
40.3118
 21
24.749
  0
LINE
  8
0
 10
40.3118
 20
24.749
 11
40.3054
 21
24.843
  0
LINE
  8
0
 10
40.3054
 20
24.843
 11
40.3019
 21
24.9372
  0
LINE
  8
0
 10
40.3019
 20
24.9372
 11
40.3014
 21
25.0314
  0
LINE
  8
0
 10
40.3014
 20
25.0314
 11
40.3039
 21
25.1256
  0
LINE
  8
0
 10
40.3039
 20
25.1256
 11
40.3093
 21
25.2197
  0
LINE
  8
0
 10
40.3093
 20
25.2197
 11
40.3177
 21
25.3136
  0
LINE
  8
0
 10
40.3177
 20
25.3136
 11
40.329
 21
25.4071
  0
LINE
  8
0
 10
40.329
 20
25.4071
 11
40.3433
 21
25.5003
  0
LINE
  8
0
 10
40.3433
 20
25.5003
 11
40.3604
 21
25.593
  0
LINE
  8
0
 10
40.3604
 20
25.593
 11
40.3805
 21
25.685
  0
LINE
  8
0
 10
40.3805
 20
25.685
 11
40.4035
 21
25.7764
  0
LINE
  8
0
 10
40.4035
 20
25.7764
 11
40.4293
 21
25.8671
  0
LINE
  8
0
 10
40.4293
 20
25.8671
 11
40.458
 21
25.9569
  0
LINE
  8
0
 10
40.458
 20
25.9569
 11
40.4894
 21
26.0457
  0
LINE
  8
0
 10
40.4894
 20
26.0457
 11
40.5237
 21
26.1335
  0
LINE
  8
0
 10
40.5237
 20
26.1335
 11
40.5606
 21
26.2202
  0
LINE
  8
0
 10
40.5606
 20
26.2202
 11
40.6003
 21
26.3057
  0
LINE
  8
0
 10
40.6003
 20
26.3057
 11
40.6427
 21
26.3899
  0
LINE
  8
0
 10
40.6427
 20
26.3899
 11
40.6876
 21
26.4727
  0
LINE
  8
0
 10
40.6876
 20
26.4727
 11
40.7352
 21
26.5541
  0
LINE
  8
0
 10
40.7352
 20
26.5541
 11
40.7852
 21
26.6339
  0
LINE
  8
0
 10
40.7852
 20
26.6339
 11
40.8378
 21
26.7121
  0
LINE
  8
0
 10
40.8378
 20
26.7121
 11
40.8928
 21
26.7887
  0
LINE
  8
0
 10
40.8928
 20
26.7887
 11
40.9502
 21
26.8634
  0
LINE
  8
0
 10
40.9502
 20
26.8634
 11
41.0099
 21
26.9364
  0
LINE
  8
0
 10
41.0099
 20
26.9364
 11
41.0718
 21
27.0074
  0
LINE
  8
0
 10
41.0718
 20
27.0074
 11
41.136
 21
27.0764
  0
LINE
  8
0
 10
41.136
 20
27.0764
 11
41.2023
 21
27.1434
  0
LINE
  8
0
 10
41.2023
 20
27.1434
 11
41.2706
 21
27.2083
  0
LINE
  8
0
 10
41.2706
 20
27.2083
 11
41.341
 21
27.271
  0
LINE
  8
0
 10
41.341
 20
27.271
 11
41.4133
 21
27.3314
  0
LINE
  8
0
 10
41.4133
 20
27.3314
 11
41.4875
 21
27.3896
  0
LINE
  8
0
 10
41.4875
 20
27.3896
 11
41.5634
 21
27.4454
  0
LINE
  8
0
 10
41.5634
 20
27.4454
 11
41.6411
 21
27.4987
  0
LINE
  8
0
 10
41.6411
 20
27.4987
 11
41.7204
 21
27.5497
  0
LINE
  8
0
 10
41.7204
 20
27.5497
 11
41.8013
 21
27.5981
  0
LINE
  8
0
 10
41.8013
 20
27.5981
 11
41.8836
 21
27.6439
  0
LINE
  8
0
 10
41.8836
 20
27.6439
 11
41.9674
 21
27.6871
  0
LINE
  8
0
 10
41.9674
 20
27.6871
 11
42.0524
 21
27.7277
  0
LINE
  8
0
 10
42.0524
 20
27.7277
 11
42.1387
 21
27.7656
  0
LINE
  8
0
 10
42.1387
 20
27.7656
 11
42.2262
 21
27.8007
  0
LINE
  8
0
 10
42.2262
 20
27.8007
 11
42.3147
 21
27.8331
  0
LINE
  8
0
 10
42.3147
 20
27.8331
 11
42.4041
 21
27.8627
  0
LINE
  8
0
 10
42.4041
 20
27.8627
 11
42.4945
 21
27.8895
  0
LINE
  8
0
 10
42.4945
 20
27.8895
 11
42.5857
 21
27.9134
  0
LINE
  8
0
 10
42.5857
 20
27.9134
 11
42.6775
 21
27.9344
  0
LINE
  8
0
 10
42.6775
 20
27.9344
 11
42.77
 21
27.9526
  0
LINE
  8
0
 10
42.77
 20
27.9526
 11
42.863
 21
27.9678
  0
LINE
  8
0
 10
42.863
 20
27.9678
 11
42.9565
 21
27.9801
  0
LINE
  8
0
 10
42.9565
 20
27.9801
 11
43.0502
 21
27.9895
  0
LINE
  8
0
 10
43.0502
 20
27.9895
 11
43.1443
 21
27.9959
  0
LINE
  8
0
 10
43.1443
 20
27.9959
 11
43.2384
 21
27.9993
  0
LINE
  8
0
 10
43.2384
 20
27.9993
 11
43.3327
 21
27.9998
  0
LINE
  8
0
 10
43.3327
 20
27.9998
 11
43.4269
 21
27.9974
  0
LINE
  8
0
 10
43.4269
 20
27.9974
 11
43.521
 21
27.9919
  0
LINE
  8
0
 10
43.521
 20
27.9919
 11
43.6149
 21
27.9836
  0
LINE
  8
0
 10
43.6149
 20
27.9836
 11
43.7084
 21
27.9722
  0
LINE
  8
0
 10
43.7084
 20
27.9722
 11
43.8016
 21
27.958
  0
LINE
  8
0
 10
43.8016
 20
27.958
 11
43.8942
 21
27.9408
  0
LINE
  8
0
 10
43.8942
 20
27.9408
 11
43.9863
 21
27.9207
  0
LINE
  8
0
 10
43.9863
 20
27.9207
 11
44.0777
 21
27.8978
  0
LINE
  8
0
 10
44.0777
 20
27.8978
 11
44.1684
 21
27.8719
  0
LINE
  8
0
 10
44.1684
 20
27.8719
 11
44.2581
 21
27.8433
  0
LINE
  8
0
 10
44.2581
 20
27.8433
 11
44.347
 21
27.8118
  0
LINE
  8
0
 10
44.347
 20
27.8118
 11
44.4348
 21
27.7776
  0
LINE
  8
0
 10
44.4348
 20
27.7776
 11
44.5215
 21
27.7406
  0
LINE
  8
0
 10
44.5215
 20
27.7406
 11
44.6069
 21
27.7009
  0
LINE
  8
0
 10
44.6069
 20
27.7009
 11
44.6911
 21
27.6586
  0
LINE
  8
0
 10
44.6911
 20
27.6586
 11
44.774
 21
27.6136
  0
LINE
  8
0
 10
44.774
 20
27.6136
 11
44.8553
 21
27.5661
  0
LINE
  8
0
 10
44.8553
 20
27.5661
 11
44.9352
 21
27.516
  0
LINE
  8
0
 10
44.9352
 20
27.516
 11
45.0134
 21
27.4634
  0
LINE
  8
0
 10
45.0134
 20
27.4634
 11
45.0899
 21
27.4084
  0
LINE
  8
0
 10
45.0899
 20
27.4084
 11
45.1647
 21
27.3511
  0
LINE
  8
0
 10
45.1647
 20
27.3511
 11
45.2376
 21
27.2914
  0
LINE
  8
0
 10
45.2376
 20
27.2914
 11
45.3087
 21
27.2294
  0
LINE
  8
0
 10
45.3087
 20
27.2294
 11
45.3777
 21
27.1653
  0
LINE
  8
0
 10
45.3777
 20
27.1653
 11
45.4447
 21
27.099
  0
LINE
  8
0
 10
45.4447
 20
27.099
 11
45.5096
 21
27.0306
  0
LINE
  8
0
 10
45.5096
 20
27.0306
 11
45.5723
 21
26.9603
  0
LINE
  8
0
 10
45.5723
 20
26.9603
 11
45.6327
 21
26.888
  0
LINE
  8
0
 10
45.6327
 20
26.888
 11
45.6909
 21
26.8138
  0
LINE
  8
0
 10
45.6909
 20
26.8138
 11
45.7466
 21
26.7378
  0
LINE
  8
0
 10
45.7466
 20
26.7378
 11
45.8
 21
26.6602
  0
LINE
  8
0
 10
45.8
 20
26.6602
 11
45.8509
 21
26.5809
  0
LINE
  8
0
 10
45.8509
 20
26.5809
 11
45.8993
 21
26.5
  0
LINE
  8
0
 10
45.8993
 20
26.5
 11
45.9452
 21
26.4176
  0
LINE
  8
0
 10
45.9452
 20
26.4176
 11
45.9884
 21
26.3339
  0
LINE
  8
0
 10
45.9884
 20
26.3339
 11
46.029
 21
26.2488
  0
LINE
  8
0
 10
46.029
 20
26.2488
 11
46.0668
 21
26.1625
  0
LINE
  8
0
 10
46.0668
 20
26.1625
 11
46.102
 21
26.0751
  0
LINE
  8
0
 10
46.102
 20
26.0751
 11
46.1344
 21
25.9866
  0
LINE
  8
0
 10
46.1344
 20
25.9866
 11
46.164
 21
25.8971
  0
LINE
  8
0
 10
46.164
 20
25.8971
 11
46.1908
 21
25.8067
  0
LINE
  8
0
 10
46.1908
 20
25.8067
 11
46.2147
 21
25.7156
  0
LINE
  8
0
 10
46.2147
 20
25.7156
 11
46.2357
 21
25.6237
  0
LINE
  8
0
 10
46.2357
 20
25.6237
 11
46.2538
 21
25.5312
  0
LINE
  8
0
 10
46.2538
 20
25.5312
 11
46.2691
 21
25.4382
  0
LINE
  8
0
 10
46.2691
 20
25.4382
 11
46.2814
 21
25.3448
  0
LINE
  8
0
 10
46.2814
 20
25.3448
 11
46.2907
 21
25.251
  0
LINE
  8
0
 10
46.2907
 20
25.251
 11
46.2971
 21
25.157
  0
LINE
  8
0
 10
46.2971
 20
25.157
 11
46.3006
 21
25.0628
  0
LINE
  8
0
 10
46.3006
 20
25.0628
 11
46.3011
 21
24.9686
  0
LINE
  8
0
 10
46.3011
 20
24.9686
 11
46.2986
 21
24.8744
  0
LINE
  8
0
 10
46.2986
 20
24.8744
 11
46.2932
 21
24.7803
  0
LINE
  8
0
 10
46.2932
 20
24.7803
 11
46.2848
 21
24.6864
  0
LINE
  8
0
 10
46.2848
 20
24.6864
 11
46.2735
 21
24.5928
  0
LINE
  8
0
 10
46.2735
 20
24.5928
 11
46.2592
 21
24.4997
  0
LINE
  8
0
 10
46.2592
 20
24.4997
 11
46.2421
 21
24.407
  0
LINE
  8
0
 10
46.2421
 20
24.407
 11
46.222
 21
24.3149
  0
LINE
  8
0
 10
46.222
 20
24.3149
 11
46.199
 21
24.2235
  0
LINE
  8
0
 10
46.199
 20
24.2235
 11
46.1732
 21
24.1329
  0
LINE
  8
0
 10
46.1732
 20
24.1329
 11
46.1446
 21
24.0431
  0
LINE
  8
0
 10
46.1446
 20
24.0431
 11
46.1131
 21
23.9543
  0
LINE
  8
0
 10
46.1131
 20
23.9543
 11
46.0789
 21
23.8665
  0
LINE
  8
0
 10
46.0789
 20
23.8665
 11
46.0419
 21
23.7798
  0
LINE
  8
0
 10
46.0419
 20
23.7798
 11
46.0022
 21
23.6943
  0
LINE
  8
0
 10
46.0022
 20
23.6943
 11
45.9599
 21
23.6101
  0
LINE
  8
0
 10
45.9599
 20
23.6101
 11
45.9149
 21
23.5273
  0
LINE
  8
0
 10
45.9149
 20
23.5273
 11
45.8674
 21
23.4459
  0
LINE
  8
0
 10
45.8674
 20
23.4459
 11
45.8173
 21
23.3661
  0
LINE
  8
0
 10
45.8173
 20
23.3661
 11
45.7647
 21
23.2879
  0
LINE
  8
0
 10
45.7647
 20
23.2879
 11
45.7097
 21
23.2113
  0
LINE
  8
0
 10
45.7097
 20
23.2113
 11
45.6523
 21
23.1366
  0
LINE
  8
0
 10
45.6523
 20
23.1366
 11
45.5927
 21
23.0636
  0
LINE
  8
0
 10
45.5927
 20
23.0636
 11
45.5307
 21
22.9926
  0
LINE
  8
0
 10
45.5307
 20
22.9926
 11
45.4665
 21
22.9236
  0
LINE
  8
0
 10
45.4665
 20
22.9236
 11
45.4003
 21
22.8566
  0
LINE
  8
0
 10
45.4003
 20
22.8566
 11
45.3319
 21
22.7917
  0
LINE
  8
0
 10
45.3319
 20
22.7917
 11
45.2615
 21
22.729
  0
LINE
  8
0
 10
45.2615
 20
22.729
 11
45.1892
 21
22.6685
  0
LINE
  8
0
 10
45.1892
 20
22.6685
 11
45.1151
 21
22.6104
  0
LINE
  8
0
 10
45.1151
 20
22.6104
 11
45.0391
 21
22.5546
  0
LINE
  8
0
 10
45.0391
 20
22.5546
 11
44.9614
 21
22.5012
  0
LINE
  8
0
 10
44.9614
 20
22.5012
 11
44.8821
 21
22.4503
  0
LINE
  8
0
 10
44.8821
 20
22.4503
 11
44.8013
 21
22.4019
  0
LINE
  8
0
 10
44.8013
 20
22.4019
 11
44.7189
 21
22.3561
  0
LINE
  8
0
 10
44.7189
 20
22.3561
 11
44.6352
 21
22.3129
  0
LINE
  8
0
 10
44.6352
 20
22.3129
 11
44.5501
 21
22.2723
  0
LINE
  8
0
 10
44.5501
 20
22.2723
 11
44.4638
 21
22.2344
  0
LINE
  8
0
 10
44.4638
 20
22.2344
 11
44.3764
 21
22.1992
  0
LINE
  8
0
 10
44.3764
 20
22.1992
 11
44.2879
 21
22.1669
  0
LINE
  8
0
 10
44.2879
 20
22.1669
 11
44.1984
 21
22.1373
  0
LINE
  8
0
 10
44.1984
 20
22.1373
 11
44.108
 21
22.1105
  0
LINE
  8
0
 10
44.108
 20
22.1105
 11
44.0169
 21
22.0866
  0
LINE
  8
0
 10
44.0169
 20
22.0866
 11
43.925
 21
22.0656
  0
LINE
  8
0
 10
43.925
 20
22.0656
 11
43.8325
 21
22.0474
  0
LINE
  8
0
 10
43.8325
 20
22.0474
 11
43.7395
 21
22.0322
  0
LINE
  8
0
 10
43.7395
 20
22.0322
 11
43.6461
 21
22.0199
  0
LINE
  8
0
 10
43.6461
 20
22.0199
 11
43.5523
 21
22.0105
  0
LINE
  8
0
 10
43.5523
 20
22.0105
 11
43.4583
 21
22.0041
  0
LINE
  8
0
 10
43.4583
 20
22.0041
 11
43.3641
 21
22.0007
  0
LINE
  8
0
 10
43.3641
 20
22.0007
 11
43.2699
 21
22.0002
  0
LINE
  8
0
 10
43.2699
 20
22.0002
 11
43.1756
 21
22.0026
  0
LINE
  8
0
 10
6.97687
 20
5.57402
 11
6.88306
 21
5.58289
  0
LINE
  8
0
 10
6.88306
 20
5.58289
 11
6.78999
 21
5.59763
  0
LINE
  8
0
 10
6.78999
 20
5.59763
 11
6.69803
 21
5.61818
  0
LINE
  8
0
 10
6.69803
 20
5.61818
 11
6.60753
 21
5.64447
  0
LINE
  8
0
 10
6.60753
 20
5.64447
 11
6.51888
 21
5.67639
  0
LINE
  8
0
 10
6.51888
 20
5.67639
 11
6.43239
 21
5.71382
  0
LINE
  8
0
 10
6.43239
 20
5.71382
 11
6.34843
 21
5.75661
  0
LINE
  8
0
 10
6.34843
 20
5.75661
 11
6.26732
 21
5.80457
  0
LINE
  8
0
 10
6.26732
 20
5.80457
 11
6.18938
 21
5.85753
  0
LINE
  8
0
 10
6.18938
 20
5.85753
 11
6.11493
 21
5.91528
  0
LINE
  8
0
 10
6.11493
 20
5.91528
 11
6.04424
 21
5.9776
  0
LINE
  8
0
 10
6.04424
 20
5.9776
 11
5.9776
 21
6.04424
  0
LINE
  8
0
 10
5.9776
 20
6.04424
 11
5.91528
 21
6.11493
  0
LINE
  8
0
 10
5.91528
 20
6.11493
 11
5.85753
 21
6.18938
  0
LINE
  8
0
 10
5.85753
 20
6.18938
 11
5.80457
 21
6.26732
  0
LINE
  8
0
 10
5.80457
 20
6.26732
 11
5.75661
 21
6.34843
  0
LINE
  8
0
 10
5.75661
 20
6.34843
 11
5.71382
 21
6.43239
  0
LINE
  8
0
 10
5.71382
 20
6.43239
 11
5.67639
 21
6.51888
  0
LINE
  8
0
 10
5.67639
 20
6.51888
 11
5.64447
 21
6.60753
  0
LINE
  8
0
 10
5.64447
 20
6.60753
 11
5.61818
 21
6.69803
  0
LINE
  8
0
 10
5.61818
 20
6.69803
 11
5.59763
 21
6.78999
  0
LINE
  8
0
 10
5.59763
 20
6.78999
 11
5.58289
 21
6.88306
  0
LINE
  8
0
 10
5.58289
 20
6.88306
 11
5.57402
 21
6.97687
  0
LINE
  8
0
 10
5.57402
 20
6.97687
 11
5.57106
 21
7.07106
  0
LINE
  8
0
 10
5.57106
 20
7.07106
 11
5.57402
 21
7.16525
  0
LINE
  8
0
 10
5.57402
 20
7.16525
 11
5.58289
 21
7.25906
  0
LINE
  8
0
 10
5.58289
 20
7.25906
 11
5.59763
 21
7.35213
  0
LINE
  8
0
 10
5.59763
 20
7.35213
 11
5.61818
 21
7.44409
  0
LINE
  8
0
 10
5.61818
 20
7.44409
 11
5.64447
 21
7.53459
  0
LINE
  8
0
 10
5.64447
 20
7.53459
 11
5.67639
 21
7.62325
  0
LINE
  8
0
 10
5.67639
 20
7.62325
 11
5.71382
 21
7.70973
  0
LINE
  8
0
 10
5.71382
 20
7.70973
 11
5.75661
 21
7.79369
  0
LINE
  8
0
 10
5.75661
 20
7.79369
 11
5.80457
 21
7.8748
  0
LINE
  8
0
 10
5.80457
 20
7.8748
 11
5.85753
 21
7.95274
  0
LINE
  8
0
 10
5.85753
 20
7.95274
 11
5.91528
 21
8.02719
  0
LINE
  8
0
 10
5.91528
 20
8.02719
 11
5.9776
 21
8.09789
  0
LINE
  8
0
 10
5.9776
 20
8.09789
 11
6.04424
 21
8.16452
  0
LINE
  8
0
 10
6.04424
 20
8.16452
 11
6.11493
 21
8.22684
  0
LINE
  8
0
 10
6.11493
 20
8.22684
 11
6.18938
 21
8.28459
  0
LINE
  8
0
 10
6.18938
 20
8.28459
 11
6.26732
 21
8.33755
  0
LINE
  8
0
 10
6.26732
 20
8.33755
 11
6.34843
 21
8.38551
  0
LINE
  8
0
 10
6.34843
 20
8.38551
 11
6.43239
 21
8.4283
  0
LINE
  8
0
 10
6.43239
 20
8.4283
 11
6.51888
 21
8.46573
  0
LINE
  8
0
 10
6.51888
 20
8.46573
 11
6.60753
 21
8.49765
  0
LINE
  8
0
 10
6.60753
 20
8.49765
 11
6.69803
 21
8.52394
  0
LINE
  8
0
 10
6.69803
 20
8.52394
 11
6.78999
 21
8.54449
  0
LINE
  8
0
 10
6.78999
 20
8.54449
 11
6.88306
 21
8.55923
  0
LINE
  8
0
 10
6.88306
 20
8.55923
 11
6.97687
 21
8.5681
  0
LINE
  8
0
 10
6.97687
 20
8.5681
 11
7.07106
 21
8.57106
  0
LINE
  8
0
 10
7.07106
 20
8.57106
 11
7.16525
 21
8.5681
  0
LINE
  8
0
 10
7.16525
 20
8.5681
 11
7.25906
 21
8.55923
  0
LINE
  8
0
 10
7.25906
 20
8.55923
 11
7.35213
 21
8.54449
  0
LINE
  8
0
 10
7.35213
 20
8.54449
 11
7.44409
 21
8.52394
  0
LINE
  8
0
 10
7.44409
 20
8.52394
 11
7.53459
 21
8.49765
  0
LINE
  8
0
 10
7.53459
 20
8.49765
 11
7.62325
 21
8.46573
  0
LINE
  8
0
 10
7.62325
 20
8.46573
 11
7.70973
 21
8.4283
  0
LINE
  8
0
 10
7.70973
 20
8.4283
 11
7.79369
 21
8.38551
  0
LINE
  8
0
 10
7.79369
 20
8.38551
 11
7.8748
 21
8.33755
  0
LINE
  8
0
 10
7.8748
 20
8.33755
 11
7.95274
 21
8.28459
  0
LINE
  8
0
 10
7.95274
 20
8.28459
 11
8.02719
 21
8.22684
  0
LINE
  8
0
 10
8.02719
 20
8.22684
 11
8.09789
 21
8.16452
  0
LINE
  8
0
 10
8.09789
 20
8.16452
 11
8.16452
 21
8.09789
  0
LINE
  8
0
 10
8.16452
 20
8.09789
 11
8.22684
 21
8.02719
  0
LINE
  8
0
 10
8.22684
 20
8.02719
 11
8.28459
 21
7.95274
  0
LINE
  8
0
 10
8.28459
 20
7.95274
 11
8.33755
 21
7.8748
  0
LINE
  8
0
 10
8.33755
 20
7.8748
 11
8.38551
 21
7.79369
  0
LINE
  8
0
 10
8.38551
 20
7.79369
 11
8.4283
 21
7.70973
  0
LINE
  8
0
 10
8.4283
 20
7.70973
 11
8.46573
 21
7.62325
  0
LINE
  8
0
 10
8.46573
 20
7.62325
 11
8.49765
 21
7.53459
  0
LINE
  8
0
 10
8.49765
 20
7.53459
 11
8.52394
 21
7.44409
  0
LINE
  8
0
 10
8.52394
 20
7.44409
 11
8.54449
 21
7.35213
  0
LINE
  8
0
 10
8.54449
 20
7.35213
 11
8.55923
 21
7.25906
  0
LINE
  8
0
 10
8.55923
 20
7.25906
 11
8.5681
 21
7.16525
  0
LINE
  8
0
 10
8.5681
 20
7.16525
 11
8.57106
 21
7.07106
  0
LINE
  8
0
 10
8.57106
 20
7.07106
 11
8.5681
 21
6.97687
  0
LINE
  8
0
 10
8.5681
 20
6.97687
 11
8.55923
 21
6.88306
  0
LINE
  8
0
 10
8.55923
 20
6.88306
 11
8.54449
 21
6.78999
  0
LINE
  8
0
 10
8.54449
 20
6.78999
 11
8.52394
 21
6.69803
  0
LINE
  8
0
 10
8.52394
 20
6.69803
 11
8.49765
 21
6.60753
  0
LINE
  8
0
 10
8.49765
 20
6.60753
 11
8.46573
 21
6.51888
  0
LINE
  8
0
 10
8.46573
 20
6.51888
 11
8.4283
 21
6.43239
  0
LINE
  8
0
 10
8.4283
 20
6.43239
 11
8.38551
 21
6.34843
  0
LINE
  8
0
 10
8.38551
 20
6.34843
 11
8.33755
 21
6.26732
  0
LINE
  8
0
 10
8.33755
 20
6.26732
 11
8.28459
 21
6.18938
  0
LINE
  8
0
 10
8.28459
 20
6.18938
 11
8.22684
 21
6.11493
  0
LINE
  8
0
 10
8.22684
 20
6.11493
 11
8.16452
 21
6.04424
  0
LINE
  8
0
 10
8.16452
 20
6.04424
 11
8.09789
 21
5.9776
  0
LINE
  8
0
 10
8.09789
 20
5.9776
 11
8.02719
 21
5.91528
  0
LINE
  8
0
 10
8.02719
 20
5.91528
 11
7.95274
 21
5.85753
  0
LINE
  8
0
 10
7.95274
 20
5.85753
 11
7.8748
 21
5.80457
  0
LINE
  8
0
 10
7.8748
 20
5.80457
 11
7.79369
 21
5.75661
  0
LINE
  8
0
 10
7.79369
 20
5.75661
 11
7.70973
 21
5.71382
  0
LINE
  8
0
 10
7.70973
 20
5.71382
 11
7.62325
 21
5.67639
  0
LINE
  8
0
 10
7.62325
 20
5.67639
 11
7.53459
 21
5.64447
  0
LINE
  8
0
 10
7.53459
 20
5.64447
 11
7.44409
 21
5.61818
  0
LINE
  8
0
 10
7.44409
 20
5.61818
 11
7.35213
 21
5.59763
  0
LINE
  8
0
 10
7.35213
 20
5.59763
 11
7.25906
 21
5.58289
  0
LINE
  8
0
 10
7.25906
 20
5.58289
 11
7.16525
 21
5.57402
  0
LINE
  8
0
 10
7.16525
 20
5.57402
 11
7.07106
 21
5.57106
  0
LINE
  8
0
 10
7.07106
 20
5.57106
 11
6.97687
 21
5.57402
  0
LINE
  8
0
 10
-7.16525
 20
5.57402
 11
-7.25906
 21
5.58289
  0
LINE
  8
0
 10
-7.25906
 20
5.58289
 11
-7.35213
 21
5.59763
  0
LINE
  8
0
 10
-7.35213
 20
5.59763
 11
-7.44409
 21
5.61818
  0
LINE
  8
0
 10
-7.44409
 20
5.61818
 11
-7.53459
 21
5.64447
  0
LINE
  8
0
 10
-7.53459
 20
5.64447
 11
-7.62325
 21
5.67639
  0
LINE
  8
0
 10
-7.62325
 20
5.67639
 11
-7.70973
 21
5.71382
  0
LINE
  8
0
 10
-7.70973
 20
5.71382
 11
-7.79369
 21
5.75661
  0
LINE
  8
0
 10
-7.79369
 20
5.75661
 11
-7.8748
 21
5.80457
  0
LINE
  8
0
 10
-7.8748
 20
5.80457
 11
-7.95274
 21
5.85753
  0
LINE
  8
0
 10
-7.95274
 20
5.85753
 11
-8.02719
 21
5.91528
  0
LINE
  8
0
 10
-8.02719
 20
5.91528
 11
-8.09789
 21
5.9776
  0
LINE
  8
0
 10
-8.09789
 20
5.9776
 11
-8.16452
 21
6.04424
  0
LINE
  8
0
 10
-8.16452
 20
6.04424
 11
-8.22684
 21
6.11493
  0
LINE
  8
0
 10
-8.22684
 20
6.11493
 11
-8.28459
 21
6.18938
  0
LINE
  8
0
 10
-8.28459
 20
6.18938
 11
-8.33755
 21
6.26732
  0
LINE
  8
0
 10
-8.33755
 20
6.26732
 11
-8.38551
 21
6.34843
  0
LINE
  8
0
 10
-8.38551
 20
6.34843
 11
-8.4283
 21
6.43239
  0
LINE
  8
0
 10
-8.4283
 20
6.43239
 11
-8.46573
 21
6.51888
  0
LINE
  8
0
 10
-8.46573
 20
6.51888
 11
-8.49765
 21
6.60753
  0
LINE
  8
0
 10
-8.49765
 20
6.60753
 11
-8.52394
 21
6.69803
  0
LINE
  8
0
 10
-8.52394
 20
6.69803
 11
-8.54449
 21
6.78999
  0
LINE
  8
0
 10
-8.54449
 20
6.78999
 11
-8.55923
 21
6.88306
  0
LINE
  8
0
 10
-8.55923
 20
6.88306
 11
-8.5681
 21
6.97687
  0
LINE
  8
0
 10
-8.5681
 20
6.97687
 11
-8.57106
 21
7.07106
  0
LINE
  8
0
 10
-8.57106
 20
7.07106
 11
-8.5681
 21
7.16525
  0
LINE
  8
0
 10
-8.5681
 20
7.16525
 11
-8.55923
 21
7.25906
  0
LINE
  8
0
 10
-8.55923
 20
7.25906
 11
-8.54449
 21
7.35213
  0
LINE
  8
0
 10
-8.54449
 20
7.35213
 11
-8.52394
 21
7.44409
  0
LINE
  8
0
 10
-8.52394
 20
7.44409
 11
-8.49765
 21
7.53459
  0
LINE
  8
0
 10
-8.49765
 20
7.53459
 11
-8.46573
 21
7.62325
  0
LINE
  8
0
 10
-8.46573
 20
7.62325
 11
-8.4283
 21
7.70973
  0
LINE
  8
0
 10
-8.4283
 20
7.70973
 11
-8.38551
 21
7.79369
  0
LINE
  8
0
 10
-8.38551
 20
7.79369
 11
-8.33755
 21
7.8748
  0
LINE
  8
0
 10
-8.33755
 20
7.8748
 11
-8.28459
 21
7.95274
  0
LINE
  8
0
 10
-8.28459
 20
7.95274
 11
-8.22684
 21
8.02719
  0
LINE
  8
0
 10
-8.22684
 20
8.02719
 11
-8.16452
 21
8.09789
  0
LINE
  8
0
 10
-8.16452
 20
8.09789
 11
-8.09789
 21
8.16452
  0
LINE
  8
0
 10
-8.09789
 20
8.16452
 11
-8.02719
 21
8.22684
  0
LINE
  8
0
 10
-8.02719
 20
8.22684
 11
-7.95274
 21
8.28459
  0
LINE
  8
0
 10
-7.95274
 20
8.28459
 11
-7.8748
 21
8.33755
  0
LINE
  8
0
 10
-7.8748
 20
8.33755
 11
-7.79369
 21
8.38551
  0
LINE
  8
0
 10
-7.79369
 20
8.38551
 11
-7.70973
 21
8.4283
  0
LINE
  8
0
 10
-7.70973
 20
8.4283
 11
-7.62325
 21
8.46573
  0
LINE
  8
0
 10
-7.62325
 20
8.46573
 11
-7.53459
 21
8.49765
  0
LINE
  8
0
 10
-7.53459
 20
8.49765
 11
-7.44409
 21
8.52394
  0
LINE
  8
0
 10
-7.44409
 20
8.52394
 11
-7.35213
 21
8.54449
  0
LINE
  8
0
 10
-7.35213
 20
8.54449
 11
-7.25906
 21
8.55923
  0
LINE
  8
0
 10
-7.25906
 20
8.55923
 11
-7.16525
 21
8.5681
  0
LINE
  8
0
 10
-7.16525
 20
8.5681
 11
-7.07106
 21
8.57106
  0
LINE
  8
0
 10
-7.07106
 20
8.57106
 11
-6.97687
 21
8.5681
  0
LINE
  8
0
 10
-6.97687
 20
8.5681
 11
-6.88306
 21
8.55923
  0
LINE
  8
0
 10
-6.88306
 20
8.55923
 11
-6.78999
 21
8.54449
  0
LINE
  8
0
 10
-6.78999
 20
8.54449
 11
-6.69803
 21
8.52394
  0
LINE
  8
0
 10
-6.69803
 20
8.52394
 11
-6.60753
 21
8.49765
  0
LINE
  8
0
 10
-6.60753
 20
8.49765
 11
-6.51888
 21
8.46573
  0
LINE
  8
0
 10
-6.51888
 20
8.46573
 11
-6.43239
 21
8.4283
  0
LINE
  8
0
 10
-6.43239
 20
8.4283
 11
-6.34843
 21
8.38551
  0
LINE
  8
0
 10
-6.34843
 20
8.38551
 11
-6.26732
 21
8.33755
  0
LINE
  8
0
 10
-6.26732
 20
8.33755
 11
-6.18938
 21
8.28459
  0
LINE
  8
0
 10
-6.18938
 20
8.28459
 11
-6.11493
 21
8.22684
  0
LINE
  8
0
 10
-6.11493
 20
8.22684
 11
-6.04424
 21
8.16452
  0
LINE
  8
0
 10
-6.04424
 20
8.16452
 11
-5.9776
 21
8.09789
  0
LINE
  8
0
 10
-5.9776
 20
8.09789
 11
-5.91528
 21
8.02719
  0
LINE
  8
0
 10
-5.91528
 20
8.02719
 11
-5.85753
 21
7.95274
  0
LINE
  8
0
 10
-5.85753
 20
7.95274
 11
-5.80457
 21
7.8748
  0
LINE
  8
0
 10
-5.80457
 20
7.8748
 11
-5.75661
 21
7.79369
  0
LINE
  8
0
 10
-5.75661
 20
7.79369
 11
-5.71382
 21
7.70973
  0
LINE
  8
0
 10
-5.71382
 20
7.70973
 11
-5.67639
 21
7.62325
  0
LINE
  8
0
 10
-5.67639
 20
7.62325
 11
-5.64447
 21
7.53459
  0
LINE
  8
0
 10
-5.64447
 20
7.53459
 11
-5.61818
 21
7.44409
  0
LINE
  8
0
 10
-5.61818
 20
7.44409
 11
-5.59763
 21
7.35213
  0
LINE
  8
0
 10
-5.59763
 20
7.35213
 11
-5.58289
 21
7.25906
  0
LINE
  8
0
 10
-5.58289
 20
7.25906
 11
-5.57402
 21
7.16525
  0
LINE
  8
0
 10
-5.57402
 20
7.16525
 11
-5.57106
 21
7.07106
  0
LINE
  8
0
 10
-5.57106
 20
7.07106
 11
-5.57402
 21
6.97687
  0
LINE
  8
0
 10
-5.57402
 20
6.97687
 11
-5.58289
 21
6.88306
  0
LINE
  8
0
 10
-5.58289
 20
6.88306
 11
-5.59763
 21
6.78999
  0
LINE
  8
0
 10
-5.59763
 20
6.78999
 11
-5.61818
 21
6.69803
  0
LINE
  8
0
 10
-5.61818
 20
6.69803
 11
-5.64447
 21
6.60753
  0
LINE
  8
0
 10
-5.64447
 20
6.60753
 11
-5.67639
 21
6.51888
  0
LINE
  8
0
 10
-5.67639
 20
6.51888
 11
-5.71382
 21
6.43239
  0
LINE
  8
0
 10
-5.71382
 20
6.43239
 11
-5.75661
 21
6.34843
  0
LINE
  8
0
 10
-5.75661
 20
6.34843
 11
-5.80457
 21
6.26732
  0
LINE
  8
0
 10
-5.80457
 20
6.26732
 11
-5.85753
 21
6.18938
  0
LINE
  8
0
 10
-5.85753
 20
6.18938
 11
-5.91528
 21
6.11493
  0
LINE
  8
0
 10
-5.91528
 20
6.11493
 11
-5.9776
 21
6.04424
  0
LINE
  8
0
 10
-5.9776
 20
6.04424
 11
-6.04424
 21
5.9776
  0
LINE
  8
0
 10
-6.04424
 20
5.9776
 11
-6.11493
 21
5.91528
  0
LINE
  8
0
 10
-6.11493
 20
5.91528
 11
-6.18938
 21
5.85753
  0
LINE
  8
0
 10
-6.18938
 20
5.85753
 11
-6.26732
 21
5.80457
  0
LINE
  8
0
 10
-6.26732
 20
5.80457
 11
-6.34843
 21
5.75661
  0
LINE
  8
0
 10
-6.34843
 20
5.75661
 11
-6.43239
 21
5.71382
  0
LINE
  8
0
 10
-6.43239
 20
5.71382
 11
-6.51888
 21
5.67639
  0
LINE
  8
0
 10
-6.51888
 20
5.67639
 11
-6.60753
 21
5.64447
  0
LINE
  8
0
 10
-6.60753
 20
5.64447
 11
-6.69803
 21
5.61818
  0
LINE
  8
0
 10
-6.69803
 20
5.61818
 11
-6.78999
 21
5.59763
  0
LINE
  8
0
 10
-6.78999
 20
5.59763
 11
-6.88306
 21
5.58289
  0
LINE
  8
0
 10
-6.88306
 20
5.58289
 11
-6.97687
 21
5.57402
  0
LINE
  8
0
 10
-6.97687
 20
5.57402
 11
-7.07106
 21
5.57106
  0
LINE
  8
0
 10
-7.07106
 20
5.57106
 11
-7.16525
 21
5.57402
  0
LINE
  8
0
 10
-0.470917
 20
-7.4852
 11
-1.40535
 21
-7.36714
  0
LINE
  8
0
 10
-1.40535
 20
-7.36714
 11
-2.31763
 21
-7.13292
  0
LINE
  8
0
 10
-2.31763
 20
-7.13292
 11
-3.19334
 21
-6.78619
  0
LINE
  8
0
 10
-3.19334
 20
-6.78619
 11
-4.01869
 21
-6.33246
  0
LINE
  8
0
 10
-4.01869
 20
-6.33246
 11
-4.78067
 21
-5.77884
  0
LINE
  8
0
 10
-4.78067
 20
-5.77884
 11
-5.46725
 21
-5.13409
  0
LINE
  8
0
 10
-5.46725
 20
-5.13409
 11
-6.06763
 21
-4.40839
  0
LINE
  8
0
 10
-6.06763
 20
-4.40839
 11
-6.5723
 21
-3.61314
  0
LINE
  8
0
 10
-6.5723
 20
-3.61314
 11
-6.97331
 21
-2.76093
  0
LINE
  8
0
 10
-6.97331
 20
-2.76093
 11
-7.26436
 21
-1.86517
  0
LINE
  8
0
 10
-7.26436
 20
-1.86517
 11
-7.44086
 21
-0.939987
  0
LINE
  8
0
 10
-7.44086
 20
-0.939987
 11
-7.5
 21
0
  0
LINE
  8
0
 10
-7.5
 20
0
 11
-7.44086
 21
0.939987
  0
LINE
  8
0
 10
-7.44086
 20
0.939987
 11
-7.26436
 21
1.86517
  0
LINE
  8
0
 10
-7.26436
 20
1.86517
 11
-6.97331
 21
2.76093
  0
LINE
  8
0
 10
-6.97331
 20
2.76093
 11
-6.5723
 21
3.61314
  0
LINE
  8
0
 10
-6.5723
 20
3.61314
 11
-6.06763
 21
4.40839
  0
LINE
  8
0
 10
-6.06763
 20
4.40839
 11
-5.46725
 21
5.13409
  0
LINE
  8
0
 10
-5.46725
 20
5.13409
 11
-4.78067
 21
5.77884
  0
LINE
  8
0
 10
-4.78067
 20
5.77884
 11
-4.01869
 21
6.33246
  0
LINE
  8
0
 10
-4.01869
 20
6.33246
 11
-3.19334
 21
6.78619
  0
LINE
  8
0
 10
-3.19334
 20
6.78619
 11
-2.31763
 21
7.13292
  0
LINE
  8
0
 10
-2.31763
 20
7.13292
 11
-1.40535
 21
7.36714
  0
LINE
  8
0
 10
-1.40535
 20
7.36714
 11
-0.470917
 21
7.4852
  0
LINE
  8
0
 10
-0.470917
 20
7.4852
 11
0.470917
 21
7.4852
  0
LINE
  8
0
 10
0.470917
 20
7.4852
 11
1.40535
 21
7.36714
  0
LINE
  8
0
 10
1.40535
 20
7.36714
 11
2.31763
 21
7.13292
  0
LINE
  8
0
 10
2.31763
 20
7.13292
 11
3.19334
 21
6.78619
  0
LINE
  8
0
 10
3.19334
 20
6.78619
 11
4.01869
 21
6.33246
  0
LINE
  8
0
 10
4.01869
 20
6.33246
 11
4.78067
 21
5.77884
  0
LINE
  8
0
 10
4.78067
 20
5.77884
 11
5.46725
 21
5.13409
  0
LINE
  8
0
 10
5.46725
 20
5.13409
 11
6.06763
 21
4.40839
  0
LINE
  8
0
 10
6.06763
 20
4.40839
 11
6.5723
 21
3.61314
  0
LINE
  8
0
 10
6.5723
 20
3.61314
 11
6.97331
 21
2.76093
  0
LINE
  8
0
 10
6.97331
 20
2.76093
 11
7.26436
 21
1.86517
  0
LINE
  8
0
 10
7.26436
 20
1.86517
 11
7.44086
 21
0.939987
  0
LINE
  8
0
 10
7.44086
 20
0.939987
 11
7.5
 21
0
  0
LINE
  8
0
 10
7.5
 20
0
 11
7.44086
 21
-0.939987
  0
LINE
  8
0
 10
7.44086
 20
-0.939987
 11
7.26436
 21
-1.86517
  0
LINE
  8
0
 10
7.26436
 20
-1.86517
 11
6.97331
 21
-2.76093
  0
LINE
  8
0
 10
6.97331
 20
-2.76093
 11
6.5723
 21
-3.61314
  0
LINE
  8
0
 10
6.5723
 20
-3.61314
 11
6.06763
 21
-4.40839
  0
LINE
  8
0
 10
6.06763
 20
-4.40839
 11
5.46725
 21
-5.13409
  0
LINE
  8
0
 10
5.46725
 20
-5.13409
 11
4.78067
 21
-5.77884
  0
LINE
  8
0
 10
4.78067
 20
-5.77884
 11
4.01869
 21
-6.33246
  0
LINE
  8
0
 10
4.01869
 20
-6.33246
 11
3.19334
 21
-6.78619
  0
LINE
  8
0
 10
3.19334
 20
-6.78619
 11
2.31763
 21
-7.13292
  0
LINE
  8
0
 10
2.31763
 20
-7.13292
 11
1.40535
 21
-7.36714
  0
LINE
  8
0
 10
1.40535
 20
-7.36714
 11
0.470917
 21
-7.4852
  0
LINE
  8
0
 10
0.470917
 20
-7.4852
 11
-0.470917
 21
-7.4852
  0
LINE
  8
0
 10
-7.16525
 20
-8.5681
 11
-7.25906
 21
-8.55923
  0
LINE
  8
0
 10
-7.25906
 20
-8.55923
 11
-7.35213
 21
-8.54449
  0
LINE
  8
0
 10
-7.35213
 20
-8.54449
 11
-7.44409
 21
-8.52394
  0
LINE
  8
0
 10
-7.44409
 20
-8.52394
 11
-7.53459
 21
-8.49765
  0
LINE
  8
0
 10
-7.53459
 20
-8.49765
 11
-7.62325
 21
-8.46573
  0
LINE
  8
0
 10
-7.62325
 20
-8.46573
 11
-7.70973
 21
-8.4283
  0
LINE
  8
0
 10
-7.70973
 20
-8.4283
 11
-7.79369
 21
-8.38551
  0
LINE
  8
0
 10
-7.79369
 20
-8.38551
 11
-7.8748
 21
-8.33755
  0
LINE
  8
0
 10
-7.8748
 20
-8.33755
 11
-7.95274
 21
-8.28459
  0
LINE
  8
0
 10
-7.95274
 20
-8.28459
 11
-8.02719
 21
-8.22684
  0
LINE
  8
0
 10
-8.02719
 20
-8.22684
 11
-8.09789
 21
-8.16452
  0
LINE
  8
0
 10
-8.09789
 20
-8.16452
 11
-8.16452
 21
-8.09789
  0
LINE
  8
0
 10
-8.16452
 20
-8.09789
 11
-8.22684
 21
-8.02719
  0
LINE
  8
0
 10
-8.22684
 20
-8.02719
 11
-8.28459
 21
-7.95274
  0
LINE
  8
0
 10
-8.28459
 20
-7.95274
 11
-8.33755
 21
-7.8748
  0
LINE
  8
0
 10
-8.33755
 20
-7.8748
 11
-8.38551
 21
-7.79369
  0
LINE
  8
0
 10
-8.38551
 20
-7.79369
 11
-8.4283
 21
-7.70973
  0
LINE
  8
0
 10
-8.4283
 20
-7.70973
 11
-8.46573
 21
-7.62325
  0
LINE
  8
0
 10
-8.46573
 20
-7.62325
 11
-8.49765
 21
-7.53459
  0
LINE
  8
0
 10
-8.49765
 20
-7.53459
 11
-8.52394
 21
-7.44409
  0
LINE
  8
0
 10
-8.52394
 20
-7.44409
 11
-8.54449
 21
-7.35213
  0
LINE
  8
0
 10
-8.54449
 20
-7.35213
 11
-8.55923
 21
-7.25906
  0
LINE
  8
0
 10
-8.55923
 20
-7.25906
 11
-8.5681
 21
-7.16525
  0
LINE
  8
0
 10
-8.5681
 20
-7.16525
 11
-8.57106
 21
-7.07106
  0
LINE
  8
0
 10
-8.57106
 20
-7.07106
 11
-8.5681
 21
-6.97687
  0
LINE
  8
0
 10
-8.5681
 20
-6.97687
 11
-8.55923
 21
-6.88306
  0
LINE
  8
0
 10
-8.55923
 20
-6.88306
 11
-8.54449
 21
-6.78999
  0
LINE
  8
0
 10
-8.54449
 20
-6.78999
 11
-8.52394
 21
-6.69803
  0
LINE
  8
0
 10
-8.52394
 20
-6.69803
 11
-8.49765
 21
-6.60753
  0
LINE
  8
0
 10
-8.49765
 20
-6.60753
 11
-8.46573
 21
-6.51888
  0
LINE
  8
0
 10
-8.46573
 20
-6.51888
 11
-8.4283
 21
-6.43239
  0
LINE
  8
0
 10
-8.4283
 20
-6.43239
 11
-8.38551
 21
-6.34843
  0
LINE
  8
0
 10
-8.38551
 20
-6.34843
 11
-8.33755
 21
-6.26732
  0
LINE
  8
0
 10
-8.33755
 20
-6.26732
 11
-8.28459
 21
-6.18938
  0
LINE
  8
0
 10
-8.28459
 20
-6.18938
 11
-8.22684
 21
-6.11493
  0
LINE
  8
0
 10
-8.22684
 20
-6.11493
 11
-8.16452
 21
-6.04424
  0
LINE
  8
0
 10
-8.16452
 20
-6.04424
 11
-8.09789
 21
-5.9776
  0
LINE
  8
0
 10
-8.09789
 20
-5.9776
 11
-8.02719
 21
-5.91528
  0
LINE
  8
0
 10
-8.02719
 20
-5.91528
 11
-7.95274
 21
-5.85753
  0
LINE
  8
0
 10
-7.95274
 20
-5.85753
 11
-7.8748
 21
-5.80457
  0
LINE
  8
0
 10
-7.8748
 20
-5.80457
 11
-7.79369
 21
-5.75661
  0
LINE
  8
0
 10
-7.79369
 20
-5.75661
 11
-7.70973
 21
-5.71382
  0
LINE
  8
0
 10
-7.70973
 20
-5.71382
 11
-7.62325
 21
-5.67639
  0
LINE
  8
0
 10
-7.62325
 20
-5.67639
 11
-7.53459
 21
-5.64447
  0
LINE
  8
0
 10
-7.53459
 20
-5.64447
 11
-7.44409
 21
-5.61818
  0
LINE
  8
0
 10
-7.44409
 20
-5.61818
 11
-7.35213
 21
-5.59763
  0
LINE
  8
0
 10
-7.35213
 20
-5.59763
 11
-7.25906
 21
-5.58289
  0
LINE
  8
0
 10
-7.25906
 20
-5.58289
 11
-7.16525
 21
-5.57402
  0
LINE
  8
0
 10
-7.16525
 20
-5.57402
 11
-7.07106
 21
-5.57106
  0
LINE
  8
0
 10
-7.07106
 20
-5.57106
 11
-6.97687
 21
-5.57402
  0
LINE
  8
0
 10
-6.97687
 20
-5.57402
 11
-6.88306
 21
-5.58289
  0
LINE
  8
0
 10
-6.88306
 20
-5.58289
 11
-6.78999
 21
-5.59763
  0
LINE
  8
0
 10
-6.78999
 20
-5.59763
 11
-6.69803
 21
-5.61818
  0
LINE
  8
0
 10
-6.69803
 20
-5.61818
 11
-6.60753
 21
-5.64447
  0
LINE
  8
0
 10
-6.60753
 20
-5.64447
 11
-6.51888
 21
-5.67639
  0
LINE
  8
0
 10
-6.51888
 20
-5.67639
 11
-6.43239
 21
-5.71382
  0
LINE
  8
0
 10
-6.43239
 20
-5.71382
 11
-6.34843
 21
-5.75661
  0
LINE
  8
0
 10
-6.34843
 20
-5.75661
 11
-6.26732
 21
-5.80457
  0
LINE
  8
0
 10
-6.26732
 20
-5.80457
 11
-6.18938
 21
-5.85753
  0
LINE
  8
0
 10
-6.18938
 20
-5.85753
 11
-6.11493
 21
-5.91528
  0
LINE
  8
0
 10
-6.11493
 20
-5.91528
 11
-6.04424
 21
-5.9776
  0
LINE
  8
0
 10
-6.04424
 20
-5.9776
 11
-5.9776
 21
-6.04424
  0
LINE
  8
0
 10
-5.9776
 20
-6.04424
 11
-5.91528
 21
-6.11493
  0
LINE
  8
0
 10
-5.91528
 20
-6.11493
 11
-5.85753
 21
-6.18938
  0
LINE
  8
0
 10
-5.85753
 20
-6.18938
 11
-5.80457
 21
-6.26732
  0
LINE
  8
0
 10
-5.80457
 20
-6.26732
 11
-5.75661
 21
-6.34843
  0
LINE
  8
0
 10
-5.75661
 20
-6.34843
 11
-5.71382
 21
-6.43239
  0
LINE
  8
0
 10
-5.71382
 20
-6.43239
 11
-5.67639
 21
-6.51888
  0
LINE
  8
0
 10
-5.67639
 20
-6.51888
 11
-5.64447
 21
-6.60753
  0
LINE
  8
0
 10
-5.64447
 20
-6.60753
 11
-5.61818
 21
-6.69803
  0
LINE
  8
0
 10
-5.61818
 20
-6.69803
 11
-5.59763
 21
-6.78999
  0
LINE
  8
0
 10
-5.59763
 20
-6.78999
 11
-5.58289
 21
-6.88306
  0
LINE
  8
0
 10
-5.58289
 20
-6.88306
 11
-5.57402
 21
-6.97687
  0
LINE
  8
0
 10
-5.57402
 20
-6.97687
 11
-5.57106
 21
-7.07106
  0
LINE
  8
0
 10
-5.57106
 20
-7.07106
 11
-5.57402
 21
-7.16525
  0
LINE
  8
0
 10
-5.57402
 20
-7.16525
 11
-5.58289
 21
-7.25906
  0
LINE
  8
0
 10
-5.58289
 20
-7.25906
 11
-5.59763
 21
-7.35213
  0
LINE
  8
0
 10
-5.59763
 20
-7.35213
 11
-5.61818
 21
-7.44409
  0
LINE
  8
0
 10
-5.61818
 20
-7.44409
 11
-5.64447
 21
-7.53459
  0
LINE
  8
0
 10
-5.64447
 20
-7.53459
 11
-5.67639
 21
-7.62325
  0
LINE
  8
0
 10
-5.67639
 20
-7.62325
 11
-5.71382
 21
-7.70973
  0
LINE
  8
0
 10
-5.71382
 20
-7.70973
 11
-5.75661
 21
-7.79369
  0
LINE
  8
0
 10
-5.75661
 20
-7.79369
 11
-5.80457
 21
-7.8748
  0
LINE
  8
0
 10
-5.80457
 20
-7.8748
 11
-5.85753
 21
-7.95274
  0
LINE
  8
0
 10
-5.85753
 20
-7.95274
 11
-5.91528
 21
-8.02719
  0
LINE
  8
0
 10
-5.91528
 20
-8.02719
 11
-5.9776
 21
-8.09789
  0
LINE
  8
0
 10
-5.9776
 20
-8.09789
 11
-6.04424
 21
-8.16452
  0
LINE
  8
0
 10
-6.04424
 20
-8.16452
 11
-6.11493
 21
-8.22684
  0
LINE
  8
0
 10
-6.11493
 20
-8.22684
 11
-6.18938
 21
-8.28459
  0
LINE
  8
0
 10
-6.18938
 20
-8.28459
 11
-6.26732
 21
-8.33755
  0
LINE
  8
0
 10
-6.26732
 20
-8.33755
 11
-6.34843
 21
-8.38551
  0
LINE
  8
0
 10
-6.34843
 20
-8.38551
 11
-6.43239
 21
-8.4283
  0
LINE
  8
0
 10
-6.43239
 20
-8.4283
 11
-6.51888
 21
-8.46573
  0
LINE
  8
0
 10
-6.51888
 20
-8.46573
 11
-6.60753
 21
-8.49765
  0
LINE
  8
0
 10
-6.60753
 20
-8.49765
 11
-6.69803
 21
-8.52394
  0
LINE
  8
0
 10
-6.69803
 20
-8.52394
 11
-6.78999
 21
-8.54449
  0
LINE
  8
0
 10
-6.78999
 20
-8.54449
 11
-6.88306
 21
-8.55923
  0
LINE
  8
0
 10
-6.88306
 20
-8.55923
 11
-6.97687
 21
-8.5681
  0
LINE
  8
0
 10
-6.97687
 20
-8.5681
 11
-7.07106
 21
-8.57106
  0
LINE
  8
0
 10
-7.07106
 20
-8.57106
 11
-7.16525
 21
-8.5681
  0
LINE
  8
0
 10
6.97687
 20
-8.5681
 11
6.88306
 21
-8.55923
  0
LINE
  8
0
 10
6.88306
 20
-8.55923
 11
6.78999
 21
-8.54449
  0
LINE
  8
0
 10
6.78999
 20
-8.54449
 11
6.69803
 21
-8.52394
  0
LINE
  8
0
 10
6.69803
 20
-8.52394
 11
6.60753
 21
-8.49765
  0
LINE
  8
0
 10
6.60753
 20
-8.49765
 11
6.51888
 21
-8.46573
  0
LINE
  8
0
 10
6.51888
 20
-8.46573
 11
6.43239
 21
-8.4283
  0
LINE
  8
0
 10
6.43239
 20
-8.4283
 11
6.34843
 21
-8.38551
  0
LINE
  8
0
 10
6.34843
 20
-8.38551
 11
6.26732
 21
-8.33755
  0
LINE
  8
0
 10
6.26732
 20
-8.33755
 11
6.18938
 21
-8.28459
  0
LINE
  8
0
 10
6.18938
 20
-8.28459
 11
6.11493
 21
-8.22684
  0
LINE
  8
0
 10
6.11493
 20
-8.22684
 11
6.04424
 21
-8.16452
  0
LINE
  8
0
 10
6.04424
 20
-8.16452
 11
5.9776
 21
-8.09789
  0
LINE
  8
0
 10
5.9776
 20
-8.09789
 11
5.91528
 21
-8.02719
  0
LINE
  8
0
 10
5.91528
 20
-8.02719
 11
5.85753
 21
-7.95274
  0
LINE
  8
0
 10
5.85753
 20
-7.95274
 11
5.80457
 21
-7.8748
  0
LINE
  8
0
 10
5.80457
 20
-7.8748
 11
5.75661
 21
-7.79369
  0
LINE
  8
0
 10
5.75661
 20
-7.79369
 11
5.71382
 21
-7.70973
  0
LINE
  8
0
 10
5.71382
 20
-7.70973
 11
5.67639
 21
-7.62325
  0
LINE
  8
0
 10
5.67639
 20
-7.62325
 11
5.64447
 21
-7.53459
  0
LINE
  8
0
 10
5.64447
 20
-7.53459
 11
5.61818
 21
-7.44409
  0
LINE
  8
0
 10
5.61818
 20
-7.44409
 11
5.59763
 21
-7.35213
  0
LINE
  8
0
 10
5.59763
 20
-7.35213
 11
5.58289
 21
-7.25906
  0
LINE
  8
0
 10
5.58289
 20
-7.25906
 11
5.57402
 21
-7.16525
  0
LINE
  8
0
 10
5.57402
 20
-7.16525
 11
5.57106
 21
-7.07106
  0
LINE
  8
0
 10
5.57106
 20
-7.07106
 11
5.57402
 21
-6.97687
  0
LINE
  8
0
 10
5.57402
 20
-6.97687
 11
5.58289
 21
-6.88306
  0
LINE
  8
0
 10
5.58289
 20
-6.88306
 11
5.59763
 21
-6.78999
  0
LINE
  8
0
 10
5.59763
 20
-6.78999
 11
5.61818
 21
-6.69803
  0
LINE
  8
0
 10
5.61818
 20
-6.69803
 11
5.64447
 21
-6.60753
  0
LINE
  8
0
 10
5.64447
 20
-6.60753
 11
5.67639
 21
-6.51888
  0
LINE
  8
0
 10
5.67639
 20
-6.51888
 11
5.71382
 21
-6.43239
  0
LINE
  8
0
 10
5.71382
 20
-6.43239
 11
5.75661
 21
-6.34843
  0
LINE
  8
0
 10
5.75661
 20
-6.34843
 11
5.80457
 21
-6.26732
  0
LINE
  8
0
 10
5.80457
 20
-6.26732
 11
5.85753
 21
-6.18938
  0
LINE
  8
0
 10
5.85753
 20
-6.18938
 11
5.91528
 21
-6.11493
  0
LINE
  8
0
 10
5.91528
 20
-6.11493
 11
5.9776
 21
-6.04424
  0
LINE
  8
0
 10
5.9776
 20
-6.04424
 11
6.04424
 21
-5.9776
  0
LINE
  8
0
 10
6.04424
 20
-5.9776
 11
6.11493
 21
-5.91528
  0
LINE
  8
0
 10
6.11493
 20
-5.91528
 11
6.18938
 21
-5.85753
  0
LINE
  8
0
 10
6.18938
 20
-5.85753
 11
6.26732
 21
-5.80457
  0
LINE
  8
0
 10
6.26732
 20
-5.80457
 11
6.34843
 21
-5.75661
  0
LINE
  8
0
 10
6.34843
 20
-5.75661
 11
6.43239
 21
-5.71382
  0
LINE
  8
0
 10
6.43239
 20
-5.71382
 11
6.51888
 21
-5.67639
  0
LINE
  8
0
 10
6.51888
 20
-5.67639
 11
6.60753
 21
-5.64447
  0
LINE
  8
0
 10
6.60753
 20
-5.64447
 11
6.69803
 21
-5.61818
  0
LINE
  8
0
 10
6.69803
 20
-5.61818
 11
6.78999
 21
-5.59763
  0
LINE
  8
0
 10
6.78999
 20
-5.59763
 11
6.88306
 21
-5.58289
  0
LINE
  8
0
 10
6.88306
 20
-5.58289
 11
6.97687
 21
-5.57402
  0
LINE
  8
0
 10
6.97687
 20
-5.57402
 11
7.07106
 21
-5.57106
  0
LINE
  8
0
 10
7.07106
 20
-5.57106
 11
7.16525
 21
-5.57402
  0
LINE
  8
0
 10
7.16525
 20
-5.57402
 11
7.25906
 21
-5.58289
  0
LINE
  8
0
 10
7.25906
 20
-5.58289
 11
7.35213
 21
-5.59763
  0
LINE
  8
0
 10
7.35213
 20
-5.59763
 11
7.44409
 21
-5.61818
  0
LINE
  8
0
 10
7.44409
 20
-5.61818
 11
7.53459
 21
-5.64447
  0
LINE
  8
0
 10
7.53459
 20
-5.64447
 11
7.62325
 21
-5.67639
  0
LINE
  8
0
 10
7.62325
 20
-5.67639
 11
7.70973
 21
-5.71382
  0
LINE
  8
0
 10
7.70973
 20
-5.71382
 11
7.79369
 21
-5.75661
  0
LINE
  8
0
 10
7.79369
 20
-5.75661
 11
7.8748
 21
-5.80457
  0
LINE
  8
0
 10
7.8748
 20
-5.80457
 11
7.95274
 21
-5.85753
  0
LINE
  8
0
 10
7.95274
 20
-5.85753
 11
8.02719
 21
-5.91528
  0
LINE
  8
0
 10
8.02719
 20
-5.91528
 11
8.09789
 21
-5.9776
  0
LINE
  8
0
 10
8.09789
 20
-5.9776
 11
8.16452
 21
-6.04424
  0
LINE
  8
0
 10
8.16452
 20
-6.04424
 11
8.22684
 21
-6.11493
  0
LINE
  8
0
 10
8.22684
 20
-6.11493
 11
8.28459
 21
-6.18938
  0
LINE
  8
0
 10
8.28459
 20
-6.18938
 11
8.33755
 21
-6.26732
  0
LINE
  8
0
 10
8.33755
 20
-6.26732
 11
8.38551
 21
-6.34843
  0
LINE
  8
0
 10
8.38551
 20
-6.34843
 11
8.4283
 21
-6.43239
  0
LINE
  8
0
 10
8.4283
 20
-6.43239
 11
8.46573
 21
-6.51888
  0
LINE
  8
0
 10
8.46573
 20
-6.51888
 11
8.49765
 21
-6.60753
  0
LINE
  8
0
 10
8.49765
 20
-6.60753
 11
8.52394
 21
-6.69803
  0
LINE
  8
0
 10
8.52394
 20
-6.69803
 11
8.54449
 21
-6.78999
  0
LINE
  8
0
 10
8.54449
 20
-6.78999
 11
8.55923
 21
-6.88306
  0
LINE
  8
0
 10
8.55923
 20
-6.88306
 11
8.5681
 21
-6.97687
  0
LINE
  8
0
 10
8.5681
 20
-6.97687
 11
8.57106
 21
-7.07106
  0
LINE
  8
0
 10
8.57106
 20
-7.07106
 11
8.5681
 21
-7.16525
  0
LINE
  8
0
 10
8.5681
 20
-7.16525
 11
8.55923
 21
-7.25906
  0
LINE
  8
0
 10
8.55923
 20
-7.25906
 11
8.54449
 21
-7.35213
  0
LINE
  8
0
 10
8.54449
 20
-7.35213
 11
8.52394
 21
-7.44409
  0
LINE
  8
0
 10
8.52394
 20
-7.44409
 11
8.49765
 21
-7.53459
  0
LINE
  8
0
 10
8.49765
 20
-7.53459
 11
8.46573
 21
-7.62325
  0
LINE
  8
0
 10
8.46573
 20
-7.62325
 11
8.4283
 21
-7.70973
  0
LINE
  8
0
 10
8.4283
 20
-7.70973
 11
8.38551
 21
-7.79369
  0
LINE
  8
0
 10
8.38551
 20
-7.79369
 11
8.33755
 21
-7.8748
  0
LINE
  8
0
 10
8.33755
 20
-7.8748
 11
8.28459
 21
-7.95274
  0
LINE
  8
0
 10
8.28459
 20
-7.95274
 11
8.22684
 21
-8.02719
  0
LINE
  8
0
 10
8.22684
 20
-8.02719
 11
8.16452
 21
-8.09789
  0
LINE
  8
0
 10
8.16452
 20
-8.09789
 11
8.09789
 21
-8.16452
  0
LINE
  8
0
 10
8.09789
 20
-8.16452
 11
8.02719
 21
-8.22684
  0
LINE
  8
0
 10
8.02719
 20
-8.22684
 11
7.95274
 21
-8.28459
  0
LINE
  8
0
 10
7.95274
 20
-8.28459
 11
7.8748
 21
-8.33755
  0
LINE
  8
0
 10
7.8748
 20
-8.33755
 11
7.79369
 21
-8.38551
  0
LINE
  8
0
 10
7.79369
 20
-8.38551
 11
7.70973
 21
-8.4283
  0
LINE
  8
0
 10
7.70973
 20
-8.4283
 11
7.62325
 21
-8.46573
  0
LINE
  8
0
 10
7.62325
 20
-8.46573
 11
7.53459
 21
-8.49765
  0
LINE
  8
0
 10
7.53459
 20
-8.49765
 11
7.44409
 21
-8.52394
  0
LINE
  8
0
 10
7.44409
 20
-8.52394
 11
7.35213
 21
-8.54449
  0
LINE
  8
0
 10
7.35213
 20
-8.54449
 11
7.25906
 21
-8.55923
  0
LINE
  8
0
 10
7.25906
 20
-8.55923
 11
7.16525
 21
-8.5681
  0
LINE
  8
0
 10
7.16525
 20
-8.5681
 11
7.07106
 21
-8.57106
  0
LINE
  8
0
 10
7.07106
 20
-8.57106
 11
6.97687
 21
-8.5681
  0
LINE
  8
0
 10
-43.4269
 20
-27.9974
 11
-43.521
 21
-27.9919
  0
LINE
  8
0
 10
-43.521
 20
-27.9919
 11
-43.6149
 21
-27.9836
  0
LINE
  8
0
 10
-43.6149
 20
-27.9836
 11
-43.7084
 21
-27.9722
  0
LINE
  8
0
 10
-43.7084
 20
-27.9722
 11
-43.8016
 21
-27.958
  0
LINE
  8
0
 10
-43.8016
 20
-27.958
 11
-43.8942
 21
-27.9408
  0
LINE
  8
0
 10
-43.8942
 20
-27.9408
 11
-43.9863
 21
-27.9207
  0
LINE
  8
0
 10
-43.9863
 20
-27.9207
 11
-44.0777
 21
-27.8978
  0
LINE
  8
0
 10
-44.0777
 20
-27.8978
 11
-44.1684
 21
-27.8719
  0
LINE
  8
0
 10
-44.1684
 20
-27.8719
 11
-44.2581
 21
-27.8433
  0
LINE
  8
0
 10
-44.2581
 20
-27.8433
 11
-44.347
 21
-27.8118
  0
LINE
  8
0
 10
-44.347
 20
-27.8118
 11
-44.4348
 21
-27.7776
  0
LINE
  8
0
 10
-44.4348
 20
-27.7776
 11
-44.5215
 21
-27.7406
  0
LINE
  8
0
 10
-44.5215
 20
-27.7406
 11
-44.6069
 21
-27.7009
  0
LINE
  8
0
 10
-44.6069
 20
-27.7009
 11
-44.6911
 21
-27.6586
  0
LINE
  8
0
 10
-44.6911
 20
-27.6586
 11
-44.774
 21
-27.6136
  0
LINE
  8
0
 10
-44.774
 20
-27.6136
 11
-44.8553
 21
-27.5661
  0
LINE
  8
0
 10
-44.8553
 20
-27.5661
 11
-44.9352
 21
-27.516
  0
LINE
  8
0
 10
-44.9352
 20
-27.516
 11
-45.0134
 21
-27.4634
  0
LINE
  8
0
 10
-45.0134
 20
-27.4634
 11
-45.0899
 21
-27.4084
  0
LINE
  8
0
 10
-45.0899
 20
-27.4084
 11
-45.1647
 21
-27.3511
  0
LINE
  8
0
 10
-45.1647
 20
-27.3511
 11
-45.2376
 21
-27.2914
  0
LINE
  8
0
 10
-45.2376
 20
-27.2914
 11
-45.3087
 21
-27.2294
  0
LINE
  8
0
 10
-45.3087
 20
-27.2294
 11
-45.3777
 21
-27.1653
  0
LINE
  8
0
 10
-45.3777
 20
-27.1653
 11
-45.4447
 21
-27.099
  0
LINE
  8
0
 10
-45.4447
 20
-27.099
 11
-45.5096
 21
-27.0306
  0
LINE
  8
0
 10
-45.5096
 20
-27.0306
 11
-45.5723
 21
-26.9603
  0
LINE
  8
0
 10
-45.5723
 20
-26.9603
 11
-45.6327
 21
-26.888
  0
LINE
  8
0
 10
-45.6327
 20
-26.888
 11
-45.6909
 21
-26.8138
  0
LINE
  8
0
 10
-45.6909
 20
-26.8138
 11
-45.7466
 21
-26.7378
  0
LINE
  8
0
 10
-45.7466
 20
-26.7378
 11
-45.8
 21
-26.6602
  0
LINE
  8
0
 10
-45.8
 20
-26.6602
 11
-45.8509
 21
-26.5809
  0
LINE
  8
0
 10
-45.8509
 20
-26.5809
 11
-45.8993
 21
-26.5
  0
LINE
  8
0
 10
-45.8993
 20
-26.5
 11
-45.9452
 21
-26.4176
  0
LINE
  8
0
 10
-45.9452
 20
-26.4176
 11
-45.9884
 21
-26.3339
  0
LINE
  8
0
 10
-45.9884
 20
-26.3339
 11
-46.029
 21
-26.2488
  0
LINE
  8
0
 10
-46.029
 20
-26.2488
 11
-46.0668
 21
-26.1625
  0
LINE
  8
0
 10
-46.0668
 20
-26.1625
 11
-46.102
 21
-26.0751
  0
LINE
  8
0
 10
-46.102
 20
-26.0751
 11
-46.1344
 21
-25.9866
  0
LINE
  8
0
 10
-46.1344
 20
-25.9866
 11
-46.164
 21
-25.8971
  0
LINE
  8
0
 10
-46.164
 20
-25.8971
 11
-46.1908
 21
-25.8067
  0
LINE
  8
0
 10
-46.1908
 20
-25.8067
 11
-46.2147
 21
-25.7156
  0
LINE
  8
0
 10
-46.2147
 20
-25.7156
 11
-46.2357
 21
-25.6237
  0
LINE
  8
0
 10
-46.2357
 20
-25.6237
 11
-46.2538
 21
-25.5312
  0
LINE
  8
0
 10
-46.2538
 20
-25.5312
 11
-46.2691
 21
-25.4382
  0
LINE
  8
0
 10
-46.2691
 20
-25.4382
 11
-46.2814
 21
-25.3448
  0
LINE
  8
0
 10
-46.2814
 20
-25.3448
 11
-46.2907
 21
-25.251
  0
LINE
  8
0
 10
-46.2907
 20
-25.251
 11
-46.2971
 21
-25.157
  0
LINE
  8
0
 10
-46.2971
 20
-25.157
 11
-46.3006
 21
-25.0628
  0
LINE
  8
0
 10
-46.3006
 20
-25.0628
 11
-46.3011
 21
-24.9686
  0
LINE
  8
0
 10
-46.3011
 20
-24.9686
 11
-46.2986
 21
-24.8744
  0
LINE
  8
0
 10
-46.2986
 20
-24.8744
 11
-46.2932
 21
-24.7803
  0
LINE
  8
0
 10
-46.2932
 20
-24.7803
 11
-46.2848
 21
-24.6864
  0
LINE
  8
0
 10
-46.2848
 20
-24.6864
 11
-46.2735
 21
-24.5928
  0
LINE
  8
0
 10
-46.2735
 20
-24.5928
 11
-46.2592
 21
-24.4997
  0
LINE
  8
0
 10
-46.2592
 20
-24.4997
 11
-46.2421
 21
-24.407
  0
LINE
  8
0
 10
-46.2421
 20
-24.407
 11
-46.222
 21
-24.3149
  0
LINE
  8
0
 10
-46.222
 20
-24.3149
 11
-46.199
 21
-24.2235
  0
LINE
  8
0
 10
-46.199
 20
-24.2235
 11
-46.1732
 21
-24.1329
  0
LINE
  8
0
 10
-46.1732
 20
-24.1329
 11
-46.1446
 21
-24.0431
  0
LINE
  8
0
 10
-46.1446
 20
-24.0431
 11
-46.1131
 21
-23.9543
  0
LINE
  8
0
 10
-46.1131
 20
-23.9543
 11
-46.0789
 21
-23.8665
  0
LINE
  8
0
 10
-46.0789
 20
-23.8665
 11
-46.0419
 21
-23.7798
  0
LINE
  8
0
 10
-46.0419
 20
-23.7798
 11
-46.0022
 21
-23.6943
  0
LINE
  8
0
 10
-46.0022
 20
-23.6943
 11
-45.9599
 21
-23.6101
  0
LINE
  8
0
 10
-45.9599
 20
-23.6101
 11
-45.9149
 21
-23.5273
  0
LINE
  8
0
 10
-45.9149
 20
-23.5273
 11
-45.8674
 21
-23.4459
  0
LINE
  8
0
 10
-45.8674
 20
-23.4459
 11
-45.8173
 21
-23.3661
  0
LINE
  8
0
 10
-45.8173
 20
-23.3661
 11
-45.7647
 21
-23.2879
  0
LINE
  8
0
 10
-45.7647
 20
-23.2879
 11
-45.7097
 21
-23.2113
  0
LINE
  8
0
 10
-45.7097
 20
-23.2113
 11
-45.6523
 21
-23.1366
  0
LINE
  8
0
 10
-45.6523
 20
-23.1366
 11
-45.5927
 21
-23.0636
  0
LINE
  8
0
 10
-45.5927
 20
-23.0636
 11
-45.5307
 21
-22.9926
  0
LINE
  8
0
 10
-45.5307
 20
-22.9926
 11
-45.4665
 21
-22.9236
  0
LINE
  8
0
 10
-45.4665
 20
-22.9236
 11
-45.4003
 21
-22.8566
  0
LINE
  8
0
 10
-45.4003
 20
-22.8566
 11
-45.3319
 21
-22.7917
  0
LINE
  8
0
 10
-45.3319
 20
-22.7917
 11
-45.2615
 21
-22.729
  0
LINE
  8
0
 10
-45.2615
 20
-22.729
 11
-45.1892
 21
-22.6685
  0
LINE
  8
0
 10
-45.1892
 20
-22.6685
 11
-45.1151
 21
-22.6104
  0
LINE
  8
0
 10
-45.1151
 20
-22.6104
 11
-45.0391
 21
-22.5546
  0
LINE
  8
0
 10
-45.0391
 20
-22.5546
 11
-44.9614
 21
-22.5012
  0
LINE
  8
0
 10
-44.9614
 20
-22.5012
 11
-44.8821
 21
-22.4503
  0
LINE
  8
0
 10
-44.8821
 20
-22.4503
 11
-44.8013
 21
-22.4019
  0
LINE
  8
0
 10
-44.8013
 20
-22.4019
 11
-44.7189
 21
-22.3561
  0
LINE
  8
0
 10
-44.7189
 20
-22.3561
 11
-44.6352
 21
-22.3129
  0
LINE
  8
0
 10
-44.6352
 20
-22.3129
 11
-44.5501
 21
-22.2723
  0
LINE
  8
0
 10
-44.5501
 20
-22.2723
 11
-44.4638
 21
-22.2344
  0
LINE
  8
0
 10
-44.4638
 20
-22.2344
 11
-44.3764
 21
-22.1992
  0
LINE
  8
0
 10
-44.3764
 20
-22.1992
 11
-44.2879
 21
-22.1669
  0
LINE
  8
0
 10
-44.2879
 20
-22.1669
 11
-44.1984
 21
-22.1373
  0
LINE
  8
0
 10
-44.1984
 20
-22.1373
 11
-44.108
 21
-22.1105
  0
LINE
  8
0
 10
-44.108
 20
-22.1105
 11
-44.0169
 21
-22.0866
  0
LINE
  8
0
 10
-44.0169
 20
-22.0866
 11
-43.925
 21
-22.0656
  0
LINE
  8
0
 10
-43.925
 20
-22.0656
 11
-43.8325
 21
-22.0474
  0
LINE
  8
0
 10
-43.8325
 20
-22.0474
 11
-43.7395
 21
-22.0322
  0
LINE
  8
0
 10
-43.7395
 20
-22.0322
 11
-43.6461
 21
-22.0199
  0
LINE
  8
0
 10
-43.6461
 20
-22.0199
 11
-43.5523
 21
-22.0105
  0
LINE
  8
0
 10
-43.5523
 20
-22.0105
 11
-43.4583
 21
-22.0041
  0
LINE
  8
0
 10
-43.4583
 20
-22.0041
 11
-43.3641
 21
-22.0007
  0
LINE
  8
0
 10
-43.3641
 20
-22.0007
 11
-43.2699
 21
-22.0002
  0
LINE
  8
0
 10
-43.2699
 20
-22.0002
 11
-43.1756
 21
-22.0026
  0
LINE
  8
0
 10
-43.1756
 20
-22.0026
 11
-43.0815
 21
-22.008
  0
LINE
  8
0
 10
-43.0815
 20
-22.008
 11
-42.9877
 21
-22.0164
  0
LINE
  8
0
 10
-42.9877
 20
-22.0164
 11
-42.8941
 21
-22.0278
  0
LINE
  8
0
 10
-42.8941
 20
-22.0278
 11
-42.8009
 21
-22.042
  0
LINE
  8
0
 10
-42.8009
 20
-22.042
 11
-42.7083
 21
-22.0592
  0
LINE
  8
0
 10
-42.7083
 20
-22.0592
 11
-42.6162
 21
-22.0793
  0
LINE
  8
0
 10
-42.6162
 20
-22.0793
 11
-42.5248
 21
-22.1022
  0
LINE
  8
0
 10
-42.5248
 20
-22.1022
 11
-42.4342
 21
-22.128
  0
LINE
  8
0
 10
-42.4342
 20
-22.128
 11
-42.3444
 21
-22.1567
  0
LINE
  8
0
 10
-42.3444
 20
-22.1567
 11
-42.2555
 21
-22.1881
  0
LINE
  8
0
 10
-42.2555
 20
-22.1881
 11
-42.1677
 21
-22.2224
  0
LINE
  8
0
 10
-42.1677
 20
-22.2224
 11
-42.0811
 21
-22.2594
  0
LINE
  8
0
 10
-42.0811
 20
-22.2594
 11
-41.9956
 21
-22.299
  0
LINE
  8
0
 10
-41.9956
 20
-22.299
 11
-41.9114
 21
-22.3414
  0
LINE
  8
0
 10
-41.9114
 20
-22.3414
 11
-41.8286
 21
-22.3864
  0
LINE
  8
0
 10
-41.8286
 20
-22.3864
 11
-41.7472
 21
-22.4339
  0
LINE
  8
0
 10
-41.7472
 20
-22.4339
 11
-41.6673
 21
-22.484
  0
LINE
  8
0
 10
-41.6673
 20
-22.484
 11
-41.5891
 21
-22.5365
  0
LINE
  8
0
 10
-41.5891
 20
-22.5365
 11
-41.5126
 21
-22.5915
  0
LINE
  8
0
 10
-41.5126
 20
-22.5915
 11
-41.4378
 21
-22.6489
  0
LINE
  8
0
 10
-41.4378
 20
-22.6489
 11
-41.3649
 21
-22.7086
  0
LINE
  8
0
 10
-41.3649
 20
-22.7086
 11
-41.2939
 21
-22.7706
  0
LINE
  8
0
 10
-41.2939
 20
-22.7706
 11
-41.2248
 21
-22.8347
  0
LINE
  8
0
 10
-41.2248
 20
-22.8347
 11
-41.1578
 21
-22.901
  0
LINE
  8
0
 10
-41.1578
 20
-22.901
 11
-41.093
 21
-22.9694
  0
LINE
  8
0
 10
-41.093
 20
-22.9694
 11
-41.0303
 21
-23.0397
  0
LINE
  8
0
 10
-41.0303
 20
-23.0397
 11
-40.9698
 21
-23.112
  0
LINE
  8
0
 10
-40.9698
 20
-23.112
 11
-40.9117
 21
-23.1862
  0
LINE
  8
0
 10
-40.9117
 20
-23.1862
 11
-40.8559
 21
-23.2621
  0
LINE
  8
0
 10
-40.8559
 20
-23.2621
 11
-40.8025
 21
-23.3398
  0
LINE
  8
0
 10
-40.8025
 20
-23.3398
 11
-40.7516
 21
-23.4191
  0
LINE
  8
0
 10
-40.7516
 20
-23.4191
 11
-40.7032
 21
-23.5
  0
LINE
  8
0
 10
-40.7032
 20
-23.5
 11
-40.6573
 21
-23.5823
  0
LINE
  8
0
 10
-40.6573
 20
-23.5823
 11
-40.6141
 21
-23.6661
  0
LINE
  8
0
 10
-40.6141
 20
-23.6661
 11
-40.5735
 21
-23.7511
  0
LINE
  8
0
 10
-40.5735
 20
-23.7511
 11
-40.5357
 21
-23.8374
  0
LINE
  8
0
 10
-40.5357
 20
-23.8374
 11
-40.5005
 21
-23.9249
  0
LINE
  8
0
 10
-40.5005
 20
-23.9249
 11
-40.4681
 21
-24.0134
  0
LINE
  8
0
 10
-40.4681
 20
-24.0134
 11
-40.4385
 21
-24.1029
  0
LINE
  8
0
 10
-40.4385
 20
-24.1029
 11
-40.4118
 21
-24.1932
  0
LINE
  8
0
 10
-40.4118
 20
-24.1932
 11
-40.3879
 21
-24.2844
  0
LINE
  8
0
 10
-40.3879
 20
-24.2844
 11
-40.3668
 21
-24.3763
  0
LINE
  8
0
 10
-40.3668
 20
-24.3763
 11
-40.3487
 21
-24.4687
  0
LINE
  8
0
 10
-40.3487
 20
-24.4687
 11
-40.3335
 21
-24.5617
  0
LINE
  8
0
 10
-40.3335
 20
-24.5617
 11
-40.3212
 21
-24.6552
  0
LINE
  8
0
 10
-40.3212
 20
-24.6552
 11
-40.3118
 21
-24.749
  0
LINE
  8
0
 10
-40.3118
 20
-24.749
 11
-40.3054
 21
-24.843
  0
LINE
  8
0
 10
-40.3054
 20
-24.843
 11
-40.3019
 21
-24.9372
  0
LINE
  8
0
 10
-40.3019
 20
-24.9372
 11
-40.3014
 21
-25.0314
  0
LINE
  8
0
 10
-40.3014
 20
-25.0314
 11
-40.3039
 21
-25.1256
  0
LINE
  8
0
 10
-40.3039
 20
-25.1256
 11
-40.3093
 21
-25.2197
  0
LINE
  8
0
 10
-40.3093
 20
-25.2197
 11
-40.3177
 21
-25.3136
  0
LINE
  8
0
 10
-40.3177
 20
-25.3136
 11
-40.329
 21
-25.4071
  0
LINE
  8
0
 10
-40.329
 20
-25.4071
 11
-40.3433
 21
-25.5003
  0
LINE
  8
0
 10
-40.3433
 20
-25.5003
 11
-40.3604
 21
-25.593
  0
LINE
  8
0
 10
-40.3604
 20
-25.593
 11
-40.3805
 21
-25.685
  0
LINE
  8
0
 10
-40.3805
 20
-25.685
 11
-40.4035
 21
-25.7764
  0
LINE
  8
0
 10
-40.4035
 20
-25.7764
 11
-40.4293
 21
-25.8671
  0
LINE
  8
0
 10
-40.4293
 20
-25.8671
 11
-40.458
 21
-25.9569
  0
LINE
  8
0
 10
-40.458
 20
-25.9569
 11
-40.4894
 21
-26.0457
  0
LINE
  8
0
 10
-40.4894
 20
-26.0457
 11
-40.5237
 21
-26.1335
  0
LINE
  8
0
 10
-40.5237
 20
-26.1335
 11
-40.5606
 21
-26.2202
  0
LINE
  8
0
 10
-40.5606
 20
-26.2202
 11
-40.6003
 21
-26.3057
  0
LINE
  8
0
 10
-40.6003
 20
-26.3057
 11
-40.6427
 21
-26.3899
  0
LINE
  8
0
 10
-40.6427
 20
-26.3899
 11
-40.6876
 21
-26.4727
  0
LINE
  8
0
 10
-40.6876
 20
-26.4727
 11
-40.7352
 21
-26.5541
  0
LINE
  8
0
 10
-40.7352
 20
-26.5541
 11
-40.7852
 21
-26.6339
  0
LINE
  8
0
 10
-40.7852
 20
-26.6339
 11
-40.8378
 21
-26.7121
  0
LINE
  8
0
 10
-40.8378
 20
-26.7121
 11
-40.8928
 21
-26.7887
  0
LINE
  8
0
 10
-40.8928
 20
-26.7887
 11
-40.9502
 21
-26.8634
  0
LINE
  8
0
 10
-40.9502
 20
-26.8634
 11
-41.0099
 21
-26.9364
  0
LINE
  8
0
 10
-41.0099
 20
-26.9364
 11
-41.0718
 21
-27.0074
  0
LINE
  8
0
 10
-41.0718
 20
-27.0074
 11
-41.136
 21
-27.0764
  0
LINE
  8
0
 10
-41.136
 20
-27.0764
 11
-41.2023
 21
-27.1434
  0
LINE
  8
0
 10
-41.2023
 20
-27.1434
 11
-41.2706
 21
-27.2083
  0
LINE
  8
0
 10
-41.2706
 20
-27.2083
 11
-41.341
 21
-27.271
  0
LINE
  8
0
 10
-41.341
 20
-27.271
 11
-41.4133
 21
-27.3314
  0
LINE
  8
0
 10
-41.4133
 20
-27.3314
 11
-41.4875
 21
-27.3896
  0
LINE
  8
0
 10
-41.4875
 20
-27.3896
 11
-41.5634
 21
-27.4454
  0
LINE
  8
0
 10
-41.5634
 20
-27.4454
 11
-41.6411
 21
-27.4987
  0
LINE
  8
0
 10
-41.6411
 20
-27.4987
 11
-41.7204
 21
-27.5497
  0
LINE
  8
0
 10
-41.7204
 20
-27.5497
 11
-41.8013
 21
-27.5981
  0
LINE
  8
0
 10
-41.8013
 20
-27.5981
 11
-41.8836
 21
-27.6439
  0
LINE
  8
0
 10
-41.8836
 20
-27.6439
 11
-41.9674
 21
-27.6871
  0
LINE
  8
0
 10
-41.9674
 20
-27.6871
 11
-42.0524
 21
-27.7277
  0
LINE
  8
0
 10
-42.0524
 20
-27.7277
 11
-42.1387
 21
-27.7656
  0
LINE
  8
0
 10
-42.1387
 20
-27.7656
 11
-42.2262
 21
-27.8007
  0
LINE
  8
0
 10
-42.2262
 20
-27.8007
 11
-42.3147
 21
-27.8331
  0
LINE
  8
0
 10
-42.3147
 20
-27.8331
 11
-42.4041
 21
-27.8627
  0
LINE
  8
0
 10
-42.4041
 20
-27.8627
 11
-42.4945
 21
-27.8895
  0
LINE
  8
0
 10
-42.4945
 20
-27.8895
 11
-42.5857
 21
-27.9134
  0
LINE
  8
0
 10
-42.5857
 20
-27.9134
 11
-42.6775
 21
-27.9344
  0
LINE
  8
0
 10
-42.6775
 20
-27.9344
 11
-42.77
 21
-27.9526
  0
LINE
  8
0
 10
-42.77
 20
-27.9526
 11
-42.863
 21
-27.9678
  0
LINE
  8
0
 10
-42.863
 20
-27.9678
 11
-42.9565
 21
-27.9801
  0
LINE
  8
0
 10
-42.9565
 20
-27.9801
 11
-43.0502
 21
-27.9895
  0
LINE
  8
0
 10
-43.0502
 20
-27.9895
 11
-43.1443
 21
-27.9959
  0
LINE
  8
0
 10
-43.1443
 20
-27.9959
 11
-43.2384
 21
-27.9993
  0
LINE
  8
0
 10
-43.2384
 20
-27.9993
 11
-43.3327
 21
-27.9998
  0
LINE
  8
0
 10
-43.3327
 20
-27.9998
 11
-43.4269
 21
-27.9974
  0
LINE
  8
0
 10
43.2384
 20
-27.9993
 11
43.1443
 21
-27.9959
  0
LINE
  8
0
 10
43.1443
 20
-27.9959
 11
43.0502
 21
-27.9895
  0
LINE
  8
0
 10
43.0502
 20
-27.9895
 11
42.9565
 21
-27.9801
  0
LINE
  8
0
 10
42.9565
 20
-27.9801
 11
42.863
 21
-27.9678
  0
LINE
  8
0
 10
42.863
 20
-27.9678
 11
42.77
 21
-27.9526
  0
LINE
  8
0
 10
42.77
 20
-27.9526
 11
42.6775
 21
-27.9344
  0
LINE
  8
0
 10
42.6775
 20
-27.9344
 11
42.5857
 21
-27.9134
  0
LINE
  8
0
 10
42.5857
 20
-27.9134
 11
42.4945
 21
-27.8895
  0
LINE
  8
0
 10
42.4945
 20
-27.8895
 11
42.4041
 21
-27.8627
  0
LINE
  8
0
 10
42.4041
 20
-27.8627
 11
42.3147
 21
-27.8331
  0
LINE
  8
0
 10
42.3147
 20
-27.8331
 11
42.2262
 21
-27.8007
  0
LINE
  8
0
 10
42.2262
 20
-27.8007
 11
42.1387
 21
-27.7656
  0
LINE
  8
0
 10
42.1387
 20
-27.7656
 11
42.0524
 21
-27.7277
  0
LINE
  8
0
 10
42.0524
 20
-27.7277
 11
41.9674
 21
-27.6871
  0
LINE
  8
0
 10
41.9674
 20
-27.6871
 11
41.8836
 21
-27.6439
  0
LINE
  8
0
 10
41.8836
 20
-27.6439
 11
41.8013
 21
-27.5981
  0
LINE
  8
0
 10
41.8013
 20
-27.5981
 11
41.7204
 21
-27.5497
  0
LINE
  8
0
 10
41.7204
 20
-27.5497
 11
41.6411
 21
-27.4987
  0
LINE
  8
0
 10
41.6411
 20
-27.4987
 11
41.5634
 21
-27.4454
  0
LINE
  8
0
 10
41.5634
 20
-27.4454
 11
41.4875
 21
-27.3896
  0
LINE
  8
0
 10
41.4875
 20
-27.3896
 11
41.4133
 21
-27.3314
  0
LINE
  8
0
 10
41.4133
 20
-27.3314
 11
41.341
 21
-27.271
  0
LINE
  8
0
 10
41.341
 20
-27.271
 11
41.2706
 21
-27.2083
  0
LINE
  8
0
 10
41.2706
 20
-27.2083
 11
41.2023
 21
-27.1434
  0
LINE
  8
0
 10
41.2023
 20
-27.1434
 11
41.136
 21
-27.0764
  0
LINE
  8
0
 10
41.136
 20
-27.0764
 11
41.0718
 21
-27.0074
  0
LINE
  8
0
 10
41.0718
 20
-27.0074
 11
41.0099
 21
-26.9364
  0
LINE
  8
0
 10
41.0099
 20
-26.9364
 11
40.9502
 21
-26.8634
  0
LINE
  8
0
 10
40.9502
 20
-26.8634
 11
40.8928
 21
-26.7887
  0
LINE
  8
0
 10
40.8928
 20
-26.7887
 11
40.8378
 21
-26.7121
  0
LINE
  8
0
 10
40.8378
 20
-26.7121
 11
40.7852
 21
-26.6339
  0
LINE
  8
0
 10
40.7852
 20
-26.6339
 11
40.7352
 21
-26.5541
  0
LINE
  8
0
 10
40.7352
 20
-26.5541
 11
40.6876
 21
-26.4727
  0
LINE
  8
0
 10
40.6876
 20
-26.4727
 11
40.6427
 21
-26.3899
  0
LINE
  8
0
 10
40.6427
 20
-26.3899
 11
40.6003
 21
-26.3057
  0
LINE
  8
0
 10
40.6003
 20
-26.3057
 11
40.5606
 21
-26.2202
  0
LINE
  8
0
 10
40.5606
 20
-26.2202
 11
40.5237
 21
-26.1335
  0
LINE
  8
0
 10
40.5237
 20
-26.1335
 11
40.4894
 21
-26.0457
  0
LINE
  8
0
 10
40.4894
 20
-26.0457
 11
40.458
 21
-25.9569
  0
LINE
  8
0
 10
40.458
 20
-25.9569
 11
40.4293
 21
-25.8671
  0
LINE
  8
0
 10
40.4293
 20
-25.8671
 11
40.4035
 21
-25.7764
  0
LINE
  8
0
 10
40.4035
 20
-25.7764
 11
40.3805
 21
-25.685
  0
LINE
  8
0
 10
40.3805
 20
-25.685
 11
40.3604
 21
-25.593
  0
LINE
  8
0
 10
40.3604
 20
-25.593
 11
40.3433
 21
-25.5003
  0
LINE
  8
0
 10
40.3433
 20
-25.5003
 11
40.329
 21
-25.4071
  0
LINE
  8
0
 10
40.329
 20
-25.4071
 11
40.3177
 21
-25.3136
  0
LINE
  8
0
 10
40.3177
 20
-25.3136
 11
40.3093
 21
-25.2197
  0
LINE
  8
0
 10
40.3093
 20
-25.2197
 11
40.3039
 21
-25.1256
  0
LINE
  8
0
 10
40.3039
 20
-25.1256
 11
40.3014
 21
-25.0314
  0
LINE
  8
0
 10
40.3014
 20
-25.0314
 11
40.3019
 21
-24.9372
  0
LINE
  8
0
 10
40.3019
 20
-24.9372
 11
40.3054
 21
-24.843
  0
LINE
  8
0
 10
40.3054
 20
-24.843
 11
40.3118
 21
-24.749
  0
LINE
  8
0
 10
40.3118
 20
-24.749
 11
40.3212
 21
-24.6552
  0
LINE
  8
0
 10
40.3212
 20
-24.6552
 11
40.3335
 21
-24.5617
  0
LINE
  8
0
 10
40.3335
 20
-24.5617
 11
40.3487
 21
-24.4687
  0
LINE
  8
0
 10
40.3487
 20
-24.4687
 11
40.3668
 21
-24.3763
  0
LINE
  8
0
 10
40.3668
 20
-24.3763
 11
40.3879
 21
-24.2844
  0
LINE
  8
0
 10
40.3879
 20
-24.2844
 11
40.4118
 21
-24.1932
  0
LINE
  8
0
 10
40.4118
 20
-24.1932
 11
40.4385
 21
-24.1029
  0
LINE
  8
0
 10
40.4385
 20
-24.1029
 11
40.4681
 21
-24.0134
  0
LINE
  8
0
 10
40.4681
 20
-24.0134
 11
40.5005
 21
-23.9249
  0
LINE
  8
0
 10
40.5005
 20
-23.9249
 11
40.5357
 21
-23.8374
  0
LINE
  8
0
 10
40.5357
 20
-23.8374
 11
40.5735
 21
-23.7511
  0
LINE
  8
0
 10
40.5735
 20
-23.7511
 11
40.6141
 21
-23.6661
  0
LINE
  8
0
 10
40.6141
 20
-23.6661
 11
40.6573
 21
-23.5823
  0
LINE
  8
0
 10
40.6573
 20
-23.5823
 11
40.7032
 21
-23.5
  0
LINE
  8
0
 10
40.7032
 20
-23.5
 11
40.7516
 21
-23.4191
  0
LINE
  8
0
 10
40.7516
 20
-23.4191
 11
40.8025
 21
-23.3398
  0
LINE
  8
0
 10
40.8025
 20
-23.3398
 11
40.8559
 21
-23.2621
  0
LINE
  8
0
 10
40.8559
 20
-23.2621
 11
40.9117
 21
-23.1862
  0
LINE
  8
0
 10
40.9117
 20
-23.1862
 11
40.9698
 21
-23.112
  0
LINE
  8
0
 10
40.9698
 20
-23.112
 11
41.0303
 21
-23.0397
  0
LINE
  8
0
 10
41.0303
 20
-23.0397
 11
41.093
 21
-22.9694
  0
LINE
  8
0
 10
41.093
 20
-22.9694
 11
41.1578
 21
-22.901
  0
LINE
  8
0
 10
41.1578
 20
-22.901
 11
41.2248
 21
-22.8347
  0
LINE
  8
0
 10
41.2248
 20
-22.8347
 11
41.2939
 21
-22.7706
  0
LINE
  8
0
 10
41.2939
 20
-22.7706
 11
41.3649
 21
-22.7086
  0
LINE
  8
0
 10
41.3649
 20
-22.7086
 11
41.4378
 21
-22.6489
  0
LINE
  8
0
 10
41.4378
 20
-22.6489
 11
41.5126
 21
-22.5915
  0
LINE
  8
0
 10
41.5126
 20
-22.5915
 11
41.5891
 21
-22.5365
  0
LINE
  8
0
 10
41.5891
 20
-22.5365
 11
41.6673
 21
-22.484
  0
LINE
  8
0
 10
41.6673
 20
-22.484
 11
41.7472
 21
-22.4339
  0
LINE
  8
0
 10
41.7472
 20
-22.4339
 11
41.8286
 21
-22.3864
  0
LINE
  8
0
 10
41.8286
 20
-22.3864
 11
41.9114
 21
-22.3414
  0
LINE
  8
0
 10
41.9114
 20
-22.3414
 11
41.9956
 21
-22.299
  0
LINE
  8
0
 10
41.9956
 20
-22.299
 11
42.0811
 21
-22.2594
  0
LINE
  8
0
 10
42.0811
 20
-22.2594
 11
42.1677
 21
-22.2224
  0
LINE
  8
0
 10
42.1677
 20
-22.2224
 11
42.2555
 21
-22.1881
  0
LINE
  8
0
 10
42.2555
 20
-22.1881
 11
42.3444
 21
-22.1567
  0
LINE
  8
0
 10
42.3444
 20
-22.1567
 11
42.4342
 21
-22.128
  0
LINE
  8
0
 10
42.4342
 20
-22.128
 11
42.5248
 21
-22.1022
  0
LINE
  8
0
 10
42.5248
 20
-22.1022
 11
42.6162
 21
-22.0793
  0
LINE
  8
0
 10
42.6162
 20
-22.0793
 11
42.7083
 21
-22.0592
  0
LINE
  8
0
 10
42.7083
 20
-22.0592
 11
42.8009
 21
-22.042
  0
LINE
  8
0
 10
42.8009
 20
-22.042
 11
42.8941
 21
-22.0278
  0
LINE
  8
0
 10
42.8941
 20
-22.0278
 11
42.9877
 21
-22.0164
  0
LINE
  8
0
 10
42.9877
 20
-22.0164
 11
43.0815
 21
-22.008
  0
LINE
  8
0
 10
43.0815
 20
-22.008
 11
43.1756
 21
-22.0026
  0
LINE
  8
0
 10
43.1756
 20
-22.0026
 11
43.2699
 21
-22.0002
  0
LINE
  8
0
 10
43.2699
 20
-22.0002
 11
43.3641
 21
-22.0007
  0
LINE
  8
0
 10
43.3641
 20
-22.0007
 11
43.4583
 21
-22.0041
  0
LINE
  8
0
 10
43.4583
 20
-22.0041
 11
43.5523
 21
-22.0105
  0
LINE
  8
0
 10
43.5523
 20
-22.0105
 11
43.6461
 21
-22.0199
  0
LINE
  8
0
 10
43.6461
 20
-22.0199
 11
43.7395
 21
-22.0322
  0
LINE
  8
0
 10
43.7395
 20
-22.0322
 11
43.8325
 21
-22.0474
  0
LINE
  8
0
 10
43.8325
 20
-22.0474
 11
43.925
 21
-22.0656
  0
LINE
  8
0
 10
43.925
 20
-22.0656
 11
44.0169
 21
-22.0866
  0
LINE
  8
0
 10
44.0169
 20
-22.0866
 11
44.108
 21
-22.1105
  0
LINE
  8
0
 10
44.108
 20
-22.1105
 11
44.1984
 21
-22.1373
  0
LINE
  8
0
 10
44.1984
 20
-22.1373
 11
44.2879
 21
-22.1669
  0
LINE
  8
0
 10
44.2879
 20
-22.1669
 11
44.3764
 21
-22.1992
  0
LINE
  8
0
 10
44.3764
 20
-22.1992
 11
44.4638
 21
-22.2344
  0
LINE
  8
0
 10
44.4638
 20
-22.2344
 11
44.5501
 21
-22.2723
  0
LINE
  8
0
 10
44.5501
 20
-22.2723
 11
44.6352
 21
-22.3129
  0
LINE
  8
0
 10
44.6352
 20
-22.3129
 11
44.7189
 21
-22.3561
  0
LINE
  8
0
 10
44.7189
 20
-22.3561
 11
44.8013
 21
-22.4019
  0
LINE
  8
0
 10
44.8013
 20
-22.4019
 11
44.8821
 21
-22.4503
  0
LINE
  8
0
 10
44.8821
 20
-22.4503
 11
44.9614
 21
-22.5012
  0
LINE
  8
0
 10
44.9614
 20
-22.5012
 11
45.0391
 21
-22.5546
  0
LINE
  8
0
 10
45.0391
 20
-22.5546
 11
45.1151
 21
-22.6104
  0
LINE
  8
0
 10
45.1151
 20
-22.6104
 11
45.1892
 21
-22.6685
  0
LINE
  8
0
 10
45.1892
 20
-22.6685
 11
45.2615
 21
-22.729
  0
LINE
  8
0
 10
45.2615
 20
-22.729
 11
45.3319
 21
-22.7917
  0
LINE
  8
0
 10
45.3319
 20
-22.7917
 11
45.4003
 21
-22.8566
  0
LINE
  8
0
 10
45.4003
 20
-22.8566
 11
45.4665
 21
-22.9236
  0
LINE
  8
0
 10
45.4665
 20
-22.9236
 11
45.5307
 21
-22.9926
  0
LINE
  8
0
 10
45.5307
 20
-22.9926
 11
45.5927
 21
-23.0636
  0
LINE
  8
0
 10
45.5927
 20
-23.0636
 11
45.6523
 21
-23.1366
  0
LINE
  8
0
 10
45.6523
 20
-23.1366
 11
45.7097
 21
-23.2113
  0
LINE
  8
0
 10
45.7097
 20
-23.2113
 11
45.7647
 21
-23.2879
  0
LINE
  8
0
 10
45.7647
 20
-23.2879
 11
45.8173
 21
-23.3661
  0
LINE
  8
0
 10
45.8173
 20
-23.3661
 11
45.8674
 21
-23.4459
  0
LINE
  8
0
 10
45.8674
 20
-23.4459
 11
45.9149
 21
-23.5273
  0
LINE
  8
0
 10
45.9149
 20
-23.5273
 11
45.9599
 21
-23.6101
  0
LINE
  8
0
 10
45.9599
 20
-23.6101
 11
46.0022
 21
-23.6943
  0
LINE
  8
0
 10
46.0022
 20
-23.6943
 11
46.0419
 21
-23.7798
  0
LINE
  8
0
 10
46.0419
 20
-23.7798
 11
46.0789
 21
-23.8665
  0
LINE
  8
0
 10
46.0789
 20
-23.8665
 11
46.1131
 21
-23.9543
  0
LINE
  8
0
 10
46.1131
 20
-23.9543
 11
46.1446
 21
-24.0431
  0
LINE
  8
0
 10
46.1446
 20
-24.0431
 11
46.1732
 21
-24.1329
  0
LINE
  8
0
 10
46.1732
 20
-24.1329
 11
46.199
 21
-24.2235
  0
LINE
  8
0
 10
46.199
 20
-24.2235
 11
46.222
 21
-24.3149
  0
LINE
  8
0
 10
46.222
 20
-24.3149
 11
46.2421
 21
-24.407
  0
LINE
  8
0
 10
46.2421
 20
-24.407
 11
46.2592
 21
-24.4997
  0
LINE
  8
0
 10
46.2592
 20
-24.4997
 11
46.2735
 21
-24.5928
  0
LINE
  8
0
 10
46.2735
 20
-24.5928
 11
46.2848
 21
-24.6864
  0
LINE
  8
0
 10
46.2848
 20
-24.6864
 11
46.2932
 21
-24.7803
  0
LINE
  8
0
 10
46.2932
 20
-24.7803
 11
46.2986
 21
-24.8744
  0
LINE
  8
0
 10
46.2986
 20
-24.8744
 11
46.3011
 21
-24.9686
  0
LINE
  8
0
 10
46.3011
 20
-24.9686
 11
46.3006
 21
-25.0628
  0
LINE
  8
0
 10
46.3006
 20
-25.0628
 11
46.2971
 21
-25.157
  0
LINE
  8
0
 10
46.2971
 20
-25.157
 11
46.2907
 21
-25.251
  0
LINE
  8
0
 10
46.2907
 20
-25.251
 11
46.2814
 21
-25.3448
  0
LINE
  8
0
 10
46.2814
 20
-25.3448
 11
46.2691
 21
-25.4382
  0
LINE
  8
0
 10
46.2691
 20
-25.4382
 11
46.2538
 21
-25.5312
  0
LINE
  8
0
 10
46.2538
 20
-25.5312
 11
46.2357
 21
-25.6237
  0
LINE
  8
0
 10
46.2357
 20
-25.6237
 11
46.2147
 21
-25.7156
  0
LINE
  8
0
 10
46.2147
 20
-25.7156
 11
46.1908
 21
-25.8067
  0
LINE
  8
0
 10
46.1908
 20
-25.8067
 11
46.164
 21
-25.8971
  0
LINE
  8
0
 10
46.164
 20
-25.8971
 11
46.1344
 21
-25.9866
  0
LINE
  8
0
 10
46.1344
 20
-25.9866
 11
46.102
 21
-26.0751
  0
LINE
  8
0
 10
46.102
 20
-26.0751
 11
46.0668
 21
-26.1625
  0
LINE
  8
0
 10
46.0668
 20
-26.1625
 11
46.029
 21
-26.2488
  0
LINE
  8
0
 10
46.029
 20
-26.2488
 11
45.9884
 21
-26.3339
  0
LINE
  8
0
 10
45.9884
 20
-26.3339
 11
45.9452
 21
-26.4176
  0
LINE
  8
0
 10
45.9452
 20
-26.4176
 11
45.8993
 21
-26.5
  0
LINE
  8
0
 10
45.8993
 20
-26.5
 11
45.8509
 21
-26.5809
  0
LINE
  8
0
 10
45.8509
 20
-26.5809
 11
45.8
 21
-26.6602
  0
LINE
  8
0
 10
45.8
 20
-26.6602
 11
45.7466
 21
-26.7378
  0
LINE
  8
0
 10
45.7466
 20
-26.7378
 11
45.6909
 21
-26.8138
  0
LINE
  8
0
 10
45.6909
 20
-26.8138
 11
45.6327
 21
-26.888
  0
LINE
  8
0
 10
45.6327
 20
-26.888
 11
45.5723
 21
-26.9603
  0
LINE
  8
0
 10
45.5723
 20
-26.9603
 11
45.5096
 21
-27.0306
  0
LINE
  8
0
 10
45.5096
 20
-27.0306
 11
45.4447
 21
-27.099
  0
LINE
  8
0
 10
45.4447
 20
-27.099
 11
45.3777
 21
-27.1653
  0
LINE
  8
0
 10
45.3777
 20
-27.1653
 11
45.3087
 21
-27.2294
  0
LINE
  8
0
 10
45.3087
 20
-27.2294
 11
45.2376
 21
-27.2914
  0
LINE
  8
0
 10
45.2376
 20
-27.2914
 11
45.1647
 21
-27.3511
  0
LINE
  8
0
 10
45.1647
 20
-27.3511
 11
45.0899
 21
-27.4084
  0
LINE
  8
0
 10
45.0899
 20
-27.4084
 11
45.0134
 21
-27.4634
  0
LINE
  8
0
 10
45.0134
 20
-27.4634
 11
44.9352
 21
-27.516
  0
LINE
  8
0
 10
44.9352
 20
-27.516
 11
44.8553
 21
-27.5661
  0
LINE
  8
0
 10
44.8553
 20
-27.5661
 11
44.774
 21
-27.6136
  0
LINE
  8
0
 10
44.774
 20
-27.6136
 11
44.6911
 21
-27.6586
  0
LINE
  8
0
 10
44.6911
 20
-27.6586
 11
44.6069
 21
-27.7009
  0
LINE
  8
0
 10
44.6069
 20
-27.7009
 11
44.5215
 21
-27.7406
  0
LINE
  8
0
 10
44.5215
 20
-27.7406
 11
44.4348
 21
-27.7776
  0
LINE
  8
0
 10
44.4348
 20
-27.7776
 11
44.347
 21
-27.8118
  0
LINE
  8
0
 10
44.347
 20
-27.8118
 11
44.2581
 21
-27.8433
  0
LINE
  8
0
 10
44.2581
 20
-27.8433
 11
44.1684
 21
-27.8719
  0
LINE
  8
0
 10
44.1684
 20
-27.8719
 11
44.0777
 21
-27.8978
  0
LINE
  8
0
 10
44.0777
 20
-27.8978
 11
43.9863
 21
-27.9207
  0
LINE
  8
0
 10
43.9863
 20
-27.9207
 11
43.8942
 21
-27.9408
  0
LINE
  8
0
 10
43.8942
 20
-27.9408
 11
43.8016
 21
-27.958
  0
LINE
  8
0
 10
43.8016
 20
-27.958
 11
43.7084
 21
-27.9722
  0
LINE
  8
0
 10
43.7084
 20
-27.9722
 11
43.6149
 21
-27.9836
  0
LINE
  8
0
 10
43.6149
 20
-27.9836
 11
43.521
 21
-27.9919
  0
LINE
  8
0
 10
43.521
 20
-27.9919
 11
43.4269
 21
-27.9974
  0
LINE
  8
0
 10
43.4269
 20
-27.9974
 11
43.3327
 21
-27.9998
  0
LINE
  8
0
 10
43.3327
 20
-27.9998
 11
43.2384
 21
-27.9993
  0
LINE
  8
0
 10
-0.094223
 20
-52.9985
 11
-0.18837
 21
-52.9941
  0
LINE
  8
0
 10
-0.18837
 20
-52.9941
 11
-0.282318
 21
-52.9867
  0
LINE
  8
0
 10
-0.282318
 20
-52.9867
 11
-0.375992
 21
-52.9763
  0
LINE
  8
0
 10
-0.375992
 20
-52.9763
 11
-0.469299
 21
-52.9631
  0
LINE
  8
0
 10
-0.469299
 20
-52.9631
 11
-0.562134
 21
-52.9469
  0
LINE
  8
0
 10
-0.562134
 20
-52.9469
 11
-0.654419
 21
-52.9277
  0
LINE
  8
0
 10
-0.654419
 20
-52.9277
 11
-0.746063
 21
-52.9057
  0
LINE
  8
0
 10
-0.746063
 20
-52.9057
 11
-0.83696
 21
-52.8809
  0
LINE
  8
0
 10
-0.83696
 20
-52.8809
 11
-0.927048
 21
-52.8532
  0
LINE
  8
0
 10
-0.927048
 20
-52.8532
 11
-1.0162
 21
-52.8226
  0
LINE
  8
0
 10
-1.0162
 20
-52.8226
 11
-1.10437
 21
-52.7893
  0
LINE
  8
0
 10
-1.10437
 20
-52.7893
 11
-1.19144
 21
-52.7533
  0
LINE
  8
0
 10
-1.19144
 20
-52.7533
 11
-1.27733
 21
-52.7145
  0
LINE
  8
0
 10
-1.27733
 20
-52.7145
 11
-1.36197
 21
-52.673
  0
LINE
  8
0
 10
-1.36197
 20
-52.673
 11
-1.44525
 21
-52.6289
  0
LINE
  8
0
 10
-1.44525
 20
-52.6289
 11
-1.52711
 21
-52.5822
  0
LINE
  8
0
 10
-1.52711
 20
-52.5822
 11
-1.60747
 21
-52.533
  0
LINE
  8
0
 10
-1.60747
 20
-52.533
 11
-1.68625
 21
-52.4812
  0
LINE
  8
0
 10
-1.68625
 20
-52.4812
 11
-1.76335
 21
-52.427
  0
LINE
  8
0
 10
-1.76335
 20
-52.427
 11
-1.83871
 21
-52.3705
  0
LINE
  8
0
 10
-1.83871
 20
-52.3705
 11
-1.91226
 21
-52.3115
  0
LINE
  8
0
 10
-1.91226
 20
-52.3115
 11
-1.98393
 21
-52.2503
  0
LINE
  8
0
 10
-1.98393
 20
-52.2503
 11
-2.05363
 21
-52.1869
  0
LINE
  8
0
 10
-2.05363
 20
-52.1869
 11
-2.12131
 21
-52.1213
  0
LINE
  8
0
 10
-2.12131
 20
-52.1213
 11
-2.1869
 21
-52.0536
  0
LINE
  8
0
 10
-2.1869
 20
-52.0536
 11
-2.25032
 21
-51.9839
  0
LINE
  8
0
 10
-2.25032
 20
-51.9839
 11
-2.31154
 21
-51.9123
  0
LINE
  8
0
 10
-2.31154
 20
-51.9123
 11
-2.37045
 21
-51.8387
  0
LINE
  8
0
 10
-2.37045
 20
-51.8387
 11
-2.42705
 21
-51.7634
  0
LINE
  8
0
 10
-2.42705
 20
-51.7634
 11
-2.48123
 21
-51.6862
  0
LINE
  8
0
 10
-2.48123
 20
-51.6862
 11
-2.53297
 21
-51.6075
  0
LINE
  8
0
 10
-2.53297
 20
-51.6075
 11
-2.58221
 21
-51.5271
  0
LINE
  8
0
 10
-2.58221
 20
-51.5271
 11
-2.62891
 21
-51.4453
  0
LINE
  8
0
 10
-2.62891
 20
-51.4453
 11
-2.67302
 21
-51.362
  0
LINE
  8
0
 10
-2.67302
 20
-51.362
 11
-2.71448
 21
-51.2773
  0
LINE
  8
0
 10
-2.71448
 20
-51.2773
 11
-2.75325
 21
-51.1914
  0
LINE
  8
0
 10
-2.75325
 20
-51.1914
 11
-2.78932
 21
-51.1044
  0
LINE
  8
0
 10
-2.78932
 20
-51.1044
 11
-2.82263
 21
-51.0162
  0
LINE
  8
0
 10
-2.82263
 20
-51.0162
 11
-2.85316
 21
-50.927
  0
LINE
  8
0
 10
-2.85316
 20
-50.927
 11
-2.88087
 21
-50.837
  0
LINE
  8
0
 10
-2.88087
 20
-50.837
 11
-2.90575
 21
-50.7461
  0
LINE
  8
0
 10
-2.90575
 20
-50.7461
 11
-2.92775
 21
-50.6544
  0
LINE
  8
0
 10
-2.92775
 20
-50.6544
 11
-2.94685
 21
-50.5621
  0
LINE
  8
0
 10
-2.94685
 20
-50.5621
 11
-2.96306
 21
-50.4693
  0
LINE
  8
0
 10
-2.96306
 20
-50.4693
 11
-2.97633
 21
-50.376
  0
LINE
  8
0
 10
-2.97633
 20
-50.376
 11
-2.98668
 21
-50.2823
  0
LINE
  8
0
 10
-2.98668
 20
-50.2823
 11
-2.99408
 21
-50.1884
  0
LINE
  8
0
 10
-2.99408
 20
-50.1884
 11
-2.9985
 21
-50.0942
  0
LINE
  8
0
 10
-2.9985
 20
-50.0942
 11
-3
 21
-50
  0
LINE
  8
0
 10
-3
 20
-50
 11
-2.9985
 21
-49.9058
  0
LINE
  8
0
 10
-2.9985
 20
-49.9058
 11
-2.99408
 21
-49.8116
  0
LINE
  8
0
 10
-2.99408
 20
-49.8116
 11
-2.98668
 21
-49.7177
  0
LINE
  8
0
 10
-2.98668
 20
-49.7177
 11
-2.97633
 21
-49.624
  0
LINE
  8
0
 10
-2.97633
 20
-49.624
 11
-2.96306
 21
-49.5307
  0
LINE
  8
0
 10
-2.96306
 20
-49.5307
 11
-2.94685
 21
-49.4379
  0
LINE
  8
0
 10
-2.94685
 20
-49.4379
 11
-2.92775
 21
-49.3456
  0
LINE
  8
0
 10
-2.92775
 20
-49.3456
 11
-2.90575
 21
-49.2539
  0
LINE
  8
0
 10
-2.90575
 20
-49.2539
 11
-2.88087
 21
-49.163
  0
LINE
  8
0
 10
-2.88087
 20
-49.163
 11
-2.85316
 21
-49.0729
  0
LINE
  8
0
 10
-2.85316
 20
-49.0729
 11
-2.82263
 21
-48.9838
  0
LINE
  8
0
 10
-2.82263
 20
-48.9838
 11
-2.78932
 21
-48.8956
  0
LINE
  8
0
 10
-2.78932
 20
-48.8956
 11
-2.75325
 21
-48.8085
  0
LINE
  8
0
 10
-2.75325
 20
-48.8085
 11
-2.71448
 21
-48.7227
  0
LINE
  8
0
 10
-2.71448
 20
-48.7227
 11
-2.67302
 21
-48.638
  0
LINE
  8
0
 10
-2.67302
 20
-48.638
 11
-2.62891
 21
-48.5547
  0
LINE
  8
0
 10
-2.62891
 20
-48.5547
 11
-2.58221
 21
-48.4729
  0
LINE
  8
0
 10
-2.58221
 20
-48.4729
 11
-2.53297
 21
-48.3925
  0
LINE
  8
0
 10
-2.53297
 20
-48.3925
 11
-2.48123
 21
-48.3137
  0
LINE
  8
0
 10
-2.48123
 20
-48.3137
 11
-2.42705
 21
-48.2366
  0
LINE
  8
0
 10
-2.42705
 20
-48.2366
 11
-2.37045
 21
-48.1613
  0
LINE
  8
0
 10
-2.37045
 20
-48.1613
 11
-2.31154
 21
-48.0877
  0
LINE
  8
0
 10
-2.31154
 20
-48.0877
 11
-2.25032
 21
-48.0161
  0
LINE
  8
0
 10
-2.25032
 20
-48.0161
 11
-2.1869
 21
-47.9464
  0
LINE
  8
0
 10
-2.1869
 20
-47.9464
 11
-2.12131
 21
-47.8787
  0
LINE
  8
0
 10
-2.12131
 20
-47.8787
 11
-2.05363
 21
-47.8131
  0
LINE
  8
0
 10
-2.05363
 20
-47.8131
 11
-1.98393
 21
-47.7497
  0
LINE
  8
0
 10
-1.98393
 20
-47.7497
 11
-1.91226
 21
-47.6884
  0
LINE
  8
0
 10
-1.91226
 20
-47.6884
 11
-1.83871
 21
-47.6295
  0
LINE
  8
0
 10
-1.83871
 20
-47.6295
 11
-1.76335
 21
-47.5729
  0
LINE
  8
0
 10
-1.76335
 20
-47.5729
 11
-1.68625
 21
-47.5188
  0
LINE
  8
0
 10
-1.68625
 20
-47.5188
 11
-1.60747
 21
-47.467
  0
LINE
  8
0
 10
-1.60747
 20
-47.467
 11
-1.52711
 21
-47.4178
  0
LINE
  8
0
 10
-1.52711
 20
-47.4178
 11
-1.44525
 21
-47.3711
  0
LINE
  8
0
 10
-1.44525
 20
-47.3711
 11
-1.36197
 21
-47.327
  0
LINE
  8
0
 10
-1.36197
 20
-47.327
 11
-1.27733
 21
-47.2855
  0
LINE
  8
0
 10
-1.27733
 20
-47.2855
 11
-1.19144
 21
-47.2467
  0
LINE
  8
0
 10
-1.19144
 20
-47.2467
 11
-1.10437
 21
-47.2107
  0
LINE
  8
0
 10
-1.10437
 20
-47.2107
 11
-1.0162
 21
-47.1774
  0
LINE
  8
0
 10
-1.0162
 20
-47.1774
 11
-0.927048
 21
-47.1468
  0
LINE
  8
0
 10
-0.927048
 20
-47.1468
 11
-0.83696
 21
-47.1191
  0
LINE
  8
0
 10
-0.83696
 20
-47.1191
 11
-0.746063
 21
-47.0942
  0
LINE
  8
0
 10
-0.746063
 20
-47.0942
 11
-0.654419
 21
-47.0722
  0
LINE
  8
0
 10
-0.654419
 20
-47.0722
 11
-0.562134
 21
-47.0531
  0
LINE
  8
0
 10
-0.562134
 20
-47.0531
 11
-0.469299
 21
-47.0369
  0
LINE
  8
0
 10
-0.469299
 20
-47.0369
 11
-0.375992
 21
-47.0237
  0
LINE
  8
0
 10
-0.375992
 20
-47.0237
 11
-0.282318
 21
-47.0133
  0
LINE
  8
0
 10
-0.282318
 20
-47.0133
 11
-0.18837
 21
-47.0059
  0
LINE
  8
0
 10
-0.18837
 20
-47.0059
 11
-0.094223
 21
-47.0015
  0
LINE
  8
0
 10
-0.094223
 20
-47.0015
 11
0
 21
-47
  0
LINE
  8
0
 10
0
 20
-47
 11
0.094223
 21
-47.0015
  0
LINE
  8
0
 10
0.094223
 20
-47.0015
 11
0.18837
 21
-47.0059
  0
LINE
  8
0
 10
0.18837
 20
-47.0059
 11
0.282318
 21
-47.0133
  0
LINE
  8
0
 10
0.282318
 20
-47.0133
 11
0.375992
 21
-47.0237
  0
LINE
  8
0
 10
0.375992
 20
-47.0237
 11
0.469299
 21
-47.0369
  0
LINE
  8
0
 10
0.469299
 20
-47.0369
 11
0.562134
 21
-47.0531
  0
LINE
  8
0
 10
0.562134
 20
-47.0531
 11
0.654419
 21
-47.0722
  0
LINE
  8
0
 10
0.654419
 20
-47.0722
 11
0.746063
 21
-47.0942
  0
LINE
  8
0
 10
0.746063
 20
-47.0942
 11
0.83696
 21
-47.1191
  0
LINE
  8
0
 10
0.83696
 20
-47.1191
 11
0.927048
 21
-47.1468
  0
LINE
  8
0
 10
0.927048
 20
-47.1468
 11
1.0162
 21
-47.1774
  0
LINE
  8
0
 10
1.0162
 20
-47.1774
 11
1.10437
 21
-47.2107
  0
LINE
  8
0
 10
1.10437
 20
-47.2107
 11
1.19144
 21
-47.2467
  0
LINE
  8
0
 10
1.19144
 20
-47.2467
 11
1.27733
 21
-47.2855
  0
LINE
  8
0
 10
1.27733
 20
-47.2855
 11
1.36197
 21
-47.327
  0
LINE
  8
0
 10
1.36197
 20
-47.327
 11
1.44525
 21
-47.3711
  0
LINE
  8
0
 10
1.44525
 20
-47.3711
 11
1.52711
 21
-47.4178
  0
LINE
  8
0
 10
1.52711
 20
-47.4178
 11
1.60747
 21
-47.467
  0
LINE
  8
0
 10
1.60747
 20
-47.467
 11
1.68625
 21
-47.5188
  0
LINE
  8
0
 10
1.68625
 20
-47.5188
 11
1.76335
 21
-47.5729
  0
LINE
  8
0
 10
1.76335
 20
-47.5729
 11
1.83871
 21
-47.6295
  0
LINE
  8
0
 10
1.83871
 20
-47.6295
 11
1.91226
 21
-47.6884
  0
LINE
  8
0
 10
1.91226
 20
-47.6884
 11
1.98393
 21
-47.7497
  0
LINE
  8
0
 10
1.98393
 20
-47.7497
 11
2.05363
 21
-47.8131
  0
LINE
  8
0
 10
2.05363
 20
-47.8131
 11
2.12131
 21
-47.8787
  0
LINE
  8
0
 10
2.12131
 20
-47.8787
 11
2.1869
 21
-47.9464
  0
LINE
  8
0
 10
2.1869
 20
-47.9464
 11
2.25032
 21
-48.0161
  0
LINE
  8
0
 10
2.25032
 20
-48.0161
 11
2.31154
 21
-48.0877
  0
LINE
  8
0
 10
2.31154
 20
-48.0877
 11
2.37045
 21
-48.1613
  0
LINE
  8
0
 10
2.37045
 20
-48.1613
 11
2.42705
 21
-48.2366
  0
LINE
  8
0
 10
2.42705
 20
-48.2366
 11
2.48123
 21
-48.3137
  0
LINE
  8
0
 10
2.48123
 20
-48.3137
 11
2.53297
 21
-48.3925
  0
LINE
  8
0
 10
2.53297
 20
-48.3925
 11
2.58221
 21
-48.4729
  0
LINE
  8
0
 10
2.58221
 20
-48.4729
 11
2.62891
 21
-48.5547
  0
LINE
  8
0
 10
2.62891
 20
-48.5547
 11
2.67302
 21
-48.638
  0
LINE
  8
0
 10
2.67302
 20
-48.638
 11
2.71448
 21
-48.7227
  0
LINE
  8
0
 10
2.71448
 20
-48.7227
 11
2.75325
 21
-48.8085
  0
LINE
  8
0
 10
2.75325
 20
-48.8085
 11
2.78932
 21
-48.8956
  0
LINE
  8
0
 10
2.78932
 20
-48.8956
 11
2.82263
 21
-48.9838
  0
LINE
  8
0
 10
2.82263
 20
-48.9838
 11
2.85316
 21
-49.0729
  0
LINE
  8
0
 10
2.85316
 20
-49.0729
 11
2.88087
 21
-49.163
  0
LINE
  8
0
 10
2.88087
 20
-49.163
 11
2.90575
 21
-49.2539
  0
LINE
  8
0
 10
2.90575
 20
-49.2539
 11
2.92775
 21
-49.3456
  0
LINE
  8
0
 10
2.92775
 20
-49.3456
 11
2.94685
 21
-49.4379
  0
LINE
  8
0
 10
2.94685
 20
-49.4379
 11
2.96306
 21
-49.5307
  0
LINE
  8
0
 10
2.96306
 20
-49.5307
 11
2.97633
 21
-49.624
  0
LINE
  8
0
 10
2.97633
 20
-49.624
 11
2.98668
 21
-49.7177
  0
LINE
  8
0
 10
2.98668
 20
-49.7177
 11
2.99408
 21
-49.8116
  0
LINE
  8
0
 10
2.99408
 20
-49.8116
 11
2.9985
 21
-49.9058
  0
LINE
  8
0
 10
2.9985
 20
-49.9058
 11
2.99998
 21
-50
  0
LINE
  8
0
 10
2.99998
 20
-50
 11
2.9985
 21
-50.0942
  0
LINE
  8
0
 10
2.9985
 20
-50.0942
 11
2.99408
 21
-50.1884
  0
LINE
  8
0
 10
2.99408
 20
-50.1884
 11
2.98668
 21
-50.2823
  0
LINE
  8
0
 10
2.98668
 20
-50.2823
 11
2.97633
 21
-50.376
  0
LINE
  8
0
 10
2.97633
 20
-50.376
 11
2.96306
 21
-50.4693
  0
LINE
  8
0
 10
2.96306
 20
-50.4693
 11
2.94685
 21
-50.5621
  0
LINE
  8
0
 10
2.94685
 20
-50.5621
 11
2.92775
 21
-50.6544
  0
LINE
  8
0
 10
2.92775
 20
-50.6544
 11
2.90575
 21
-50.7461
  0
LINE
  8
0
 10
2.90575
 20
-50.7461
 11
2.88087
 21
-50.837
  0
LINE
  8
0
 10
2.88087
 20
-50.837
 11
2.85316
 21
-50.927
  0
LINE
  8
0
 10
2.85316
 20
-50.927
 11
2.82263
 21
-51.0162
  0
LINE
  8
0
 10
2.82263
 20
-51.0162
 11
2.78932
 21
-51.1044
  0
LINE
  8
0
 10
2.78932
 20
-51.1044
 11
2.75325
 21
-51.1914
  0
LINE
  8
0
 10
2.75325
 20
-51.1914
 11
2.71448
 21
-51.2773
  0
LINE
  8
0
 10
2.71448
 20
-51.2773
 11
2.67302
 21
-51.362
  0
LINE
  8
0
 10
2.67302
 20
-51.362
 11
2.62891
 21
-51.4453
  0
LINE
  8
0
 10
2.62891
 20
-51.4453
 11
2.58221
 21
-51.5271
  0
LINE
  8
0
 10
2.58221
 20
-51.5271
 11
2.53297
 21
-51.6075
  0
LINE
  8
0
 10
2.53297
 20
-51.6075
 11
2.48123
 21
-51.6862
  0
LINE
  8
0
 10
2.48123
 20
-51.6862
 11
2.42705
 21
-51.7634
  0
LINE
  8
0
 10
2.42705
 20
-51.7634
 11
2.37045
 21
-51.8387
  0
LINE
  8
0
 10
2.37045
 20
-51.8387
 11
2.31154
 21
-51.9123
  0
LINE
  8
0
 10
2.31154
 20
-51.9123
 11
2.25032
 21
-51.9839
  0
LINE
  8
0
 10
2.25032
 20
-51.9839
 11
2.1869
 21
-52.0536
  0
LINE
  8
0
 10
2.1869
 20
-52.0536
 11
2.12131
 21
-52.1213
  0
LINE
  8
0
 10
2.12131
 20
-52.1213
 11
2.05363
 21
-52.1869
  0
LINE
  8
0
 10
2.05363
 20
-52.1869
 11
1.98393
 21
-52.2503
  0
LINE
  8
0
 10
1.98393
 20
-52.2503
 11
1.91226
 21
-52.3115
  0
LINE
  8
0
 10
1.91226
 20
-52.3115
 11
1.83871
 21
-52.3705
  0
LINE
  8
0
 10
1.83871
 20
-52.3705
 11
1.76335
 21
-52.427
  0
LINE
  8
0
 10
1.76335
 20
-52.427
 11
1.68625
 21
-52.4812
  0
LINE
  8
0
 10
1.68625
 20
-52.4812
 11
1.60747
 21
-52.533
  0
LINE
  8
0
 10
1.60747
 20
-52.533
 11
1.52711
 21
-52.5822
  0
LINE
  8
0
 10
1.52711
 20
-52.5822
 11
1.44525
 21
-52.6289
  0
LINE
  8
0
 10
1.44525
 20
-52.6289
 11
1.36197
 21
-52.673
  0
LINE
  8
0
 10
1.36197
 20
-52.673
 11
1.27733
 21
-52.7145
  0
LINE
  8
0
 10
1.27733
 20
-52.7145
 11
1.19144
 21
-52.7533
  0
LINE
  8
0
 10
1.19144
 20
-52.7533
 11
1.10437
 21
-52.7893
  0
LINE
  8
0
 10
1.10437
 20
-52.7893
 11
1.0162
 21
-52.8226
  0
LINE
  8
0
 10
1.0162
 20
-52.8226
 11
0.927048
 21
-52.8532
  0
LINE
  8
0
 10
0.927048
 20
-52.8532
 11
0.83696
 21
-52.8809
  0
LINE
  8
0
 10
0.83696
 20
-52.8809
 11
0.746063
 21
-52.9057
  0
LINE
  8
0
 10
0.746063
 20
-52.9057
 11
0.654419
 21
-52.9277
  0
LINE
  8
0
 10
0.654419
 20
-52.9277
 11
0.562134
 21
-52.9469
  0
LINE
  8
0
 10
0.562134
 20
-52.9469
 11
0.469299
 21
-52.9631
  0
LINE
  8
0
 10
0.469299
 20
-52.9631
 11
0.375992
 21
-52.9763
  0
LINE
  8
0
 10
0.375992
 20
-52.9763
 11
0.282318
 21
-52.9867
  0
LINE
  8
0
 10
0.282318
 20
-52.9867
 11
0.18837
 21
-52.9941
  0
LINE
  8
0
 10
0.18837
 20
-52.9941
 11
0.094223
 21
-52.9985
  0
LINE
  8
0
 10
0.094223
 20
-52.9985
 11
0
 21
-53
  0
LINE
  8
0
 10
0
 20
-53
 11
-0.094223
 21
-52.9985
  0
ENDSEC
  0
SECTION
  2
OBJECTS
  0
DICTIONARY
  0
ENDSEC
  0
EOF
