0
SECTION
2
HEADER
9
$INSUNITS
70
4
9
$ACADVER
1
AC1014
9
$HANDSEED
5
FFFF
0
ENDSEC
0
SECTION
2
TABLES
0
TABLE
2
VPORT
5
8
100
AcDbSymbolTable
0
ENDTAB
0
TABLE
2
LTYPE
5
5
100
AcDbSymbolTable
0
LTYPE
5
14
100
AcDbSymbolTableRecord
100
AcDbLinetypeTableRecord
2
BYBLOCK
70
0
0
LTYPE
5
15
100
AcDbSymbolTableRecord
100
AcDbLinetypeTableRecord
2
BYLAYER
70
0
0
ENDTAB
0
TABLE
2
LAYER
5
2
100
AcDbSymbolTable
70
2
0
LAYER
5
50
100
AcDbSymbolTableRecord
100
AcDbLayerTableRecord
2
0
70
0
6
CONTINUOUS
0
ENDTAB
0
TABLE
2
STYLE
5
3
100
AcDbSymbolTable
70
1
0
STYLE
5
11
100
AcDbSymbolTableRecord
100
AcDbTextStyleTableRecord
2
STANDARD
70
0
0
ENDTAB
0
TABLE
2
VIEW
5
6
100
AcDbSymbolTable
70
0
0
ENDTAB
0
TABLE
2
UCS
5
7
100
AcDbSymbolTable
70
0
0
ENDTAB
0
TABLE
2
APPID
5
9
100
AcDbSymbolTable
70
2
0
APPID
5
12
100
AcDbSymbolTableRecord
100
AcDbRegAppTableRecord
2
ACAD
70
0
0
ENDTAB
0
TABLE
2
DIMSTYLE
5
A
100
AcDbSymbolTable
70
1
0
ENDTAB
0
TABLE
2
BLOCK_RECORD
5
1
100
AcDbSymbolTable
70
1
0
BLOCK_RECORD
5
1F
100
AcDbSymbolTableRecord
100
AcDbBlockTableRecord
2
*MODEL_SPACE
0
BLOCK_RECORD
5
1B
100
AcDbSymbolTableRecord
100
AcDbBlockTableRecord
2
*PAPER_SPACE
0
ENDTAB
0
ENDSEC
0
SECTION
2
BLOCKS
0
BLOCK
5
20
100
AcDbEntity
100
AcDbBlockBegin
2
*MODEL_SPACE
0
ENDBLK
5
21
100
AcDbEntity
100
AcDbBlockEnd
0
BLOCK
5
1C
100
AcDbEntity
100
AcDbBlockBegin
2
*PAPER_SPACE
0
ENDBLK
5
1D
100
AcDbEntity
100
AcDbBlockEnd
0
ENDSEC
0
SECTION
2
ENTITIES
0
LINE
5
100
100
AcDbEntity
8
0
100
AcDbLine
10
370.00000223517429
20
180.00000201165699
30
0
11
370.00000223517429
21
185.00000208616279
31
0
0
LINE
5
101
100
AcDbEntity
8
0
100
AcDbLine
10
370.00000223517429
20
185.00000208616279
30
0
11
380.0000023841859
21
185.00000208616279
31
0
0
LINE
5
102
100
AcDbEntity
8
0
100
AcDbLine
10
380.0000023841859
20
185.00000208616279
30
0
11
380.0000023841859
21
180.00000201165699
31
0
0
LINE
5
103
100
AcDbEntity
8
0
100
AcDbLine
10
380.00000208616268
20
180.00000201165699
30
0
11
390.00000223517429
21
180.00000201165699
31
0
0
LINE
5
104
100
AcDbEntity
8
0
100
AcDbLine
10
390.00000223517429
20
185.00000208616279
30
0
11
400.00000238418579
21
185.00000208616279
31
0
0
LINE
5
105
100
AcDbEntity
8
0
100
AcDbLine
10
400.00000238418579
20
185.00000208616279
30
0
11
400.00000238418579
21
180.00000201165699
31
0
0
LINE
5
106
100
AcDbEntity
8
0
100
AcDbLine
10
390.00000223517429
20
180.00000201165699
30
0
11
390.00000223517429
21
185.00000208616279
31
0
0
LINE
5
107
100
AcDbEntity
8
0
100
AcDbLine
10
400.00000208616257
20
180.00000201165699
30
0
11
410.00000223517418
21
180.00000201165699
31
0
0
LINE
5
108
100
AcDbEntity
8
0
100
AcDbLine
10
410.00000223517418
20
185.00000208616279
30
0
11
420.00000238418579
21
185.00000208616279
31
0
0
LINE
5
109
100
AcDbEntity
8
0
100
AcDbLine
10
420.00000238418579
20
185.00000208616279
30
0
11
420.00000238418579
21
180.00000201165699
31
0
0
LINE
5
110
100
AcDbEntity
8
0
100
AcDbLine
10
410.00000223517418
20
180.00000201165699
30
0
11
410.00000223517418
21
185.00000208616279
31
0
0
LINE
5
111
100
AcDbEntity
8
0
100
AcDbLine
10
420.00000208616257
20
180.00000201165699
30
0
11
430.00000223517418
21
180.00000201165699
31
0
0
LINE
5
112
100
AcDbEntity
8
0
100
AcDbLine
10
430.00000223517418
20
185.00000208616279
30
0
11
440.00000238418579
21
185.00000208616279
31
0
0
LINE
5
113
100
AcDbEntity
8
0
100
AcDbLine
10
440.00000238418579
20
185.00000208616279
30
0
11
440.00000238418579
21
180.00000201165699
31
0
0
LINE
5
114
100
AcDbEntity
8
0
100
AcDbLine
10
430.00000223517418
20
180.00000201165699
30
0
11
430.00000223517418
21
185.00000208616279
31
0
0
LINE
5
115
100
AcDbEntity
8
0
100
AcDbLine
10
440.00000208616257
20
180.00000201165699
30
0
11
450.00000223517418
21
180.00000201165699
31
0
0
LINE
5
116
100
AcDbEntity
8
0
100
AcDbLine
10
450.00000223517418
20
185.00000208616279
30
0
11
460.00000238418579
21
185.00000208616279
31
0
0
LINE
5
117
100
AcDbEntity
8
0
100
AcDbLine
10
460.00000238418579
20
185.00000208616279
30
0
11
460.00000238418579
21
180.00000201165699
31
0
0
LINE
5
118
100
AcDbEntity
8
0
100
AcDbLine
10
450.00000223517418
20
180.00000201165699
30
0
11
450.00000223517418
21
185.00000208616279
31
0
0
LINE
5
119
100
AcDbEntity
8
0
100
AcDbLine
10
460.00000208616257
20
180.00000201165699
30
0
11
470.00000223517418
21
180.00000201165699
31
0
0
LINE
5
120
100
AcDbEntity
8
0
100
AcDbLine
10
470.00000223517418
20
185.00000208616279
30
0
11
480.00000238418579
21
185.00000208616279
31
0
0
LINE
5
121
100
AcDbEntity
8
0
100
AcDbLine
10
480.00000238418579
20
185.00000208616279
30
0
11
480.00000238418579
21
180.00000201165699
31
0
0
LINE
5
122
100
AcDbEntity
8
0
100
AcDbLine
10
470.00000223517418
20
180.00000201165699
30
0
11
470.00000223517418
21
185.00000208616279
31
0
0
LINE
5
123
100
AcDbEntity
8
0
100
AcDbLine
10
480.00000208616257
20
180.00000201165699
30
0
11
490.00000223517418
21
180.00000201165699
31
0
0
LINE
5
124
100
AcDbEntity
8
0
100
AcDbLine
10
490.00000223517418
20
185.00000208616279
30
0
11
500.00000238418579
21
185.00000208616279
31
0
0
LINE
5
125
100
AcDbEntity
8
0
100
AcDbLine
10
500.00000238418579
20
185.00000208616279
30
0
11
500.00000238418579
21
180.00000201165699
31
0
0
LINE
5
126
100
AcDbEntity
8
0
100
AcDbLine
10
490.00000223517418
20
180.00000201165699
30
0
11
490.00000223517418
21
185.00000208616279
31
0
0
LINE
5
127
100
AcDbEntity
8
0
100
AcDbLine
10
500.00000208616257
20
180.00000201165699
30
0
11
510.00000223517418
21
180.00000201165705
31
0
0
LINE
5
128
100
AcDbEntity
8
0
100
AcDbLine
10
510.00000223517418
20
185.00000208616285
30
0
11
520.00000238418579
21
185.00000208616285
31
0
0
LINE
5
129
100
AcDbEntity
8
0
100
AcDbLine
10
520.00000238418579
20
185.00000208616285
30
0
11
520.00000238418579
21
180.00000201165705
31
0
0
LINE
5
130
100
AcDbEntity
8
0
100
AcDbLine
10
510.00000223517418
20
180.00000201165705
30
0
11
510.00000223517418
21
185.00000208616285
31
0
0
LINE
5
131
100
AcDbEntity
8
0
100
AcDbLine
10
520.00000208616257
20
180.00000201165705
30
0
11
530.00000223517418
21
180.00000201165705
31
0
0
LINE
5
132
100
AcDbEntity
8
0
100
AcDbLine
10
530.00000223517418
20
185.00000208616285
30
0
11
540.00000238418579
21
185.00000208616285
31
0
0
LINE
5
133
100
AcDbEntity
8
0
100
AcDbLine
10
540.00000238418579
20
185.00000208616285
30
0
11
540.00000238418579
21
180.00000201165705
31
0
0
LINE
5
134
100
AcDbEntity
8
0
100
AcDbLine
10
530.00000223517418
20
180.00000201165705
30
0
11
530.00000223517418
21
185.00000208616285
31
0
0
LINE
5
135
100
AcDbEntity
8
0
100
AcDbLine
10
540.00000208616257
20
180.00000201165705
30
0
11
550.00000223517418
21
180.00000201165705
31
0
0
LINE
5
136
100
AcDbEntity
8
0
100
AcDbLine
10
550.00000223517418
20
185.00000208616285
30
0
11
560.00000238418568
21
185.00000208616285
31
0
0
LINE
5
137
100
AcDbEntity
8
0
100
AcDbLine
10
560.00000238418568
20
185.00000208616285
30
0
11
560.00000238418568
21
180.00000201165705
31
0
0
LINE
5
138
100
AcDbEntity
8
0
100
AcDbLine
10
550.00000223517418
20
180.00000201165705
30
0
11
550.00000223517418
21
185.00000208616285
31
0
0
LINE
5
139
100
AcDbEntity
8
0
100
AcDbLine
10
560.00000208616245
20
180.00000201165705
30
0
11
570.00000223517407
21
180.00000201165705
31
0
0
LINE
5
140
100
AcDbEntity
8
0
100
AcDbLine
10
570.00000223517407
20
185.00000208616285
30
0
11
580.00000238418568
21
185.00000208616285
31
0
0
LINE
5
141
100
AcDbEntity
8
0
100
AcDbLine
10
580.00000238418568
20
185.00000208616285
30
0
11
580.00000238418568
21
180.00000201165705
31
0
0
LINE
5
142
100
AcDbEntity
8
0
100
AcDbLine
10
570.00000223517407
20
180.00000201165705
30
0
11
570.00000223517407
21
185.00000208616285
31
0
0
LINE
5
143
100
AcDbEntity
8
0
100
AcDbLine
10
370.00000223517429
20
145.00000149011618
30
0
11
380.0000023841859
21
145.00000149011618
31
0
0
LINE
5
144
100
AcDbEntity
8
0
100
AcDbLine
10
380.00000208616268
20
150.00000156462198
30
6.1232340869800779e-16
11
390.00000223517429
21
150.00000156462198
31
6.1232340869800779e-16
0
LINE
5
145
100
AcDbEntity
8
0
100
AcDbLine
10
400.00000238418585
20
145.00000149011618
30
0
11
400.00000238418585
21
150.00000156462198
31
6.1232340869800779e-16
0
LINE
5
146
100
AcDbEntity
8
0
100
AcDbLine
10
390.00000223517429
20
150.00000156462198
30
6.1232340869800779e-16
11
390.00000223517429
21
145.0000014901162
31
0
0
LINE
5
147
100
AcDbEntity
8
0
100
AcDbLine
10
400.00000208616262
20
150.00000156462198
30
6.1232340869800779e-16
11
410.00000223517424
21
150.00000156462198
31
6.1232340869800779e-16
0
LINE
5
148
100
AcDbEntity
8
0
100
AcDbLine
10
390.00000223517429
20
145.0000014901162
30
0
11
400.00000238418585
21
145.00000149011618
31
0
0
LINE
5
149
100
AcDbEntity
8
0
100
AcDbLine
10
370.00000223517429
20
150.00000156462198
30
6.1232340869800779e-16
11
370.00000223517429
21
145.00000149011618
31
0
0
LINE
5
150
100
AcDbEntity
8
0
100
AcDbLine
10
530.00000223517429
20
150.00000156462198
30
6.1232340869800779e-16
11
530.00000223517429
21
145.0000014901162
31
0
0
LINE
5
151
100
AcDbEntity
8
0
100
AcDbLine
10
450.00000223517424
20
145.00000149011618
30
0
11
460.00000238418585
21
145.00000149011618
31
0
0
LINE
5
152
100
AcDbEntity
8
0
100
AcDbLine
10
460.00000238418585
20
145.00000149011618
30
0
11
460.00000238418585
21
150.00000156462198
31
6.1232340869800779e-16
0
LINE
5
153
100
AcDbEntity
8
0
100
AcDbLine
10
440.00000208616262
20
150.00000156462198
30
6.1232340869800779e-16
11
450.00000223517424
21
150.00000156462198
31
6.1232340869800779e-16
0
LINE
5
154
100
AcDbEntity
8
0
100
AcDbLine
10
430.00000223517424
20
150.00000156462198
30
6.1232340869800779e-16
11
430.00000223517424
21
145.00000149011618
31
0
0
LINE
5
155
100
AcDbEntity
8
0
100
AcDbLine
10
540.00000208616268
20
150.00000156462198
30
6.1232340869800779e-16
11
550.00000223517429
21
150.00000156462201
31
6.1232340869800779e-16
0
LINE
5
156
100
AcDbEntity
8
0
100
AcDbLine
10
530.00000223517429
20
145.0000014901162
30
0
11
540.0000023841859
21
145.0000014901162
31
0
0
LINE
5
157
100
AcDbEntity
8
0
100
AcDbLine
10
540.0000023841859
20
145.0000014901162
30
0
11
540.0000023841859
21
150.00000156462198
31
6.1232340869800779e-16
0
LINE
5
158
100
AcDbEntity
8
0
100
AcDbLine
10
480.00000208616262
20
150.00000156462198
30
6.1232340869800779e-16
11
490.00000223517424
21
150.00000156462198
31
6.1232340869800779e-16
0
LINE
5
159
100
AcDbEntity
8
0
100
AcDbLine
10
490.00000223517424
20
145.0000014901162
30
0
11
500.00000238418585
21
145.0000014901162
31
0
0
LINE
5
160
100
AcDbEntity
8
0
100
AcDbLine
10
500.00000238418585
20
145.0000014901162
30
0
11
500.00000238418585
21
150.00000156462198
31
6.1232340869800779e-16
0
LINE
5
161
100
AcDbEntity
8
0
100
AcDbLine
10
570.00000223517429
20
150.00000156462198
30
6.1232340869800779e-16
11
570.00000223517429
21
145.0000014901162
31
0
0
LINE
5
162
100
AcDbEntity
8
0
100
AcDbLine
10
570.00000223517429
20
145.0000014901162
30
0
11
580.0000023841859
21
145.0000014901162
31
0
0
LINE
5
163
100
AcDbEntity
8
0
100
AcDbLine
10
510.00000223517424
20
145.0000014901162
30
0
11
520.0000023841859
21
145.0000014901162
31
0
0
LINE
5
164
100
AcDbEntity
8
0
100
AcDbLine
10
500.00000208616262
20
150.00000156462198
30
6.1232340869800779e-16
11
510.00000223517424
21
150.00000156462198
31
6.1232340869800779e-16
0
LINE
5
165
100
AcDbEntity
8
0
100
AcDbLine
10
490.00000223517424
20
150.00000156462198
30
6.1232340869800779e-16
11
490.00000223517424
21
145.0000014901162
31
0
0
LINE
5
166
100
AcDbEntity
8
0
100
AcDbLine
10
470.00000223517424
20
150.00000156462198
30
6.1232340869800779e-16
11
470.00000223517424
21
145.0000014901162
31
0
0
LINE
5
167
100
AcDbEntity
8
0
100
AcDbLine
10
580.0000023841859
20
145.0000014901162
30
0
11
580.0000023841859
21
150.00000156462198
31
6.1232340869800779e-16
0
LINE
5
168
100
AcDbEntity
8
0
100
AcDbLine
10
470.00000223517424
20
145.0000014901162
30
0
11
480.00000238418585
21
145.0000014901162
31
0
0
LINE
5
169
100
AcDbEntity
8
0
100
AcDbLine
10
480.00000238418585
20
145.0000014901162
30
0
11
480.00000238418585
21
150.00000156462198
31
6.1232340869800779e-16
0
LINE
5
170
100
AcDbEntity
8
0
100
AcDbLine
10
380.0000023841859
20
145.00000149011618
30
0
11
380.0000023841859
21
150.00000156462198
31
6.1232340869800779e-16
0
LINE
5
171
100
AcDbEntity
8
0
100
AcDbLine
10
560.0000023841859
20
145.0000014901162
30
0
11
560.0000023841859
21
150.00000156462198
31
6.1232340869800779e-16
0
LINE
5
172
100
AcDbEntity
8
0
100
AcDbLine
10
410.00000223517424
20
150.00000156462198
30
6.1232340869800779e-16
11
410.00000223517424
21
145.00000149011618
31
0
0
LINE
5
173
100
AcDbEntity
8
0
100
AcDbLine
10
440.00000238418585
20
145.00000149011618
30
0
11
440.00000238418585
21
150.00000156462198
31
6.1232340869800779e-16
0
LINE
5
174
100
AcDbEntity
8
0
100
AcDbLine
10
410.00000223517424
20
145.00000149011618
30
0
11
420.00000238418585
21
145.00000149011618
31
0
0
LINE
5
175
100
AcDbEntity
8
0
100
AcDbLine
10
430.00000223517424
20
145.00000149011618
30
0
11
440.00000238418585
21
145.00000149011618
31
0
0
LINE
5
176
100
AcDbEntity
8
0
100
AcDbLine
10
450.00000223517424
20
150.00000156462198
30
6.1232340869800779e-16
11
450.00000223517424
21
145.00000149011618
31
0
0
LINE
5
177
100
AcDbEntity
8
0
100
AcDbLine
10
550.00000223517429
20
145.00000149011623
30
0
11
560.0000023841859
21
145.0000014901162
31
0
0
LINE
5
178
100
AcDbEntity
8
0
100
AcDbLine
10
520.0000023841859
20
145.0000014901162
30
0
11
520.0000023841859
21
150.00000156462198
31
6.1232340869800779e-16
0
LINE
5
179
100
AcDbEntity
8
0
100
AcDbLine
10
550.00000223517429
20
150.00000156462201
30
6.1232340869800779e-16
11
550.00000223517429
21
145.00000149011623
31
0
0
LINE
5
180
100
AcDbEntity
8
0
100
AcDbLine
10
460.00000208616262
20
150.00000156462198
30
6.1232340869800779e-16
11
470.00000223517424
21
150.00000156462198
31
6.1232340869800779e-16
0
LINE
5
181
100
AcDbEntity
8
0
100
AcDbLine
10
510.00000223517424
20
150.00000156462198
30
6.1232340869800779e-16
11
510.00000223517424
21
145.0000014901162
31
0
0
LINE
5
182
100
AcDbEntity
8
0
100
AcDbLine
10
560.00000208616268
20
150.00000156462198
30
6.1232340869800779e-16
11
570.00000223517429
21
150.00000156462198
31
6.1232340869800779e-16
0
LINE
5
183
100
AcDbEntity
8
0
100
AcDbLine
10
520.00000208616268
20
150.00000156462198
30
6.1232340869800779e-16
11
530.00000223517429
21
150.00000156462198
31
6.1232340869800779e-16
0
LINE
5
184
100
AcDbEntity
8
0
100
AcDbLine
10
360.00000506639486
20
170.00000186264521
30
0
11
365.00000514090067
21
170.00000186264521
31
0
0
LINE
5
185
100
AcDbEntity
8
0
100
AcDbLine
10
365.00000514090067
20
170.00000186264521
30
0
11
365.00000514090067
21
160.00000171363359
31
0
0
LINE
5
186
100
AcDbEntity
8
0
100
AcDbLine
10
365.00000514090067
20
160.00000171363359
30
0
11
360.00000506639486
21
160.00000171363359
31
0
0
LINE
5
187
100
AcDbEntity
8
0
100
AcDbLine
10
590.00000849366199
20
160.00000171363359
30
6.1232340869800779e-16
11
585.00000692904007
21
160.00000171363359
31
6.1232340869800779e-16
0
LINE
5
188
100
AcDbEntity
8
0
100
AcDbLine
10
585.00000692904007
20
160.00000171363359
30
6.1232340869800779e-16
11
585.00000692904007
21
170.00000186264521
31
6.1232340869800779e-16
0
LINE
5
189
100
AcDbEntity
8
0
100
AcDbLine
10
585.00000692904007
20
170.00000186264521
30
6.1232340869800779e-16
11
590.00000849366199
21
170.00000186264521
31
6.1232340869800779e-16
0
LINE
5
190
100
AcDbEntity
8
0
100
AcDbLine
10
360.00000506639486
20
160.00000171363359
30
0
11
360.00000506639486
21
150.00000156462198
31
0
0
LINE
5
191
100
AcDbEntity
8
0
100
AcDbLine
10
360.00000506639486
20
150.00000156462198
30
0
11
365.00000216066843
21
150.00000156462198
31
0
0
LINE
5
192
100
AcDbEntity
8
0
100
AcDbLine
10
365.00000216066843
20
150.00000156462198
30
0
11
370.00000223517429
21
150.00000156462198
31
6.1232340869800779e-16
0
LINE
5
193
100
AcDbEntity
8
0
100
AcDbLine
10
360.00000506639486
20
170.00000186264521
30
0
11
360.00000506639486
21
180.0000020116569
31
0
0
LINE
5
194
100
AcDbEntity
8
0
100
AcDbLine
10
360.00000506639486
20
180.0000020116569
30
0
11
365.00000216066837
21
180.0000020116569
31
0
0
LINE
5
195
100
AcDbEntity
8
0
100
AcDbLine
10
365.00000216066837
20
180.0000020116569
30
0
11
370.00000223517429
21
180.00000201165699
31
0
0
LINE
5
196
100
AcDbEntity
8
0
100
AcDbLine
10
590.00000849366199
20
160.00000171363359
30
6.1232340869800779e-16
11
590.00000849366199
21
150.00000156462201
31
6.1232340869800779e-16
0
LINE
5
197
100
AcDbEntity
8
0
100
AcDbLine
10
590.00000849366199
20
150.00000156462201
30
6.1232340869800779e-16
11
585.00000543892395
21
150.00000156462201
31
6.1232340869800779e-16
0
LINE
5
198
100
AcDbEntity
8
0
100
AcDbLine
10
585.00000394880783
20
150.00000156462198
30
6.1232340869800779e-16
11
580.0000023841859
21
150.00000156462198
31
6.1232340869800779e-16
0
LINE
5
199
100
AcDbEntity
8
0
100
AcDbLine
10
590.00000849366199
20
170.00000186264521
30
6.1232340869800779e-16
11
590.00000849366199
21
180.00000201165682
31
6.1232340869800779e-16
0
LINE
5
200
100
AcDbEntity
8
0
100
AcDbLine
10
590.00000849366199
20
180.00000201165682
30
6.1232340869800779e-16
11
585.00000692904007
21
180.00000201165682
31
6.1232340869800779e-16
0
LINE
5
201
100
AcDbEntity
8
0
100
AcDbLine
10
585.0000039488076
20
180.00000201165705
30
0
11
580.00000238418568
21
180.00000201165705
31
0
0
LINE
5
202
100
AcDbEntity
8
0
100
AcDbLine
10
420.00000238418585
20
145.00000149011618
30
0
11
420.00000238418585
21
150.00000223517418
31
0
0
LINE
5
203
100
AcDbEntity
8
0
100
AcDbLine
10
420.00000238418585
20
150.00000223517418
30
0
11
430.00000223517424
21
150.00000156462198
31
6.1232340869800779e-16
0
LWPOLYLINE
5
204
100
AcDbEntity
8
0
100
AcDbPolyline
90
4
70
1
43
0.0
10
535.00000797212124
20
170.0000025331974
10
530.00000789761543
20
170.0000025331974
10
530.00000789761543
20
155.00000230967999
10
535.00000797212124
20
155.00000230967999
0
LWPOLYLINE
5
205
100
AcDbEntity
8
0
100
AcDbPolyline
90
4
70
1
43
0.0
10
461.50000599771738
20
165.00000230967999
10
393.50000599771738
20
165.00000230967999
10
393.50000599771738
20
177.00000230967999
10
461.50000599771738
20
177.00000230967999
0
LWPOLYLINE
5
206
100
AcDbEntity
8
0
100
AcDbPolyline
90
4
70
1
43
0.0
10
461.70000599771743
20
212.00000230967999
10
461.70000599771743
20
199.80000230968
10
393.50000599771738
20
199.80000230968
10
393.50000599771738
20
212.00000230967999
0
LWPOLYLINE
5
207
100
AcDbEntity
8
0
100
AcDbPolyline
90
4
70
1
43
0.0
10
415.60352154076099
20
204.00000309944153
10
397.00000591576099
20
204.00000309944153
10
397.00000591576099
20
208.00000309944153
10
415.60352154076099
20
208.00000309944153
0
LWPOLYLINE
5
208
100
AcDbEntity
8
0
100
AcDbPolyline
90
4
70
1
43
0.0
10
430.54102189838886
20
204.00000309944153
10
421.00000627338886
20
204.00000309944153
10
421.00000627338886
20
208.00000309944153
10
430.54102189838886
20
208.00000309944153
0
LWPOLYLINE
5
209
100
AcDbEntity
8
0
100
AcDbPolyline
90
4
70
1
43
0.0
10
458.00000682473183
20
204.00000309944153
10
436.62305369973188
20
204.00000309944153
10
436.62305369973188
20
208.00000309944153
10
458.00000682473183
20
208.00000309944153
0
ENDSEC
0
SECTION
2
OBJECTS
0
DICTIONARY
5
C
100
AcDbDictionary
3
ACAD_GROUP
350
D
3
ACAD_MLINESTYLE
350
17
0
DICTIONARY
5
D
100
AcDbDictionary
0
DICTIONARY
5
1A
330
C
100
AcDbDictionary
0
DICTIONARY
5
17
100
AcDbDictionary
0
ENDSEC
0
EOF
