0
SECTION
2
HEADER
9
$INSUNITS
70
4
9
$ACADVER
1
AC1014
9
$HANDSEED
5
FFFF
0
ENDSEC
0
SECTION
2
TABLES
0
TABLE
2
VPORT
5
8
100
AcDbSymbolTable
0
ENDTAB
0
TABLE
2
LTYPE
5
5
100
AcDbSymbolTable
0
LTYPE
5
14
100
AcDbSymbolTableRecord
100
AcDbLinetypeTableRecord
2
BYBLOCK
70
0
0
LTYPE
5
15
100
AcDbSymbolTableRecord
100
AcDbLinetypeTableRecord
2
BYLAYER
70
0
0
ENDTAB
0
TABLE
2
LAYER
5
2
100
AcDbSymbolTable
70
2
0
LAYER
5
50
100
AcDbSymbolTableRecord
100
AcDbLayerTableRecord
2
0
70
0
6
CONTINUOUS
0
ENDTAB
0
TABLE
2
STYLE
5
3
100
AcDbSymbolTable
70
1
0
STYLE
5
11
100
AcDbSymbolTableRecord
100
AcDbTextStyleTableRecord
2
STANDARD
70
0
0
ENDTAB
0
TABLE
2
VIEW
5
6
100
AcDbSymbolTable
70
0
0
ENDTAB
0
TABLE
2
UCS
5
7
100
AcDbSymbolTable
70
0
0
ENDTAB
0
TABLE
2
APPID
5
9
100
AcDbSymbolTable
70
2
0
APPID
5
12
100
AcDbSymbolTableRecord
100
AcDbRegAppTableRecord
2
ACAD
70
0
0
ENDTAB
0
TABLE
2
DIMSTYLE
5
A
100
AcDbSymbolTable
70
1
0
ENDTAB
0
TABLE
2
BLOCK_RECORD
5
1
100
AcDbSymbolTable
70
1
0
BLOCK_RECORD
5
1F
100
AcDbSymbolTableRecord
100
AcDbBlockTableRecord
2
*MODEL_SPACE
0
BLOCK_RECORD
5
1B
100
AcDbSymbolTableRecord
100
AcDbBlockTableRecord
2
*PAPER_SPACE
0
ENDTAB
0
ENDSEC
0
SECTION
2
BLOCKS
0
BLOCK
5
20
100
AcDbEntity
100
AcDbBlockBegin
2
*MODEL_SPACE
0
ENDBLK
5
21
100
AcDbEntity
100
AcDbBlockEnd
0
BLOCK
5
1C
100
AcDbEntity
100
AcDbBlockBegin
2
*PAPER_SPACE
0
ENDBLK
5
1D
100
AcDbEntity
100
AcDbBlockEnd
0
ENDSEC
0
SECTION
2
ENTITIES
0
LINE
5
100
100
AcDbEntity
8
0
100
AcDbLine
10
-99.999998062849031
20
120.00000253319743
30
0
11
-89.999997913837419
21
120.00000253319743
31
0
0
LINE
5
101
100
AcDbEntity
8
0
100
AcDbLine
10
-89.999997913837419
20
120.00000253319743
30
0
11
-89.999997913837419
21
115.00000245869163
31
0
0
LINE
5
102
100
AcDbEntity
8
0
100
AcDbLine
10
-89.999997913837419
20
115.00000245869163
30
0
11
-79.999997764825807
21
115.00000245869163
31
0
0
LINE
5
103
100
AcDbEntity
8
0
100
AcDbLine
10
-79.999997764825807
20
115.00000245869163
30
0
11
-79.999997764825807
21
120.00000253319743
31
0
0
LINE
5
104
100
AcDbEntity
8
0
100
AcDbLine
10
-69.999997913837419
20
120.00000253319743
30
0
11
-69.999997913837419
21
115.00000245869163
31
0
0
LINE
5
105
100
AcDbEntity
8
0
100
AcDbLine
10
-79.999998062849031
20
120.00000253319743
30
0
11
-69.999997913837419
21
120.00000253319743
31
0
0
LINE
5
106
100
AcDbEntity
8
0
100
AcDbLine
10
-59.999997764825807
20
115.00000245869163
30
0
11
-59.999997764825807
21
120.00000253319743
31
0
0
LINE
5
107
100
AcDbEntity
8
0
100
AcDbLine
10
-69.999997913837419
20
115.00000245869163
30
0
11
-59.999997764825807
21
115.00000245869163
31
0
0
LINE
5
108
100
AcDbEntity
8
0
100
AcDbLine
10
-49.999997913837419
20
120.00000253319743
30
0
11
-49.999997913837419
21
115.00000245869163
31
0
0
LINE
5
109
100
AcDbEntity
8
0
100
AcDbLine
10
-59.999998062849031
20
120.00000253319743
30
0
11
-49.999997913837419
21
120.00000253319743
31
0
0
LINE
5
110
100
AcDbEntity
8
0
100
AcDbLine
10
-39.999997764825807
20
115.00000245869163
30
0
11
-39.999997764825807
21
120.00000253319743
31
0
0
LINE
5
111
100
AcDbEntity
8
0
100
AcDbLine
10
-49.999997913837419
20
115.00000245869163
30
0
11
-39.999997764825807
21
115.00000245869163
31
0
0
LINE
5
112
100
AcDbEntity
8
0
100
AcDbLine
10
-29.999997913837415
20
120.00000253319743
30
0
11
-29.999997913837415
21
115.00000245869163
31
0
0
LINE
5
113
100
AcDbEntity
8
0
100
AcDbLine
10
-39.999998062849031
20
120.00000253319743
30
0
11
-29.999997913837415
21
120.00000253319743
31
0
0
LINE
5
114
100
AcDbEntity
8
0
100
AcDbLine
10
-19.999997764825803
20
115.00000245869163
30
0
11
-19.999997764825803
21
120.00000253319743
31
0
0
LINE
5
115
100
AcDbEntity
8
0
100
AcDbLine
10
-29.999997913837415
20
115.00000245869163
30
0
11
-19.999997764825803
21
115.00000245869163
31
0
0
LINE
5
116
100
AcDbEntity
8
0
100
AcDbLine
10
-9.9999979138374151
20
120.00000253319743
30
0
11
-9.9999979138374151
21
115.00000245869163
31
0
0
LINE
5
117
100
AcDbEntity
8
0
100
AcDbLine
10
-19.999998062849027
20
120.00000253319743
30
0
11
-9.9999979138374151
21
120.00000253319743
31
0
0
LINE
5
118
100
AcDbEntity
8
0
100
AcDbLine
10
2.2351741968407168e-06
20
115.00000245869163
30
0
11
2.2351741968407168e-06
21
120.00000253319743
31
0
0
LINE
5
119
100
AcDbEntity
8
0
100
AcDbLine
10
-9.9999979138374151
20
115.00000245869163
30
0
11
2.2351741968407168e-06
21
115.00000245869163
31
0
0
LINE
5
120
100
AcDbEntity
8
0
100
AcDbLine
10
10.000002086162585
20
120.00000253319743
30
0
11
10.000002086162585
21
115.00000245869163
31
0
0
LINE
5
121
100
AcDbEntity
8
0
100
AcDbLine
10
1.9371509729637637e-06
20
120.00000253319743
30
0
11
10.000002086162585
21
120.00000253319743
31
0
0
LINE
5
122
100
AcDbEntity
8
0
100
AcDbLine
10
20.000002235174197
20
115.00000245869163
30
0
11
20.000002235174197
21
120.00000253319743
31
0
0
LINE
5
123
100
AcDbEntity
8
0
100
AcDbLine
10
10.000002086162585
20
115.00000245869163
30
0
11
20.000002235174197
21
115.00000245869163
31
0
0
LINE
5
124
100
AcDbEntity
8
0
100
AcDbLine
10
30.000002086162585
20
120.00000253319743
30
0
11
30.000002086162585
21
115.00000245869163
31
0
0
LINE
5
125
100
AcDbEntity
8
0
100
AcDbLine
10
20.000001937150973
20
120.00000253319743
30
0
11
30.000002086162585
21
120.00000253319743
31
0
0
LINE
5
126
100
AcDbEntity
8
0
100
AcDbLine
10
40.000002235174193
20
115.00000245869163
30
0
11
40.000002235174193
21
120.00000253319743
31
0
0
LINE
5
127
100
AcDbEntity
8
0
100
AcDbLine
10
30.000002086162585
20
115.00000245869163
30
0
11
40.000002235174193
21
115.00000245869163
31
0
0
LINE
5
128
100
AcDbEntity
8
0
100
AcDbLine
10
50.000002086162581
20
120.00000253319743
30
0
11
50.000002086162581
21
115.00000245869163
31
0
0
LINE
5
129
100
AcDbEntity
8
0
100
AcDbLine
10
40.000001937150969
20
120.00000253319743
30
0
11
50.000002086162581
21
120.00000253319743
31
0
0
LINE
5
130
100
AcDbEntity
8
0
100
AcDbLine
10
60.000002235174193
20
115.00000245869163
30
0
11
60.000002235174193
21
120.00000253319743
31
0
0
LINE
5
131
100
AcDbEntity
8
0
100
AcDbLine
10
50.000002086162581
20
115.00000245869163
30
0
11
60.000002235174193
21
115.00000245869163
31
0
0
LINE
5
132
100
AcDbEntity
8
0
100
AcDbLine
10
70.000002086162581
20
120.00000253319743
30
0
11
70.000002086162581
21
115.00000245869163
31
0
0
LINE
5
133
100
AcDbEntity
8
0
100
AcDbLine
10
60.000001937150969
20
120.00000253319743
30
0
11
70.000002086162581
21
120.00000253319743
31
0
0
LINE
5
134
100
AcDbEntity
8
0
100
AcDbLine
10
80.000002235174193
20
115.00000245869163
30
0
11
80.000002235174193
21
120.00000253319743
31
0
0
LINE
5
135
100
AcDbEntity
8
0
100
AcDbLine
10
70.000002086162581
20
115.00000245869163
30
0
11
80.000002235174193
21
115.00000245869163
31
0
0
LINE
5
136
100
AcDbEntity
8
0
100
AcDbLine
10
90.000002086162581
20
120.00000253319743
30
0
11
90.000002086162581
21
115.00000245869163
31
0
0
LINE
5
137
100
AcDbEntity
8
0
100
AcDbLine
10
80.000001937150969
20
120.00000253319743
30
0
11
90.000002086162581
21
120.00000253319743
31
0
0
LINE
5
138
100
AcDbEntity
8
0
100
AcDbLine
10
100.00000223517419
20
115.00000245869163
30
0
11
100.00000223517419
21
120.00000253319743
31
0
0
LINE
5
139
100
AcDbEntity
8
0
100
AcDbLine
10
90.000002086162581
20
115.00000245869163
30
0
11
100.00000223517419
21
115.00000245869163
31
0
0
LINE
5
140
100
AcDbEntity
8
0
100
AcDbLine
10
110.00000208616258
20
120.00000253319743
30
0
11
110.00000208616258
21
115.00000245869163
31
0
0
LINE
5
141
100
AcDbEntity
8
0
100
AcDbLine
10
100.00000193715097
20
120.00000253319743
30
0
11
110.00000208616258
21
120.00000253319743
31
0
0
LINE
5
142
100
AcDbEntity
8
0
100
AcDbLine
10
120.00000223517419
20
115.00000245869163
30
0
11
120.00000223517419
21
120.00000253319743
31
0
0
LINE
5
143
100
AcDbEntity
8
0
100
AcDbLine
10
110.00000208616258
20
115.00000245869163
30
0
11
120.00000223517419
21
115.00000245869163
31
0
0
LINE
5
144
100
AcDbEntity
8
0
100
AcDbLine
10
120.00000223517419
20
120.00000253319743
30
0
11
130.00000536441806
21
120.00000253319743
31
0
0
LINE
5
145
100
AcDbEntity
8
0
100
AcDbLine
10
-99.999998062849031
20
120.00000253319746
30
0
11
-99.999998062849045
21
110.00000238418582
31
1.2246468173960116e-15
0
LINE
5
146
100
AcDbEntity
8
0
100
AcDbLine
10
-99.999998062849045
20
110.00000238418582
30
1.2246468173960116e-15
11
-94.999997988343239
21
110.00000238418582
31
1.2246468173960097e-15
0
LINE
5
147
100
AcDbEntity
8
0
100
AcDbLine
10
-95.000001415610328
20
80.000001192092896
30
2.4492936347920233e-15
11
-100.00000149011613
21
80.000001192092896
31
2.4492936347920252e-15
0
LINE
5
148
100
AcDbEntity
8
0
100
AcDbLine
10
-100.00000149011612
20
80.000001490116134
30
0
11
-100.00000149011613
21
70.000001341104507
31
1.2246468173960116e-15
0
LINE
5
149
100
AcDbEntity
8
0
100
AcDbLine
10
-100.00000149011613
20
70.000001341104507
30
1.2246468173960116e-15
11
-95.000001415610328
21
70.000001341104507
31
1.2246468173960097e-15
0
LINE
5
150
100
AcDbEntity
8
0
100
AcDbLine
10
-95.000001415610328
20
70.000001341104507
30
1.2246468173960097e-15
11
-95.000001415610328
21
60.000001192092896
31
2.4492936347920233e-15
0
LINE
5
151
100
AcDbEntity
8
0
100
AcDbLine
10
-95.000001415610328
20
60.000001192092896
30
2.4492936347920233e-15
11
-100.00000149011613
21
60.000001192092896
31
2.4492936347920252e-15
0
LINE
5
152
100
AcDbEntity
8
0
100
AcDbLine
10
30.000001639127699
20
20.000001266598648
30
0
11
30.000001639127699
21
10.000001192092842
31
0
0
LINE
5
153
100
AcDbEntity
8
0
100
AcDbLine
10
40.000001788139308
20
20.000001266598648
30
0
11
30.000001639127699
21
20.000001266598648
31
0
0
LINE
5
154
100
AcDbEntity
8
0
100
AcDbLine
10
40.000001788139308
20
10.000001192092842
30
0
11
40.000001788139308
21
20.000001266598648
31
0
0
LINE
5
155
100
AcDbEntity
8
0
100
AcDbLine
10
-49.999998360872283
20
15.000001266598657
30
0
11
-49.999998360872283
21
10.000001192092851
31
0
0
LINE
5
156
100
AcDbEntity
8
0
100
AcDbLine
10
-39.999998211860671
20
15.000001266598657
30
0
11
-49.999998360872283
21
15.000001266598657
31
0
0
LINE
5
157
100
AcDbEntity
8
0
100
AcDbLine
10
50.000001639127696
20
15.000001266598648
30
0
11
50.000001639127696
21
10.000001192092842
31
0
0
LINE
5
158
100
AcDbEntity
8
0
100
AcDbLine
10
20.000001788139308
20
10.000001192092842
30
0
11
20.000001788139308
21
20.000001266598648
31
0
0
LINE
5
159
100
AcDbEntity
8
0
100
AcDbLine
10
50.00000193715092
20
10.000001192092842
30
0
11
40.000001788139308
21
10.000001192092842
31
0
0
LINE
5
160
100
AcDbEntity
8
0
100
AcDbLine
10
-79.999998211860671
20
10.000001192092851
30
0
11
-79.999998211860671
21
15.000001266598657
31
0
0
LINE
5
161
100
AcDbEntity
8
0
100
AcDbLine
10
20.000001788139308
20
20.000001266598648
30
0
11
10.000001639127698
21
20.000001266598648
31
0
0
LINE
5
162
100
AcDbEntity
8
0
100
AcDbLine
10
-59.999998211860664
20
15.000001266598657
30
0
11
-69.999998360872283
21
15.000001266598657
31
0
0
LINE
5
163
100
AcDbEntity
8
0
100
AcDbLine
10
-9.9999983608722953
20
20.02858423600426
30
0
11
-9.9999983608722953
21
10.000001192092851
31
0
0
LINE
5
164
100
AcDbEntity
8
0
100
AcDbLine
10
-49.999998062849059
20
10.000001192092851
30
0
11
-59.999998211860664
21
10.000001192092851
31
0
0
LINE
5
165
100
AcDbEntity
8
0
100
AcDbLine
10
-89.999998360872283
20
15.000001266598657
30
0
11
-89.999998360872283
21
10.000001192092851
31
0
0
LINE
5
166
100
AcDbEntity
8
0
100
AcDbLine
10
1.7881393149478582e-06
20
20.028584236004253
30
0
11
-9.9999983608722953
21
20.02858423600426
31
0
0
LINE
5
167
100
AcDbEntity
8
0
100
AcDbLine
10
-89.999998360872283
20
10.000001192092851
30
0
11
-100.00000149011613
21
10.000001192092851
31
0
0
LINE
5
168
100
AcDbEntity
8
0
100
AcDbLine
10
-19.999998211860678
20
10.000001192092851
30
0
11
-19.999998211860678
21
15.000001266598657
31
0
0
LINE
5
169
100
AcDbEntity
8
0
100
AcDbLine
10
-59.999998211860664
20
10.000001192092851
30
0
11
-59.999998211860664
21
15.000001266598657
31
0
0
LINE
5
170
100
AcDbEntity
8
0
100
AcDbLine
10
-69.999998360872283
20
15.000001266598657
30
0
11
-69.999998360872283
21
10.000001192092851
31
0
0
LINE
5
171
100
AcDbEntity
8
0
100
AcDbLine
10
-9.9999980628490714
20
10.000001192092851
30
0
11
-19.999998211860678
21
10.000001192092851
31
0
0
LINE
5
172
100
AcDbEntity
8
0
100
AcDbLine
10
-79.999998211860671
20
15.000001266598657
30
0
11
-89.999998360872283
21
15.000001266598657
31
0
0
LINE
5
173
100
AcDbEntity
8
0
100
AcDbLine
10
-29.999998062849063
20
10.000001192092851
30
0
11
-39.999998211860671
21
10.000001192092851
31
0
0
LINE
5
174
100
AcDbEntity
8
0
100
AcDbLine
10
60.000001788139308
20
15.000001266598648
30
0
11
50.000001639127696
21
15.000001266598648
31
0
0
LINE
5
175
100
AcDbEntity
8
0
100
AcDbLine
10
30.000001937150923
20
10.000001192092842
30
0
11
20.000001788139308
21
10.000001192092842
31
0
0
LINE
5
176
100
AcDbEntity
8
0
100
AcDbLine
10
-69.999998062849059
20
10.000001192092851
30
0
11
-79.999998211860671
21
10.000001192092851
31
0
0
LINE
5
177
100
AcDbEntity
8
0
100
AcDbLine
10
10.000001937150927
20
10.000001192092842
30
0
11
1.7881393160612546e-06
21
10.000001192092842
31
0
0
LINE
5
178
100
AcDbEntity
8
0
100
AcDbLine
10
-39.999998211860671
20
10.000001192092851
30
0
11
-39.999998211860671
21
15.000001266598657
31
0
0
LINE
5
179
100
AcDbEntity
8
0
100
AcDbLine
10
80.000001788139315
20
15.000001266598639
30
0
11
70.000001639127689
21
15.000001266598639
31
0
0
LINE
5
180
100
AcDbEntity
8
0
100
AcDbLine
10
60.000001788139308
20
10.000001192092842
30
0
11
60.000001788139308
21
15.000001266598648
31
0
0
LINE
5
181
100
AcDbEntity
8
0
100
AcDbLine
10
70.000001639127689
20
15.000001266598639
30
0
11
70.000001639127689
21
10.000001192092833
31
0
0
LINE
5
182
100
AcDbEntity
8
0
100
AcDbLine
10
-29.999998360872286
20
15.000001266598657
30
0
11
-29.999998360872286
21
10.000001192092851
31
0
0
LINE
5
183
100
AcDbEntity
8
0
100
AcDbLine
10
70.000001937150913
20
10.000001192092833
30
0
11
60.000001788139308
21
10.000001192092842
31
0
0
LINE
5
184
100
AcDbEntity
8
0
100
AcDbLine
10
90.000001937150898
20
10.000001192092842
30
0
11
80.000001788139315
21
10.000001192092833
31
0
0
LINE
5
185
100
AcDbEntity
8
0
100
AcDbLine
10
1.7881393160612546e-06
20
10.000001192092842
30
0
11
1.7881393149478582e-06
21
20.028584236004253
31
0
0
LINE
5
186
100
AcDbEntity
8
0
100
AcDbLine
10
80.000001788139315
20
10.000001192092833
30
0
11
80.000001788139315
21
15.000001266598639
31
0
0
LINE
5
187
100
AcDbEntity
8
0
100
AcDbLine
10
10.000001639127698
20
20.000001266598648
30
0
11
10.000001639127703
21
10.000001192092842
31
0
0
LINE
5
188
100
AcDbEntity
8
0
100
AcDbLine
10
110.0000019371509
20
10.000001192092842
30
0
11
100.00000178813929
21
10.000001192092842
31
0
0
LINE
5
189
100
AcDbEntity
8
0
100
AcDbLine
10
120.00000178813929
20
10.000001192092842
30
0
11
120.00000178813929
21
15.000001266598648
31
0
0
LINE
5
190
100
AcDbEntity
8
0
100
AcDbLine
10
100.00000178813929
20
15.000001266598648
30
0
11
90.000001639127674
21
15.000001266598648
31
0
0
LINE
5
191
100
AcDbEntity
8
0
100
AcDbLine
10
120.00000178813929
20
15.000001266598648
30
0
11
110.00000163912767
21
15.000001266598648
31
0
0
LINE
5
192
100
AcDbEntity
8
0
100
AcDbLine
10
90.000001639127674
20
15.000001266598648
30
0
11
90.000001639127674
21
10.000001192092842
31
0
0
LINE
5
193
100
AcDbEntity
8
0
100
AcDbLine
10
100.00000178813929
20
10.000001192092842
30
0
11
100.00000178813929
21
15.000001266598648
31
0
0
LINE
5
194
100
AcDbEntity
8
0
100
AcDbLine
10
110.00000163912767
20
15.000001266598648
30
0
11
110.00000163912767
21
10.000001192092842
31
0
0
LINE
5
195
100
AcDbEntity
8
0
100
AcDbLine
10
130.00000193715087
20
10.000001192092842
30
0
11
120.00000178813929
21
10.000001192092842
31
0
0
LINE
5
196
100
AcDbEntity
8
0
100
AcDbLine
10
130.00000193715096
20
110.00000134110451
30
2.4492936347920252e-15
11
130.00000193715096
21
120.00000178813934
31
2.4492936347920252e-15
0
LINE
5
197
100
AcDbEntity
8
0
100
AcDbLine
10
125.00000186264515
20
110.00000134110451
30
2.4492936347920233e-15
11
130.00000193715096
21
110.00000134110451
31
2.4492936347920252e-15
0
LINE
5
198
100
AcDbEntity
8
0
100
AcDbLine
10
129.99999850988385
20
80.000000149011584
30
1.2246468173960116e-15
11
124.99999843537806
21
80.000000149011584
31
1.2246468173960097e-15
0
LINE
5
199
100
AcDbEntity
8
0
100
AcDbLine
10
129.99999850988382
20
69.999999999999943
30
0
11
129.99999850988385
21
80.000000149011584
31
1.2246468173960116e-15
0
LINE
5
200
100
AcDbEntity
8
0
100
AcDbLine
10
124.99999843537805
20
70.000000298023195
30
2.4492936347920233e-15
11
129.99999850988385
21
70.000000298023195
31
2.4492936347920252e-15
0
LINE
5
201
100
AcDbEntity
8
0
100
AcDbLine
10
124.99999843537805
20
60.000000149011576
30
1.2246468173960097e-15
11
124.99999843537805
21
70.000000298023195
31
2.4492936347920233e-15
0
LINE
5
202
100
AcDbEntity
8
0
100
AcDbLine
10
129.99999850988385
20
60.000000149011576
30
1.2246468173960116e-15
11
124.99999843537805
21
60.000000149011576
31
1.2246468173960097e-15
0
LINE
5
203
100
AcDbEntity
8
0
100
AcDbLine
10
-100.00000149011612
20
60.000001490116134
30
0
11
-100.00000149011613
21
50.000001341104507
31
1.2246468173960116e-15
0
LINE
5
204
100
AcDbEntity
8
0
100
AcDbLine
10
-100.00000149011613
20
50.000001341104507
30
1.2246468173960116e-15
11
-95.000001415610328
21
50.000001341104507
31
1.2246468173960097e-15
0
LINE
5
205
100
AcDbEntity
8
0
100
AcDbLine
10
-95.000001415610328
20
50.000001341104507
30
1.2246468173960097e-15
11
-95.000001415610328
21
40.000001192092896
31
2.4492936347920233e-15
0
LINE
5
206
100
AcDbEntity
8
0
100
AcDbLine
10
-95.000001415610328
20
40.000001192092896
30
2.4492936347920233e-15
11
-100.00000149011613
21
40.000001192092896
31
2.4492936347920252e-15
0
LINE
5
207
100
AcDbEntity
8
0
100
AcDbLine
10
-100.00000149011612
20
40.000001490116134
30
0
11
-100.00000149011613
21
30.000001341104507
31
1.2246468173960116e-15
0
LINE
5
208
100
AcDbEntity
8
0
100
AcDbLine
10
124.99999843537805
20
50.000000298023188
30
2.4492936347920233e-15
11
129.99999850988385
21
50.000000298023188
31
2.4492936347920252e-15
0
LINE
5
209
100
AcDbEntity
8
0
100
AcDbLine
10
124.99999843537805
20
40.000000149011576
30
1.2246468173960097e-15
11
124.99999843537805
21
50.000000298023188
31
2.4492936347920233e-15
0
LINE
5
210
100
AcDbEntity
8
0
100
AcDbLine
10
129.99999850988385
20
40.000000149011576
30
1.2246468173960116e-15
11
124.99999843537805
21
40.000000149011576
31
1.2246468173960097e-15
0
LINE
5
211
100
AcDbEntity
8
0
100
AcDbLine
10
129.99999850988385
20
60.000000149011576
30
1.2246468173960116e-15
11
129.99999850988382
21
49.999999999999964
31
0
0
LINE
5
212
100
AcDbEntity
8
0
100
AcDbLine
10
129.99999850988385
20
40.000000149011576
30
1.2246468173960116e-15
11
129.99999850988385
21
30.000000298023188
31
2.4492936347920252e-15
0
LINE
5
213
100
AcDbEntity
8
0
100
AcDbLine
10
125.0000052899122
20
30.000001341104507
30
0
11
130.00000253319737
21
30.000002607703181
31
0
0
LINE
5
214
100
AcDbEntity
8
0
100
AcDbLine
10
130.00000193715087
20
10.000001192092842
30
0
11
130.00000193715087
21
20.000001192092896
31
0
0
LINE
5
215
100
AcDbEntity
8
0
100
AcDbLine
10
130.00000193715087
20
20.000001192092896
30
0
11
125.00000186264508
21
20.000001192092896
31
0
0
LINE
5
216
100
AcDbEntity
8
0
100
AcDbLine
10
125.00000186264508
20
20.000001192092896
30
0
11
125.0000052899122
21
30.000001341104507
31
0
0
LINE
5
217
100
AcDbEntity
8
0
100
AcDbLine
10
-100.00000149011613
20
10.000001192092851
30
0
11
-100.00000149011613
21
20.000001192092896
31
0
0
LINE
5
218
100
AcDbEntity
8
0
100
AcDbLine
10
-100.00000149011613
20
20.000001192092896
30
0
11
-94.999999925494208
21
20.000001192092896
31
0
0
LINE
5
219
100
AcDbEntity
8
0
100
AcDbLine
10
-94.999999925494208
20
20.000001192092896
30
0
11
-94.999999925494208
21
30.000001341104507
31
0
0
LINE
5
220
100
AcDbEntity
8
0
100
AcDbLine
10
-94.999999925494208
20
30.000001341104507
30
0
11
-100.00000149011613
21
30.000001341104507
31
1.2246468173960116e-15
0
LINE
5
221
100
AcDbEntity
8
0
100
AcDbLine
10
-9.9999979138374151
20
120.00000253319743
30
0
11
-9.9999979138374151
21
115.00000245869163
31
0
0
LINE
5
222
100
AcDbEntity
8
0
100
AcDbLine
10
-19.999998062849027
20
120.00000253319743
30
0
11
-9.9999979138374151
21
120.00000253319743
31
0
0
LINE
5
223
100
AcDbEntity
8
0
100
AcDbLine
10
10.000002086162585
20
115.00000245869163
30
0
11
20.000002235174197
21
115.00000245869163
31
0
0
LINE
5
224
100
AcDbEntity
8
0
100
AcDbLine
10
20.000002235174197
20
115.00000245869163
30
0
11
20.000002235174197
21
120.00000253319743
31
0
0
LINE
5
225
100
AcDbEntity
8
0
100
AcDbLine
10
-95.000001415610328
20
60.000001192092896
30
2.4492936347920233e-15
11
-100.00000149011613
21
60.000001192092896
31
2.4492936347920252e-15
0
LINE
5
226
100
AcDbEntity
8
0
100
AcDbLine
10
-95.000001415610328
20
40.000001192092896
30
2.4492936347920233e-15
11
-100.00000149011613
21
40.000001192092896
31
2.4492936347920252e-15
0
LINE
5
227
100
AcDbEntity
8
0
100
AcDbLine
10
-9.9999983608722953
20
15.000001266598657
30
0
11
-9.9999983608722953
21
10.000001192092851
31
0
0
LINE
5
228
100
AcDbEntity
8
0
100
AcDbLine
10
-29.999998062849063
20
10.000001192092851
30
0
11
-39.999998211860671
21
10.000001192092851
31
0
0
LINE
5
229
100
AcDbEntity
8
0
100
AcDbLine
10
50.000001639127696
20
15.000001266598648
30
0
11
50.000001639127696
21
10.000001192092842
31
0
0
LINE
5
230
100
AcDbEntity
8
0
100
AcDbLine
10
-19.999998211860678
20
10.000001192092851
30
0
11
-19.999998211860678
21
15.000001266598657
31
0
0
LINE
5
231
100
AcDbEntity
8
0
100
AcDbLine
10
-69.999998062849059
20
10.000001192092851
30
0
11
-79.999998211860671
21
10.000001192092851
31
0
0
LINE
5
232
100
AcDbEntity
8
0
100
AcDbLine
10
-19.999998211860678
20
15.000001266598657
30
0
11
-29.999998360872286
21
15.000001266598657
31
0
0
LINE
5
233
100
AcDbEntity
8
0
100
AcDbLine
10
-59.999998211860664
20
15.000001266598657
30
0
11
-69.999998360872283
21
15.000001266598657
31
0
0
LINE
5
234
100
AcDbEntity
8
0
100
AcDbLine
10
-29.999998360872286
20
15.000001266598657
30
0
11
-29.999998360872286
21
10.000001192092851
31
0
0
LINE
5
235
100
AcDbEntity
8
0
100
AcDbLine
10
-100.00000149011612
20
60.000001490116134
30
0
11
-100.00000149011613
21
50.000001341104507
31
1.2246468173960116e-15
0
LINE
5
236
100
AcDbEntity
8
0
100
AcDbLine
10
-95.000001415610328
20
50.000001341104507
30
1.2246468173960097e-15
11
-95.000001415610328
21
40.000001192092896
31
2.4492936347920233e-15
0
LINE
5
237
100
AcDbEntity
8
0
100
AcDbLine
10
10.000001639127699
20
15.000001266598648
30
0
11
10.000001639127703
21
10.000001192092842
31
0
0
LINE
5
238
100
AcDbEntity
8
0
100
AcDbLine
10
1.7881393160612546e-06
20
10.000001192092842
30
0
11
1.7881393155061431e-06
21
15.000001266598648
31
0
0
LINE
5
239
100
AcDbEntity
8
0
100
AcDbLine
10
-94.999999925494208
20
30.000001341104507
30
0
11
-100.00000149011613
21
30.000001341104507
31
0
0
LINE
5
240
100
AcDbEntity
8
0
100
AcDbLine
10
-94.999999925494208
20
20.000001192092896
30
0
11
-94.999999925494208
21
30.000001341104507
31
0
0
LINE
5
241
100
AcDbEntity
8
0
100
AcDbLine
10
-79.999998211860671
20
10.000001192092851
30
0
11
-79.999998211860671
21
15.000001266598657
31
0
0
LINE
5
242
100
AcDbEntity
8
0
100
AcDbLine
10
-89.999998360872283
20
15.000001266598657
30
0
11
-89.999998360872283
21
10.000001192092851
31
0
0
LINE
5
243
100
AcDbEntity
8
0
100
AcDbLine
10
30.000001937150923
20
10.000001192092842
30
0
11
20.000001788139308
21
10.000001192092842
31
0
0
LINE
5
244
100
AcDbEntity
8
0
100
AcDbLine
10
-39.999998211860671
20
10.000001192092851
30
0
11
-39.999998211860671
21
15.000001266598657
31
0
0
LINE
5
245
100
AcDbEntity
8
0
100
AcDbLine
10
-100.00000149011613
20
70.000001341104507
30
1.2246468173960116e-15
11
-95.000001415610328
21
70.000001341104507
31
1.2246468173960097e-15
0
LINE
5
246
100
AcDbEntity
8
0
100
AcDbLine
10
-69.999998360872283
20
15.000001266598657
30
0
11
-69.999998360872283
21
10.000001192092851
31
0
0
LINE
5
247
100
AcDbEntity
8
0
100
AcDbLine
10
70.000001937150913
20
10.000001192092833
30
0
11
60.000001788139308
21
10.000001192092842
31
0
0
LINE
5
248
100
AcDbEntity
8
0
100
AcDbLine
10
-95.000001415610328
20
70.000001341104507
30
1.2246468173960097e-15
11
-95.000001415610328
21
60.000001192092896
31
2.4492936347920233e-15
0
LINE
5
249
100
AcDbEntity
8
0
100
AcDbLine
10
-100.00000149011613
20
20.000001192092896
30
0
11
-94.999999925494208
21
20.000001192092896
31
0
0
LINE
5
250
100
AcDbEntity
8
0
100
AcDbLine
10
20.000001788139308
20
10.000001192092842
30
0
11
20.000001788139308
21
15.000001266598648
31
0
0
LINE
5
251
100
AcDbEntity
8
0
100
AcDbLine
10
50.00000193715092
20
10.000001192092842
30
0
11
40.000001788139308
21
10.000001192092842
31
0
0
LINE
5
252
100
AcDbEntity
8
0
100
AcDbLine
10
-89.999998360872283
20
10.000001192092851
30
0
11
-100.00000149011613
21
10.000001192092851
31
0
0
LINE
5
253
100
AcDbEntity
8
0
100
AcDbLine
10
-100.00000149011613
20
10.000001192092851
30
0
11
-100.00000149011613
21
20.000001192092896
31
0
0
LINE
5
254
100
AcDbEntity
8
0
100
AcDbLine
10
-79.999998211860671
20
15.000001266598657
30
0
11
-89.999998360872283
21
15.000001266598657
31
0
0
LINE
5
255
100
AcDbEntity
8
0
100
AcDbLine
10
-9.9999980628490714
20
10.000001192092851
30
0
11
-19.999998211860678
21
10.000001192092851
31
0
0
LINE
5
256
100
AcDbEntity
8
0
100
AcDbLine
10
-59.999998211860664
20
10.000001192092851
30
0
11
-59.999998211860664
21
15.000001266598657
31
0
0
LINE
5
257
100
AcDbEntity
8
0
100
AcDbLine
10
70.000001639127689
20
15.000001266598639
30
0
11
70.000001639127689
21
10.000001192092833
31
0
0
LINE
5
258
100
AcDbEntity
8
0
100
AcDbLine
10
40.000001788139308
20
10.000001192092842
30
0
11
40.000001788139308
21
15.000001266598648
31
0
0
LINE
5
259
100
AcDbEntity
8
0
100
AcDbLine
10
60.000001788139308
20
15.000001266598648
30
0
11
50.000001639127696
21
15.000001266598648
31
0
0
LINE
5
260
100
AcDbEntity
8
0
100
AcDbLine
10
-39.999998211860671
20
15.000001266598657
30
0
11
-49.999998360872283
21
15.000001266598657
31
0
0
LINE
5
261
100
AcDbEntity
8
0
100
AcDbLine
10
-100.00000149011613
20
50.000001341104507
30
1.2246468173960116e-15
11
-95.000001415610328
21
50.000001341104507
31
1.2246468173960097e-15
0
LINE
5
262
100
AcDbEntity
8
0
100
AcDbLine
10
10.000001937150927
20
10.000001192092842
30
0
11
1.7881393160612546e-06
21
10.000001192092842
31
0
0
LINE
5
263
100
AcDbEntity
8
0
100
AcDbLine
10
-49.999998062849059
20
10.000001192092851
30
0
11
-59.999998211860664
21
10.000001192092851
31
0
0
LINE
5
264
100
AcDbEntity
8
0
100
AcDbLine
10
60.000001788139308
20
10.000001192092842
30
0
11
60.000001788139308
21
15.000001266598648
31
0
0
LINE
5
265
100
AcDbEntity
8
0
100
AcDbLine
10
90.000001639127674
20
15.000001266598648
30
0
11
90.000001639127674
21
10.000001192092842
31
0
0
LINE
5
266
100
AcDbEntity
8
0
100
AcDbLine
10
125.00000186264508
20
20.000001192092896
30
0
11
125.0000052899122
21
30.000001341104507
31
0
0
LINE
5
267
100
AcDbEntity
8
0
100
AcDbLine
10
60.000001937150969
20
120.00000253319743
30
0
11
70.000002086162581
21
120.00000253319743
31
0
0
LINE
5
268
100
AcDbEntity
8
0
100
AcDbLine
10
60.000002235174193
20
115.00000245869163
30
0
11
60.000002235174193
21
120.00000253319743
31
0
0
LINE
5
269
100
AcDbEntity
8
0
100
AcDbLine
10
50.000002086162581
20
115.00000245869163
30
0
11
60.000002235174193
21
115.00000245869163
31
0
0
LINE
5
270
100
AcDbEntity
8
0
100
AcDbLine
10
130.00000193715087
20
10.000001192092842
30
0
11
130.00000193715087
21
20.000001192092896
31
0
0
LINE
5
271
100
AcDbEntity
8
0
100
AcDbLine
10
125.0000052899122
20
30.000001341104507
30
0
11
130.00000253319737
21
30.000002607703181
31
0
0
LINE
5
272
100
AcDbEntity
8
0
100
AcDbLine
10
130.00000193715087
20
10.000001192092842
30
0
11
120.00000178813929
21
10.000001192092842
31
0
0
LINE
5
273
100
AcDbEntity
8
0
100
AcDbLine
10
100.00000178813929
20
10.000001192092842
30
0
11
100.00000178813929
21
15.000001266598648
31
0
0
LINE
5
274
100
AcDbEntity
8
0
100
AcDbLine
10
120.00000178813929
20
15.000001266598648
30
0
11
110.00000163912767
21
15.000001266598648
31
0
0
LINE
5
275
100
AcDbEntity
8
0
100
AcDbLine
10
100.00000178813929
20
15.000001266598648
30
0
11
90.000001639127674
21
15.000001266598648
31
0
0
LINE
5
276
100
AcDbEntity
8
0
100
AcDbLine
10
129.99999850988385
20
60.000000149011576
30
1.2246468173960116e-15
11
129.99999850988382
21
49.999999999999964
31
0
0
LINE
5
277
100
AcDbEntity
8
0
100
AcDbLine
10
129.99999850988385
20
60.000000149011576
30
1.2246468173960116e-15
11
124.99999843537805
21
60.000000149011576
31
1.2246468173960097e-15
0
LINE
5
278
100
AcDbEntity
8
0
100
AcDbLine
10
120.00000178813929
20
10.000001192092842
30
0
11
120.00000178813929
21
15.000001266598648
31
0
0
LINE
5
279
100
AcDbEntity
8
0
100
AcDbLine
10
124.99999843537805
20
60.000000149011576
30
1.2246468173960097e-15
11
124.99999843537805
21
70.000000298023195
31
2.4492936347920233e-15
0
LINE
5
280
100
AcDbEntity
8
0
100
AcDbLine
10
124.99999843537805
20
70.000000298023195
30
2.4492936347920233e-15
11
129.99999850988385
21
70.000000298023195
31
2.4492936347920252e-15
0
LINE
5
281
100
AcDbEntity
8
0
100
AcDbLine
10
80.000001788139315
20
10.000001192092833
30
0
11
80.000001788139315
21
15.000001266598639
31
0
0
LINE
5
282
100
AcDbEntity
8
0
100
AcDbLine
10
110.0000019371509
20
10.000001192092842
30
0
11
100.00000178813929
21
10.000001192092842
31
0
0
LINE
5
283
100
AcDbEntity
8
0
100
AcDbLine
10
129.99999850988382
20
69.999999999999943
30
0
11
129.99999850988385
21
80.000000149011584
31
1.2246468173960116e-15
0
LINE
5
284
100
AcDbEntity
8
0
100
AcDbLine
10
90.000001937150898
20
10.000001192092842
30
0
11
80.000001788139315
21
10.000001192092833
31
0
0
LINE
5
285
100
AcDbEntity
8
0
100
AcDbLine
10
129.99999850988385
20
80.000000149011584
30
1.2246468173960116e-15
11
124.99999843537806
21
80.000000149011584
31
1.2246468173960097e-15
0
LINE
5
286
100
AcDbEntity
8
0
100
AcDbLine
10
20.000001937150973
20
120.00000253319743
30
0
11
30.000002086162585
21
120.00000253319743
31
0
0
LINE
5
287
100
AcDbEntity
8
0
100
AcDbLine
10
40.000001937150969
20
120.00000253319743
30
0
11
50.000002086162581
21
120.00000253319743
31
0
0
LINE
5
288
100
AcDbEntity
8
0
100
AcDbLine
10
40.000002235174193
20
115.00000245869163
30
0
11
40.000002235174193
21
120.00000253319743
31
0
0
LINE
5
289
100
AcDbEntity
8
0
100
AcDbLine
10
50.000002086162581
20
120.00000253319743
30
0
11
50.000002086162581
21
115.00000245869163
31
0
0
LINE
5
290
100
AcDbEntity
8
0
100
AcDbLine
10
70.000002086162581
20
120.00000253319743
30
0
11
70.000002086162581
21
115.00000245869163
31
0
0
LINE
5
291
100
AcDbEntity
8
0
100
AcDbLine
10
130.00000193715087
20
20.000001192092896
30
0
11
125.00000186264508
21
20.000001192092896
31
0
0
LINE
5
292
100
AcDbEntity
8
0
100
AcDbLine
10
129.99999850988385
20
40.000000149011576
30
1.2246468173960116e-15
11
129.99999850988385
21
30.000000298023188
31
2.4492936347920252e-15
0
LINE
5
293
100
AcDbEntity
8
0
100
AcDbLine
10
30.000002086162585
20
115.00000245869163
30
0
11
40.000002235174193
21
115.00000245869163
31
0
0
LINE
5
294
100
AcDbEntity
8
0
100
AcDbLine
10
129.99999850988385
20
40.000000149011576
30
1.2246468173960116e-15
11
124.99999843537805
21
40.000000149011576
31
1.2246468173960097e-15
0
LINE
5
295
100
AcDbEntity
8
0
100
AcDbLine
10
124.99999843537805
20
40.000000149011576
30
1.2246468173960097e-15
11
124.99999843537805
21
50.000000298023188
31
2.4492936347920233e-15
0
LINE
5
296
100
AcDbEntity
8
0
100
AcDbLine
10
124.99999843537805
20
50.000000298023188
30
2.4492936347920233e-15
11
129.99999850988385
21
50.000000298023188
31
2.4492936347920252e-15
0
LINE
5
297
100
AcDbEntity
8
0
100
AcDbLine
10
110.00000163912767
20
15.000001266598648
30
0
11
110.00000163912767
21
10.000001192092842
31
0
0
LINE
5
298
100
AcDbEntity
8
0
100
AcDbLine
10
120.00000223517419
20
120.00000253319743
30
0
11
130.00000536441806
21
120.00000253319743
31
0
0
LINE
5
299
100
AcDbEntity
8
0
100
AcDbLine
10
100.00000193715097
20
120.00000253319743
30
0
11
110.00000208616258
21
120.00000253319743
31
0
0
LINE
5
300
100
AcDbEntity
8
0
100
AcDbLine
10
120.00000223517419
20
115.00000245869163
30
0
11
120.00000223517419
21
120.00000253319743
31
0
0
LINE
5
301
100
AcDbEntity
8
0
100
AcDbLine
10
-89.999997913837419
20
120.00000253319743
30
0
11
-89.999997913837419
21
115.00000245869163
31
0
0
LINE
5
302
100
AcDbEntity
8
0
100
AcDbLine
10
-99.999998062849031
20
120.00000253319743
30
0
11
-89.999997913837419
21
120.00000253319743
31
0
0
LINE
5
303
100
AcDbEntity
8
0
100
AcDbLine
10
-79.999998062849031
20
120.00000253319743
30
0
11
-69.999997913837419
21
120.00000253319743
31
0
0
LINE
5
304
100
AcDbEntity
8
0
100
AcDbLine
10
80.000001937150969
20
120.00000253319743
30
0
11
90.000002086162581
21
120.00000253319743
31
0
0
LINE
5
305
100
AcDbEntity
8
0
100
AcDbLine
10
110.00000208616258
20
120.00000253319743
30
0
11
110.00000208616258
21
115.00000245869163
31
0
0
LINE
5
306
100
AcDbEntity
8
0
100
AcDbLine
10
90.000002086162581
20
115.00000245869163
30
0
11
100.00000223517419
21
115.00000245869163
31
0
0
LINE
5
307
100
AcDbEntity
8
0
100
AcDbLine
10
-49.999997913837419
20
120.00000253319743
30
0
11
-49.999997913837419
21
115.00000245869163
31
0
0
LINE
5
308
100
AcDbEntity
8
0
100
AcDbLine
10
80.000001788139315
20
15.000001266598639
30
0
11
70.000001639127689
21
15.000001266598639
31
0
0
LINE
5
309
100
AcDbEntity
8
0
100
AcDbLine
10
-89.999997913837419
20
115.00000245869163
30
0
11
-79.999997764825807
21
115.00000245869163
31
0
0
LINE
5
310
100
AcDbEntity
8
0
100
AcDbLine
10
-79.999997764825807
20
115.00000245869163
30
0
11
-79.999997764825807
21
120.00000253319743
31
0
0
LINE
5
311
100
AcDbEntity
8
0
100
AcDbLine
10
110.00000208616258
20
115.00000245869163
30
0
11
120.00000223517419
21
115.00000245869163
31
0
0
LINE
5
312
100
AcDbEntity
8
0
100
AcDbLine
10
-39.999998062849031
20
120.00000253319743
30
0
11
-29.999997913837415
21
120.00000253319743
31
0
0
LINE
5
313
100
AcDbEntity
8
0
100
AcDbLine
10
-69.999997913837419
20
115.00000245869163
30
0
11
-59.999997764825807
21
115.00000245869163
31
0
0
LINE
5
314
100
AcDbEntity
8
0
100
AcDbLine
10
100.00000223517419
20
115.00000245869163
30
0
11
100.00000223517419
21
120.00000253319743
31
0
0
LINE
5
315
100
AcDbEntity
8
0
100
AcDbLine
10
-29.999997913837415
20
120.00000253319743
30
0
11
-29.999997913837415
21
115.00000245869163
31
0
0
LINE
5
316
100
AcDbEntity
8
0
100
AcDbLine
10
-69.999997913837419
20
120.00000253319743
30
0
11
-69.999997913837419
21
115.00000245869163
31
0
0
LINE
5
317
100
AcDbEntity
8
0
100
AcDbLine
10
-29.999997913837415
20
115.00000245869163
30
0
11
-19.999997764825803
21
115.00000245869163
31
0
0
LINE
5
318
100
AcDbEntity
8
0
100
AcDbLine
10
-99.999998062849031
20
120.00000253319746
30
0
11
-99.999998062849045
21
110.00000238418582
31
1.2246468173960116e-15
0
LINE
5
319
100
AcDbEntity
8
0
100
AcDbLine
10
-99.999998062849045
20
110.00000238418582
30
1.2246468173960116e-15
11
-94.999997988343239
21
110.00000238418582
31
1.2246468173960097e-15
0
LINE
5
320
100
AcDbEntity
8
0
100
AcDbLine
10
-49.999998360872283
20
15.000001266598657
30
0
11
-49.999998360872283
21
10.000001192092851
31
0
0
LINE
5
321
100
AcDbEntity
8
0
100
AcDbLine
10
70.000002086162581
20
115.00000245869163
30
0
11
80.000002235174193
21
115.00000245869163
31
0
0
LINE
5
322
100
AcDbEntity
8
0
100
AcDbLine
10
80.000002235174193
20
115.00000245869163
30
0
11
80.000002235174193
21
120.00000253319743
31
0
0
LINE
5
323
100
AcDbEntity
8
0
100
AcDbLine
10
-100.00000149011612
20
40.000001490116134
30
0
11
-100.00000149011613
21
30.000001341104507
31
1.2246468173960116e-15
0
LINE
5
324
100
AcDbEntity
8
0
100
AcDbLine
10
30.000001639127699
20
15.000001266598648
30
0
11
30.000001639127699
21
10.000001192092842
31
0
0
LINE
5
325
100
AcDbEntity
8
0
100
AcDbLine
10
-59.999998062849031
20
120.00000253319743
30
0
11
-49.999997913837419
21
120.00000253319743
31
0
0
LINE
5
326
100
AcDbEntity
8
0
100
AcDbLine
10
-49.999997913837419
20
115.00000245869163
30
0
11
-39.999997764825807
21
115.00000245869163
31
0
0
LINE
5
327
100
AcDbEntity
8
0
100
AcDbLine
10
-59.999997764825807
20
115.00000245869163
30
0
11
-59.999997764825807
21
120.00000253319743
31
0
0
LINE
5
328
100
AcDbEntity
8
0
100
AcDbLine
10
-39.999997764825807
20
115.00000245869163
30
0
11
-39.999997764825807
21
120.00000253319743
31
0
0
LINE
5
329
100
AcDbEntity
8
0
100
AcDbLine
10
90.000002086162581
20
120.00000253319743
30
0
11
90.000002086162581
21
115.00000245869163
31
0
0
LINE
5
330
100
AcDbEntity
8
0
100
AcDbLine
10
-95.000001415610328
20
80.000001192092896
30
2.4492936347920233e-15
11
-100.00000149011613
21
80.000001192092896
31
2.4492936347920252e-15
0
LINE
5
331
100
AcDbEntity
8
0
100
AcDbLine
10
-100.00000149011612
20
80.000001490116134
30
0
11
-100.00000149011613
21
70.000001341104507
31
1.2246468173960116e-15
0
LINE
5
332
100
AcDbEntity
8
0
100
AcDbLine
10
-19.999997764825803
20
115.00000245869163
30
0
11
-19.999997764825803
21
120.00000253319743
31
0
0
LINE
5
333
100
AcDbEntity
8
0
100
AcDbLine
10
130.00000193715096
20
110.00000134110451
30
2.4492936347920252e-15
11
130.00000193715096
21
120.00000178813934
31
2.4492936347920252e-15
0
LINE
5
334
100
AcDbEntity
8
0
100
AcDbLine
10
125.00000186264515
20
110.00000134110451
30
2.4492936347920233e-15
11
130.00000193715096
21
110.00000134110451
31
2.4492936347920252e-15
0
LINE
5
335
100
AcDbEntity
8
0
100
AcDbLine
10
2.2351741968407168e-06
20
115.00000245869163
30
0
11
2.2351741968407168e-06
21
120.00000253319743
31
0
0
LINE
5
336
100
AcDbEntity
8
0
100
AcDbLine
10
-9.9999979138374151
20
115.00000245869163
30
0
11
2.2351741968407168e-06
21
115.00000245869163
31
0
0
LINE
5
337
100
AcDbEntity
8
0
100
AcDbLine
10
10.000002086162585
20
120.00000253319743
30
0
11
10.000002086162585
21
115.00000245869163
31
0
0
LINE
5
338
100
AcDbEntity
8
0
100
AcDbLine
10
1.9371509729637637e-06
20
120.00000253319743
30
0
11
10.000002086162585
21
120.00000253319743
31
0
0
LINE
5
339
100
AcDbEntity
8
0
100
AcDbLine
10
30.000002086162585
20
120.00000253319743
30
0
11
30.000002086162585
21
115.00000245869163
31
0
0
LINE
5
340
100
AcDbEntity
8
0
100
AcDbLine
10
-95.000001415610328
20
80.000001192092896
30
2.4492936347920233e-15
11
-95.000001415610328
21
90.000001341104507
31
2.4492936347920233e-15
0
LINE
5
341
100
AcDbEntity
8
0
100
AcDbLine
10
-95.000001415610328
20
90.000001341104507
30
2.4492936347920233e-15
11
-100.00000149011612
21
90.000001341104507
31
2.4492936347920233e-15
0
LINE
5
342
100
AcDbEntity
8
0
100
AcDbLine
10
-100.00000149011612
20
90.000001341104507
30
2.4492936347920233e-15
11
-100.00000149011612
21
100.00000149011612
31
2.4492936347920233e-15
0
LINE
5
343
100
AcDbEntity
8
0
100
AcDbLine
10
-100.00000149011612
20
100.00000149011612
30
2.4492936347920233e-15
11
-95.000001415610328
21
100.00000149011612
31
2.4492936347920233e-15
0
LINE
5
344
100
AcDbEntity
8
0
100
AcDbLine
10
-95.000001415610328
20
100.00000149011612
30
2.4492936347920233e-15
11
-94.999997988343239
21
110.00000238418582
31
1.2246468173960097e-15
0
LINE
5
345
100
AcDbEntity
8
0
100
AcDbLine
10
124.99999843537806
20
80.000000149011584
30
1.2246468173960097e-15
11
124.99999843537806
21
90.000001341104507
31
1.2246468173960097e-15
0
LINE
5
346
100
AcDbEntity
8
0
100
AcDbLine
10
124.99999843537806
20
90.000001341104507
30
1.2246468173960097e-15
11
129.99999850988385
21
90.000001341104507
31
1.2246468173960097e-15
0
LINE
5
347
100
AcDbEntity
8
0
100
AcDbLine
10
129.99999850988385
20
90.000001341104507
30
1.2246468173960097e-15
11
129.99999850988385
21
100.00000149011612
31
1.2246468173960097e-15
0
LINE
5
348
100
AcDbEntity
8
0
100
AcDbLine
10
129.99999850988385
20
100.00000149011612
30
1.2246468173960097e-15
11
124.99999843537806
21
100.00000149011612
31
1.2246468173960097e-15
0
LINE
5
349
100
AcDbEntity
8
0
100
AcDbLine
10
124.99999843537806
20
100.00000149011612
30
1.2246468173960097e-15
11
125.00000186264515
21
110.00000134110451
31
2.4492936347920233e-15
0
LWPOLYLINE
5
350
100
AcDbEntity
8
0
100
AcDbPolyline
90
4
70
1
43
0.0
10
25.000003799796069
20
30.000001341104507
10
5.000003501772845
20
30.000001341104507
10
5.000003501772845
20
40.000001490116119
10
25.000003799796069
20
40.000001490116119
0
LWPOLYLINE
5
351
100
AcDbEntity
8
0
100
AcDbPolyline
90
4
70
1
43
0.0
10
-80.000001192092896
20
35.000000521540642
10
-90.000001341104507
20
35.000000521540642
10
-90.000001341104507
20
40.000000596046448
10
-80.000001192092896
20
40.000000596046448
0
LWPOLYLINE
5
352
100
AcDbEntity
8
0
100
AcDbPolyline
90
4
70
1
43
0.0
10
-60.000001341104507
20
35.000000521540642
10
-60.000001341104507
20
40.000000596046448
10
-50.000001192092896
20
40.000000596046448
10
-50.000001192092896
20
35.000000521540642
0
LWPOLYLINE
5
353
100
AcDbEntity
8
0
100
AcDbPolyline
90
4
70
1
43
0.0
10
-45.000001341104507
20
55.00000074505806
10
-40.000001266598701
20
55.00000074505806
10
-40.000001266598701
20
45.000000596046448
10
-45.000001341104507
20
45.000000596046448
0
LWPOLYLINE
5
354
100
AcDbEntity
8
0
100
AcDbPolyline
90
4
70
1
43
0.0
10
-40.000001266598701
20
110.00000074505806
10
-40.000001266598701
20
100.00000059604645
10
-45.000001341104507
20
100.00000059604645
10
-45.000001341104507
20
110.00000074505806
0
LWPOLYLINE
5
355
100
AcDbEntity
8
0
100
AcDbPolyline
90
4
70
1
43
0.0
10
-40.00000062584877
20
90.000001311302185
10
-45.000000700354576
20
90.000001311302185
10
-45.000000700354576
20
65.000000938773155
10
-40.00000062584877
20
65.000000938773155
0
ENDSEC
0
SECTION
2
OBJECTS
0
DICTIONARY
5
C
100
AcDbDictionary
3
ACAD_GROUP
350
D
3
ACAD_MLINESTYLE
350
17
0
DICTIONARY
5
D
100
AcDbDictionary
0
DICTIONARY
5
1A
330
C
100
AcDbDictionary
0
DICTIONARY
5
17
100
AcDbDictionary
0
ENDSEC
0
EOF
