0
SECTION
2
HEADER
9
$INSUNITS
70
4
9
$ACADVER
1
AC1014
9
$HANDSEED
5
FFFF
0
ENDSEC
0
SECTION
2
TABLES
0
TABLE
2
VPORT
5
8
100
AcDbSymbolTable
0
ENDTAB
0
TABLE
2
LTYPE
5
5
100
AcDbSymbolTable
0
LTYPE
5
14
100
AcDbSymbolTableRecord
100
AcDbLinetypeTableRecord
2
BYBLOCK
70
0
0
LTYPE
5
15
100
AcDbSymbolTableRecord
100
AcDbLinetypeTableRecord
2
BYLAYER
70
0
0
ENDTAB
0
TABLE
2
LAYER
5
2
100
AcDbSymbolTable
70
2
0
LAYER
5
50
100
AcDbSymbolTableRecord
100
AcDbLayerTableRecord
2
0
70
0
6
CONTINUOUS
0
ENDTAB
0
TABLE
2
STYLE
5
3
100
AcDbSymbolTable
70
1
0
STYLE
5
11
100
AcDbSymbolTableRecord
100
AcDbTextStyleTableRecord
2
STANDARD
70
0
0
ENDTAB
0
TABLE
2
VIEW
5
6
100
AcDbSymbolTable
70
0
0
ENDTAB
0
TABLE
2
UCS
5
7
100
AcDbSymbolTable
70
0
0
ENDTAB
0
TABLE
2
APPID
5
9
100
AcDbSymbolTable
70
2
0
APPID
5
12
100
AcDbSymbolTableRecord
100
AcDbRegAppTableRecord
2
ACAD
70
0
0
ENDTAB
0
TABLE
2
DIMSTYLE
5
A
100
AcDbSymbolTable
70
1
0
ENDTAB
0
TABLE
2
BLOCK_RECORD
5
1
100
AcDbSymbolTable
70
1
0
BLOCK_RECORD
5
1F
100
AcDbSymbolTableRecord
100
AcDbBlockTableRecord
2
*MODEL_SPACE
0
BLOCK_RECORD
5
1B
100
AcDbSymbolTableRecord
100
AcDbBlockTableRecord
2
*PAPER_SPACE
0
ENDTAB
0
ENDSEC
0
SECTION
2
BLOCKS
0
BLOCK
5
20
100
AcDbEntity
100
AcDbBlockBegin
2
*MODEL_SPACE
0
ENDBLK
5
21
100
AcDbEntity
100
AcDbBlockEnd
0
BLOCK
5
1C
100
AcDbEntity
100
AcDbBlockBegin
2
*PAPER_SPACE
0
ENDBLK
5
1D
100
AcDbEntity
100
AcDbBlockEnd
0
ENDSEC
0
SECTION
2
ENTITIES
0
LINE
5
100
100
AcDbEntity
8
0
100
AcDbLine
10
-29.999997764825821
20
5.0000020861627803
30
0
11
-19.999997615814209
21
5.0000020861627803
31
0
0
LINE
5
101
100
AcDbEntity
8
0
100
AcDbLine
10
-39.999997913837433
20
2.0116569743322543e-06
30
0
11
-29.999997764825821
21
2.0116569743322543e-06
31
0
0
LINE
5
102
100
AcDbEntity
8
0
100
AcDbLine
10
-39.999997615814209
20
5.0000020861627803
30
0
11
-39.999997615814209
21
2.0116569743322543e-06
31
0
0
LINE
5
103
100
AcDbEntity
8
0
100
AcDbLine
10
60.000002086162638
20
-29.999998435378004
30
6.1232340869800779e-16
11
70.000002235174321
21
-29.999998435378004
31
6.1232340869800779e-16
0
LINE
5
104
100
AcDbEntity
8
0
100
AcDbLine
10
-94.999994859099317
20
-19.999998286366392
30
0
11
-99.999994933605123
21
-19.999998286366392
31
0
0
LINE
5
105
100
AcDbEntity
8
0
100
AcDbLine
10
-49.99999776482575
20
-34.99999850988381
30
0
11
-39.999997615814138
21
-34.99999850988381
31
0
0
LINE
5
106
100
AcDbEntity
8
0
100
AcDbLine
10
-99.999994933605123
20
-9.9999981373547797
30
0
11
-99.999994933605123
21
2.0116569032779807e-06
31
0
0
LINE
5
107
100
AcDbEntity
8
0
100
AcDbLine
10
-29.999997764825821
20
2.0116569743322543e-06
30
0
11
-29.999997764825821
21
5.0000020861627803
31
0
0
LINE
5
108
100
AcDbEntity
8
0
100
AcDbLine
10
-19.999997913837433
20
2.0116569743322543e-06
30
0
11
-9.9999977648258209
21
2.0116569743322543e-06
31
0
0
LINE
5
109
100
AcDbEntity
8
0
100
AcDbLine
10
2.0861625671386719e-06
20
2.0116569743322543e-06
30
0
11
10.000002235174179
21
2.0116569743322543e-06
31
0
0
LINE
5
110
100
AcDbEntity
8
0
100
AcDbLine
10
-19.999997615814209
20
5.0000020861627803
30
0
11
-19.999997615814209
21
2.0116569743322543e-06
31
0
0
LINE
5
111
100
AcDbEntity
8
0
100
AcDbLine
10
-49.99999776482575
20
-29.999998435378021
30
6.1232340869800779e-16
11
-49.99999776482575
21
-34.99999850988381
31
0
0
LINE
5
112
100
AcDbEntity
8
0
100
AcDbLine
10
-49.999997764825821
20
5.0000020861627803
30
0
11
-39.999997615814209
21
5.0000020861627803
31
0
0
LINE
5
113
100
AcDbEntity
8
0
100
AcDbLine
10
-9.9999977648257499
20
-29.999998435378021
30
6.1232340869800779e-16
11
-9.9999977648257499
21
-34.99999850988381
31
0
0
LINE
5
114
100
AcDbEntity
8
0
100
AcDbLine
10
-99.999994933605123
20
2.0116569032779807e-06
30
0
11
-94.999997839331627
21
2.0116569032779807e-06
31
0
0
LINE
5
115
100
AcDbEntity
8
0
100
AcDbLine
10
-49.999997764825821
20
2.0116569743322543e-06
30
0
11
-49.999997764825821
21
5.0000020861627803
31
0
0
LINE
5
116
100
AcDbEntity
8
0
100
AcDbLine
10
-59.999997615814209
20
5.0000020861627803
30
0
11
-59.999997615814209
21
2.0116569743322543e-06
31
0
0
LINE
5
117
100
AcDbEntity
8
0
100
AcDbLine
10
-99.999994933605123
20
-29.999998435378021
30
0
11
-94.999997839331556
21
-29.999998435378021
31
0
0
LINE
5
118
100
AcDbEntity
8
0
100
AcDbLine
10
-59.999997913837362
20
-29.999998435378021
30
6.1232340869800779e-16
11
-49.99999776482575
21
-29.999998435378021
31
6.1232340869800779e-16
0
LINE
5
119
100
AcDbEntity
8
0
100
AcDbLine
10
-94.999994859099317
20
-9.9999981373547797
30
0
11
-94.999994859099317
21
-19.999998286366392
31
0
0
LINE
5
120
100
AcDbEntity
8
0
100
AcDbLine
10
-99.999994933605123
20
-9.9999981373547797
30
0
11
-94.999994859099317
21
-9.9999981373547797
31
0
0
LINE
5
121
100
AcDbEntity
8
0
100
AcDbLine
10
-89.999997764825679
20
-34.99999850988381
30
0
11
-79.999997615814067
21
-34.99999850988381
31
0
0
LINE
5
122
100
AcDbEntity
8
0
100
AcDbLine
10
-69.999997764825679
20
-29.999998435378004
30
6.1232340869800779e-16
11
-69.999997764825679
21
-34.999998509883795
31
0
0
LINE
5
123
100
AcDbEntity
8
0
100
AcDbLine
10
-69.999997764825679
20
5.0000020861627803
30
0
11
-59.999997615814209
21
5.0000020861627803
31
0
0
LINE
5
124
100
AcDbEntity
8
0
100
AcDbLine
10
-79.999997913837291
20
2.0116569743322543e-06
30
0
11
-69.999997764825679
21
2.0116569743322543e-06
31
0
0
LINE
5
125
100
AcDbEntity
8
0
100
AcDbLine
10
-89.999997764825679
20
2.0116569743322543e-06
30
0
11
-89.999997764825679
21
5.0000020861627803
31
0
0
LINE
5
126
100
AcDbEntity
8
0
100
AcDbLine
10
-39.999997615814138
20
-34.99999850988381
30
0
11
-39.999997615814138
21
-29.999997764825821
31
0
0
LINE
5
127
100
AcDbEntity
8
0
100
AcDbLine
10
-29.99999776482575
20
-34.99999850988381
30
0
11
-19.999997615814138
21
-34.99999850988381
31
0
0
LINE
5
128
100
AcDbEntity
8
0
100
AcDbLine
10
10.00000223517425
20
-34.999998509883795
30
0
11
20.000002384185862
21
-34.999998509883795
31
0
0
LINE
5
129
100
AcDbEntity
8
0
100
AcDbLine
10
-94.999997839331556
20
-29.999998435378021
30
0
11
-89.999997764825679
21
-29.999998435378021
31
6.1232340869800779e-16
0
LINE
5
130
100
AcDbEntity
8
0
100
AcDbLine
10
-69.999997764825679
20
-34.999998509883795
30
0
11
-59.999997615814138
21
-34.99999850988381
31
0
0
LINE
5
131
100
AcDbEntity
8
0
100
AcDbLine
10
-89.999997764825679
20
5.0000020861627803
30
0
11
-79.999997615814067
21
5.0000020861627803
31
0
0
LINE
5
132
100
AcDbEntity
8
0
100
AcDbLine
10
-19.999997615814138
20
-34.99999850988381
30
0
11
-19.999997615814138
21
-29.999998435378021
31
6.1232340869800779e-16
0
LINE
5
133
100
AcDbEntity
8
0
100
AcDbLine
10
2.0861626381929455e-06
20
-29.999998435378021
30
6.1232340869800779e-16
11
10.00000223517425
21
-29.999998435378004
31
6.1232340869800779e-16
0
LINE
5
134
100
AcDbEntity
8
0
100
AcDbLine
10
10.00000223517425
20
-29.999998435378004
30
6.1232340869800779e-16
11
10.00000223517425
21
-34.999998509883795
31
0
0
LINE
5
135
100
AcDbEntity
8
0
100
AcDbLine
10
-59.999997615814138
20
-34.99999850988381
30
0
11
-59.999997615814138
21
-29.999998435378021
31
6.1232340869800779e-16
0
LINE
5
136
100
AcDbEntity
8
0
100
AcDbLine
10
-79.999997913837291
20
-29.999998435378021
30
6.1232340869800779e-16
11
-69.999997764825679
21
-29.999998435378004
31
6.1232340869800779e-16
0
LINE
5
137
100
AcDbEntity
8
0
100
AcDbLine
10
-19.999997913837362
20
-29.999998435378021
30
6.1232340869800779e-16
11
-9.9999977648257499
21
-29.999998435378021
31
6.1232340869800779e-16
0
LINE
5
138
100
AcDbEntity
8
0
100
AcDbLine
10
2.3841858620698986e-06
20
-34.99999850988381
30
0
11
2.3841858620698986e-06
21
-29.999998435378021
31
6.1232340869800779e-16
0
LINE
5
139
100
AcDbEntity
8
0
100
AcDbLine
10
-94.999997839331627
20
2.0116569032779807e-06
30
0
11
-89.999997764825679
21
2.0116569743322543e-06
31
0
0
LINE
5
140
100
AcDbEntity
8
0
100
AcDbLine
10
-69.999997764825679
20
2.0116569743322543e-06
30
0
11
-69.999997764825679
21
5.0000020861627803
31
0
0
LINE
5
141
100
AcDbEntity
8
0
100
AcDbLine
10
-79.999997615814067
20
-34.99999850988381
30
0
11
-79.999997615814067
21
-29.999998435378021
31
6.1232340869800779e-16
0
LINE
5
142
100
AcDbEntity
8
0
100
AcDbLine
10
-9.9999977648257499
20
-34.99999850988381
30
0
11
2.3841858620698986e-06
21
-34.99999850988381
31
0
0
LINE
5
143
100
AcDbEntity
8
0
100
AcDbLine
10
-99.999994933605123
20
-19.999998286366392
30
0
11
-99.999994933605123
21
-29.999998435378021
31
0
0
LINE
5
144
100
AcDbEntity
8
0
100
AcDbLine
10
-89.999997764825679
20
-29.999998435378021
30
6.1232340869800779e-16
11
-89.999997764825679
21
-34.99999850988381
31
0
0
LINE
5
145
100
AcDbEntity
8
0
100
AcDbLine
10
10.000002235174179
20
2.0116569743322543e-06
30
0
11
10.000002235174179
21
5.0000020861627803
31
0
0
LINE
5
146
100
AcDbEntity
8
0
100
AcDbLine
10
-79.999997615814067
20
5.0000020861627803
30
0
11
-79.999997615814067
21
2.0116569743322543e-06
31
0
0
LINE
5
147
100
AcDbEntity
8
0
100
AcDbLine
10
-29.99999776482575
20
-29.999998435378021
30
6.1232340869800779e-16
11
-29.99999776482575
21
-34.99999850988381
31
0
0
LINE
5
148
100
AcDbEntity
8
0
100
AcDbLine
10
-59.999997913837433
20
2.0116569743322543e-06
30
0
11
-49.999997764825821
21
2.0116569743322543e-06
31
0
0
LINE
5
149
100
AcDbEntity
8
0
100
AcDbLine
10
-39.999997615814138
20
-29.999997764825821
30
0
11
-29.99999776482575
21
-29.999998435378021
31
6.1232340869800779e-16
0
LINE
5
150
100
AcDbEntity
8
0
100
AcDbLine
10
10.000002235174179
20
5.0000020861627803
30
0
11
20.000002384185791
21
5.0000020861627803
31
0
0
LINE
5
151
100
AcDbEntity
8
0
100
AcDbLine
10
-9.9999977648258209
20
2.0116569743322543e-06
30
0
11
-9.9999977648258209
21
5.0000020861627803
31
0
0
LINE
5
152
100
AcDbEntity
8
0
100
AcDbLine
10
2.384185791015625e-06
20
5.0000020861627803
30
0
11
2.384185791015625e-06
21
2.0116569743322543e-06
31
0
0
LINE
5
153
100
AcDbEntity
8
0
100
AcDbLine
10
-9.9999977648258209
20
5.0000020861627803
30
0
11
2.384185791015625e-06
21
5.0000020861627803
31
0
0
LINE
5
154
100
AcDbEntity
8
0
100
AcDbLine
10
80.000002086162709
20
-29.999998435378004
30
6.1232340869800779e-16
11
90.000002235174321
21
-29.999998435377986
31
6.1232340869800779e-16
0
LINE
5
155
100
AcDbEntity
8
0
100
AcDbLine
10
110.00000223517411
20
5.0000020861628514
30
0
11
120.00000238418572
21
5.0000020861628514
31
0
0
LINE
5
156
100
AcDbEntity
8
0
100
AcDbLine
10
120.00000238418572
20
5.0000020861628514
30
0
11
120.00000238418572
21
2.0116570453865279e-06
31
0
0
LINE
5
157
100
AcDbEntity
8
0
100
AcDbLine
10
110.00000223517411
20
2.0116570453865279e-06
30
0
11
110.00000223517411
21
5.0000020861628514
31
0
0
LINE
5
158
100
AcDbEntity
8
0
100
AcDbLine
10
30.00000223517425
20
-29.999998435378004
30
6.1232340869800779e-16
11
30.00000223517425
21
-34.999998509883795
31
0
0
LINE
5
159
100
AcDbEntity
8
0
100
AcDbLine
10
50.000002235174179
20
5.0000020861628514
30
0
11
60.000002384185791
21
5.0000020861628514
31
0
0
LINE
5
160
100
AcDbEntity
8
0
100
AcDbLine
10
50.00000223517425
20
-34.999998509883795
30
0
11
60.000002384185862
21
-34.999998509883795
31
0
0
LINE
5
161
100
AcDbEntity
8
0
100
AcDbLine
10
60.000002384185862
20
-34.999998509883795
30
0
11
60.000002384185862
21
-29.999998435378004
31
6.1232340869800779e-16
0
LINE
5
162
100
AcDbEntity
8
0
100
AcDbLine
10
40.000002384185862
20
-34.999998509883795
30
0
11
40.000002384185862
21
-29.999998435378004
31
6.1232340869800779e-16
0
LINE
5
163
100
AcDbEntity
8
0
100
AcDbLine
10
20.000002086162638
20
-29.999998435378004
30
6.1232340869800779e-16
11
30.00000223517425
21
-29.999998435378004
31
6.1232340869800779e-16
0
LINE
5
164
100
AcDbEntity
8
0
100
AcDbLine
10
70.000002235174321
20
-34.999998509883795
30
0
11
80.000002384185933
21
-34.999998509883795
31
0
0
LINE
5
165
100
AcDbEntity
8
0
100
AcDbLine
10
20.000002384185862
20
-34.999998509883795
30
0
11
20.000002384185862
21
-29.999998435378004
31
6.1232340869800779e-16
0
LINE
5
166
100
AcDbEntity
8
0
100
AcDbLine
10
70.000002235174321
20
-29.999998435378004
30
6.1232340869800779e-16
11
70.000002235174321
21
-34.999998509883795
31
0
0
LINE
5
167
100
AcDbEntity
8
0
100
AcDbLine
10
50.00000223517425
20
-29.999998435378004
30
6.1232340869800779e-16
11
50.00000223517425
21
-34.999998509883795
31
0
0
LINE
5
168
100
AcDbEntity
8
0
100
AcDbLine
10
40.000002086162638
20
-29.999998435378004
30
6.1232340869800779e-16
11
50.00000223517425
21
-29.999998435378004
31
6.1232340869800779e-16
0
LINE
5
169
100
AcDbEntity
8
0
100
AcDbLine
10
30.00000223517425
20
-34.999998509883795
30
0
11
40.000002384185862
21
-34.999998509883795
31
0
0
LINE
5
170
100
AcDbEntity
8
0
100
AcDbLine
10
70.000002235174179
20
5.0000020861628514
30
0
11
80.000002384185791
21
5.0000020861628514
31
0
0
LINE
5
171
100
AcDbEntity
8
0
100
AcDbLine
10
60.000002086162567
20
2.0116570453865279e-06
30
0
11
70.000002235174179
21
2.0116570453865279e-06
31
0
0
LINE
5
172
100
AcDbEntity
8
0
100
AcDbLine
10
50.000002235174179
20
2.0116570453865279e-06
30
0
11
50.000002235174179
21
5.0000020861628514
31
0
0
LINE
5
173
100
AcDbEntity
8
0
100
AcDbLine
10
60.000002384185791
20
5.0000020861628514
30
0
11
60.000002384185791
21
2.0116570453865279e-06
31
0
0
LINE
5
174
100
AcDbEntity
8
0
100
AcDbLine
10
70.000002235174179
20
2.0116570453865279e-06
30
0
11
70.000002235174179
21
5.0000020861628514
31
0
0
LINE
5
175
100
AcDbEntity
8
0
100
AcDbLine
10
30.000002235174179
20
2.0116569743322543e-06
30
0
11
30.000002235174179
21
5.0000020861627803
31
0
0
LINE
5
176
100
AcDbEntity
8
0
100
AcDbLine
10
20.000002086162567
20
2.0116569743322543e-06
30
0
11
30.000002235174179
21
2.0116569743322543e-06
31
0
0
LINE
5
177
100
AcDbEntity
8
0
100
AcDbLine
10
30.000002235174179
20
5.0000020861627803
30
0
11
40.000002384185791
21
5.0000020861627803
31
0
0
LINE
5
178
100
AcDbEntity
8
0
100
AcDbLine
10
40.000002086162567
20
2.0116569743322543e-06
30
0
11
50.000002235174179
21
2.0116570453865279e-06
31
0
0
LINE
5
179
100
AcDbEntity
8
0
100
AcDbLine
10
20.000002384185791
20
5.0000020861627803
30
0
11
20.000002384185791
21
2.0116569743322543e-06
31
0
0
LINE
5
180
100
AcDbEntity
8
0
100
AcDbLine
10
40.000002384185791
20
5.0000020861627803
30
0
11
40.000002384185791
21
2.0116569743322543e-06
31
0
0
LINE
5
181
100
AcDbEntity
8
0
100
AcDbLine
10
130.00000849366202
20
-29.999998435377986
30
6.1232340869800779e-16
11
125.00000543892398
21
-29.999998435377986
31
6.1232340869800779e-16
0
LINE
5
182
100
AcDbEntity
8
0
100
AcDbLine
10
130.00000849366202
20
-9.9999981373547797
30
6.1232340869800779e-16
11
130.00000849366202
21
2.0116568322237072e-06
31
6.1232340869800779e-16
0
LINE
5
183
100
AcDbEntity
8
0
100
AcDbLine
10
125.00000394880765
20
2.0116570453865279e-06
30
0
11
120.00000238418572
21
2.0116570453865279e-06
31
0
0
LINE
5
184
100
AcDbEntity
8
0
100
AcDbLine
10
125.0000069290401
20
-19.999998286366392
30
6.1232340869800779e-16
11
125.0000069290401
21
-9.9999981373547797
31
6.1232340869800779e-16
0
LINE
5
185
100
AcDbEntity
8
0
100
AcDbLine
10
130.00000849366202
20
-19.999998286366392
30
6.1232340869800779e-16
11
125.0000069290401
21
-19.999998286366392
31
6.1232340869800779e-16
0
LINE
5
186
100
AcDbEntity
8
0
100
AcDbLine
10
125.00000394880779
20
-29.999998435378004
30
6.1232340869800779e-16
11
120.00000238418586
21
-29.999998435378004
31
6.1232340869800779e-16
0
LINE
5
187
100
AcDbEntity
8
0
100
AcDbLine
10
100.00000208616264
20
-29.999998435378004
30
6.1232340869800779e-16
11
110.00000223517425
21
-29.999998435378004
31
6.1232340869800779e-16
0
LINE
5
188
100
AcDbEntity
8
0
100
AcDbLine
10
130.00000849366202
20
2.0116568322237072e-06
30
6.1232340869800779e-16
11
125.0000069290401
21
2.0116568322237072e-06
31
6.1232340869800779e-16
0
LINE
5
189
100
AcDbEntity
8
0
100
AcDbLine
10
125.0000069290401
20
-9.9999981373547797
30
6.1232340869800779e-16
11
130.00000849366202
21
-9.9999981373547797
31
6.1232340869800779e-16
0
LINE
5
190
100
AcDbEntity
8
0
100
AcDbLine
10
130.00000849366202
20
-19.999998286366392
30
6.1232340869800779e-16
11
130.00000849366202
21
-29.999998435377986
31
6.1232340869800779e-16
0
LINE
5
191
100
AcDbEntity
8
0
100
AcDbLine
10
80.000002086162567
20
2.0116570453865279e-06
30
0
11
90.000002235174179
21
2.0116570453865279e-06
31
0
0
LINE
5
192
100
AcDbEntity
8
0
100
AcDbLine
10
120.00000238418586
20
-34.999998509883795
30
0
11
120.00000238418586
21
-29.999998435378004
31
6.1232340869800779e-16
0
LINE
5
193
100
AcDbEntity
8
0
100
AcDbLine
10
90.000002235174179
20
5.0000020861628514
30
0
11
100.00000238418572
21
5.0000020861628514
31
0
0
LINE
5
194
100
AcDbEntity
8
0
100
AcDbLine
10
90.000002235174321
20
-29.999998435377986
30
6.1232340869800779e-16
11
90.000002235174321
21
-34.999998509883774
31
0
0
LINE
5
195
100
AcDbEntity
8
0
100
AcDbLine
10
80.000002384185791
20
5.0000020861628514
30
0
11
80.000002384185791
21
2.0116570453865279e-06
31
0
0
LINE
5
196
100
AcDbEntity
8
0
100
AcDbLine
10
90.000002235174321
20
-34.999998509883774
30
0
11
100.00000238418586
21
-34.999998509883795
31
0
0
LINE
5
197
100
AcDbEntity
8
0
100
AcDbLine
10
110.00000223517425
20
-34.999998509883795
30
0
11
120.00000238418586
21
-34.999998509883795
31
0
0
LINE
5
198
100
AcDbEntity
8
0
100
AcDbLine
10
100.00000238418572
20
5.0000020861628514
30
0
11
100.00000238418572
21
2.0116570453865279e-06
31
0
0
LINE
5
199
100
AcDbEntity
8
0
100
AcDbLine
10
80.000002384185933
20
-34.999998509883795
30
0
11
80.000002384185933
21
-29.999998435378004
31
6.1232340869800779e-16
0
LINE
5
200
100
AcDbEntity
8
0
100
AcDbLine
10
100.00000238418586
20
-34.999998509883795
30
0
11
100.00000238418586
21
-29.999998435378004
31
6.1232340869800779e-16
0
LINE
5
201
100
AcDbEntity
8
0
100
AcDbLine
10
100.0000020861625
20
2.0116570453865279e-06
30
0
11
110.00000223517411
21
2.0116570453865279e-06
31
0
0
LINE
5
202
100
AcDbEntity
8
0
100
AcDbLine
10
110.00000223517425
20
-29.999998435378004
30
6.1232340869800779e-16
11
110.00000223517425
21
-34.999998509883795
31
0
0
LINE
5
203
100
AcDbEntity
8
0
100
AcDbLine
10
90.000002235174179
20
2.0116570453865279e-06
30
0
11
90.000002235174179
21
5.0000020861628514
31
0
0
CIRCLE
5
204
100
AcDbEntity
8
0
100
AcDbCircle
10
-45.000000894069672
20
-19.000000223517418
30
0
40
4
0
CIRCLE
5
205
100
AcDbEntity
8
0
100
AcDbCircle
10
105.00000163912775
20
-19.000000238418583
30
0
40
7.9999999999999929
0
CIRCLE
5
206
100
AcDbEntity
8
0
100
AcDbCircle
10
75.000001296401038
20
-19.000000223517421
30
0
40
7.499999999999992
0
CIRCLE
5
207
100
AcDbEntity
8
0
100
AcDbCircle
10
105.00000160932544
20
-4.4999997541308465
30
0
40
2.4999999999999938
0
CIRCLE
5
208
100
AcDbEntity
8
0
100
AcDbCircle
10
-75.000001102685928
20
-19.000000268220973
30
0
40
7.5
0
CIRCLE
5
209
100
AcDbEntity
8
0
100
AcDbCircle
10
-74.988230490806615
20
-4.5205122296245737
30
0
40
2.4999999999999938
0
CIRCLE
5
210
100
AcDbEntity
8
0
100
AcDbCircle
10
-45.000000894069672
20
-19.000000223517418
30
0
40
5.5
0
ENDSEC
0
SECTION
2
OBJECTS
0
DICTIONARY
5
C
100
AcDbDictionary
3
ACAD_GROUP
350
D
3
ACAD_MLINESTYLE
350
17
0
DICTIONARY
5
D
100
AcDbDictionary
0
DICTIONARY
5
1A
330
C
100
AcDbDictionary
0
DICTIONARY
5
17
100
AcDbDictionary
0
ENDSEC
0
EOF
