0
SECTION
2
HEADER
9
$INSUNITS
70
4
9
$ACADVER
1
AC1014
9
$HANDSEED
5
FFFF
0
ENDSEC
0
SECTION
2
TABLES
0
TABLE
2
VPORT
5
8
100
AcDbSymbolTable
0
ENDTAB
0
TABLE
2
LTYPE
5
5
100
AcDbSymbolTable
0
LTYPE
5
14
100
AcDbSymbolTableRecord
100
AcDbLinetypeTableRecord
2
BYBLOCK
70
0
0
LTYPE
5
15
100
AcDbSymbolTableRecord
100
AcDbLinetypeTableRecord
2
BYLAYER
70
0
0
ENDTAB
0
TABLE
2
LAYER
5
2
100
AcDbSymbolTable
70
2
0
LAYER
5
50
100
AcDbSymbolTableRecord
100
AcDbLayerTableRecord
2
0
70
0
6
CONTINUOUS
0
ENDTAB
0
TABLE
2
STYLE
5
3
100
AcDbSymbolTable
70
1
0
STYLE
5
11
100
AcDbSymbolTableRecord
100
AcDbTextStyleTableRecord
2
STANDARD
70
0
0
ENDTAB
0
TABLE
2
VIEW
5
6
100
AcDbSymbolTable
70
0
0
ENDTAB
0
TABLE
2
UCS
5
7
100
AcDbSymbolTable
70
0
0
ENDTAB
0
TABLE
2
APPID
5
9
100
AcDbSymbolTable
70
2
0
APPID
5
12
100
AcDbSymbolTableRecord
100
AcDbRegAppTableRecord
2
ACAD
70
0
0
ENDTAB
0
TABLE
2
DIMSTYLE
5
A
100
AcDbSymbolTable
70
1
0
ENDTAB
0
TABLE
2
BLOCK_RECORD
5
1
100
AcDbSymbolTable
70
1
0
BLOCK_RECORD
5
1F
100
AcDbSymbolTableRecord
100
AcDbBlockTableRecord
2
*MODEL_SPACE
0
BLOCK_RECORD
5
1B
100
AcDbSymbolTableRecord
100
AcDbBlockTableRecord
2
*PAPER_SPACE
0
ENDTAB
0
ENDSEC
0
SECTION
2
BLOCKS
0
BLOCK
5
20
100
AcDbEntity
100
AcDbBlockBegin
2
*MODEL_SPACE
0
ENDBLK
5
21
100
AcDbEntity
100
AcDbBlockEnd
0
BLOCK
5
1C
100
AcDbEntity
100
AcDbBlockBegin
2
*PAPER_SPACE
0
ENDBLK
5
1D
100
AcDbEntity
100
AcDbBlockEnd
0
ENDSEC
0
SECTION
2
ENTITIES
0
LINE
5
100
100
AcDbEntity
8
0
100
AcDbLine
10
40.000002086162567
20
5.0000020861627803
30
4.2862637878914068e-15
11
30.000001937150955
21
5.0000020861627803
31
3.061616970495394e-15
0
LINE
5
101
100
AcDbEntity
8
0
100
AcDbLine
10
50.000002235174179
20
2.0116569743322543e-06
30
5.5109106052874185e-15
11
40.000002086162567
21
2.0116569743322543e-06
31
4.2862637878914068e-15
0
LINE
5
102
100
AcDbEntity
8
0
100
AcDbLine
10
50.000001937150955
20
5.0000020861627803
30
5.5109105687901005e-15
11
50.000001937150955
21
2.0116569743322543e-06
31
5.5109105687901005e-15
0
LINE
5
103
100
AcDbEntity
8
0
100
AcDbLine
10
-49.999997764825892
20
-29.999998435378004
30
-7.3478807948841294e-15
11
-59.999997913837575
21
-29.999998435378004
31
-8.5725276122801513e-15
0
LINE
5
104
100
AcDbEntity
8
0
100
AcDbLine
10
104.99999918043606
20
-19.999998286366392
30
1.2246467626500337e-14
11
109.99999925494187
21
-19.999998286366392
31
1.2858791035198344e-14
0
LINE
5
105
100
AcDbEntity
8
0
100
AcDbLine
10
60.000002086162496
20
-34.99999850988381
30
6.7355573861861043e-15
11
50.000001937150884
21
-34.99999850988381
31
5.510910568790091e-15
0
LINE
5
106
100
AcDbEntity
8
0
100
AcDbLine
10
109.99999925494187
20
-9.9999981373547797
30
1.2858791035198344e-14
11
109.99999925494187
21
2.0116569032779807e-06
31
1.2858791035198344e-14
0
LINE
5
107
100
AcDbEntity
8
0
100
AcDbLine
10
40.000002086162567
20
2.0116569743322543e-06
30
4.2862637878914068e-15
11
40.000002086162567
21
5.0000020861627803
31
4.2862637878914068e-15
0
LINE
5
108
100
AcDbEntity
8
0
100
AcDbLine
10
30.000002235174179
20
2.0116569743322543e-06
30
3.0616170069927127e-15
11
20.000002086162567
21
2.0116569743322543e-06
31
1.8369701895966999e-15
0
LINE
5
109
100
AcDbEntity
8
0
100
AcDbLine
10
10.000002235174179
20
2.0116569743322543e-06
30
6.1232340869800621e-16
11
2.0861625671386719e-06
21
2.0116569743322543e-06
31
-6.1232340869800641e-16
0
LINE
5
110
100
AcDbEntity
8
0
100
AcDbLine
10
30.000001937150955
20
5.0000020861627803
30
3.061616970495394e-15
11
30.000001937150955
21
2.0116569743322543e-06
31
3.061616970495394e-15
0
LINE
5
111
100
AcDbEntity
8
0
100
AcDbLine
10
60.000002086162496
20
-29.999998435378021
30
6.1232339774880965e-15
11
60.000002086162496
21
-34.99999850988381
31
6.7355573861861043e-15
0
LINE
5
112
100
AcDbEntity
8
0
100
AcDbLine
10
60.000002086162567
20
5.0000020861627803
30
6.7355573861861129e-15
11
50.000001937150955
21
5.0000020861627803
31
5.5109105687901005e-15
0
LINE
5
113
100
AcDbEntity
8
0
100
AcDbLine
10
20.000002086162496
20
-29.999998435378021
30
1.2246467808986834e-15
11
20.000002086162496
21
-34.99999850988381
31
1.8369701895966912e-15
0
LINE
5
114
100
AcDbEntity
8
0
100
AcDbLine
10
109.99999925494187
20
2.0116569032779807e-06
30
1.2858791035198344e-14
11
105.00000216066837
21
2.0116569032779807e-06
31
1.2246467991473532e-14
0
LINE
5
115
100
AcDbEntity
8
0
100
AcDbLine
10
60.000002086162567
20
2.0116569743322543e-06
30
6.7355573861861129e-15
11
60.000002086162567
21
5.0000020861627803
31
6.7355573861861129e-15
0
LINE
5
116
100
AcDbEntity
8
0
100
AcDbLine
10
70.000001937150955
20
5.0000020861627803
30
7.9602041670848066e-15
11
70.000001937150955
21
2.0116569743322543e-06
31
7.9602041670848066e-15
0
LINE
5
117
100
AcDbEntity
8
0
100
AcDbLine
10
109.99999925494187
20
-29.999998435378021
30
1.2858791035198344e-14
11
105.0000021606683
21
-29.999998435378021
31
1.2246467991473524e-14
0
LINE
5
118
100
AcDbEntity
8
0
100
AcDbLine
10
70.000002235174108
20
-29.999998435378021
30
7.3478807948841089e-15
11
60.000002086162496
21
-29.999998435378021
31
6.1232339774880965e-15
0
LINE
5
119
100
AcDbEntity
8
0
100
AcDbLine
10
104.99999918043606
20
-9.9999981373547797
30
1.2246467626500337e-14
11
104.99999918043606
21
-19.999998286366392
31
1.2246467626500337e-14
0
LINE
5
120
100
AcDbEntity
8
0
100
AcDbLine
10
109.99999925494187
20
-9.9999981373547797
30
1.2858791035198344e-14
11
104.99999918043606
21
-9.9999981373547797
31
1.2246467626500337e-14
0
LINE
5
121
100
AcDbEntity
8
0
100
AcDbLine
10
100.00000208616243
20
-34.99999850988381
30
1.1634144582775509e-14
11
90.000001937150813
21
-34.99999850988381
31
1.0409497765379497e-14
0
LINE
5
122
100
AcDbEntity
8
0
100
AcDbLine
10
80.000002086162425
20
-29.999998435378004
30
8.5725275757827947e-15
11
80.000002086162425
21
-34.999998509883795
31
9.1848509844808017e-15
0
LINE
5
123
100
AcDbEntity
8
0
100
AcDbLine
10
80.000002086162425
20
5.0000020861627803
30
9.1848509844808017e-15
11
70.000001937150955
21
5.0000020861627803
31
7.9602041670848066e-15
0
LINE
5
124
100
AcDbEntity
8
0
100
AcDbLine
10
90.000002235174037
20
2.0116569743322543e-06
30
1.0409497801876816e-14
11
80.000002086162425
21
2.0116569743322543e-06
31
9.1848509844808017e-15
0
LINE
5
125
100
AcDbEntity
8
0
100
AcDbLine
10
100.00000208616243
20
2.0116569743322543e-06
30
1.1634144582775509e-14
11
100.00000208616243
21
5.0000020861627803
31
1.1634144582775509e-14
0
LINE
5
126
100
AcDbEntity
8
0
100
AcDbLine
10
50.000001937150884
20
-34.99999850988381
30
5.510910568790091e-15
11
50.000001937150884
21
-29.999997764825821
31
5.510910568790091e-15
0
LINE
5
127
100
AcDbEntity
8
0
100
AcDbLine
10
40.000002086162496
20
-34.99999850988381
30
4.2862637878913973e-15
11
30.000001937150884
21
-34.99999850988381
31
3.0616169704953849e-15
0
LINE
5
128
100
AcDbEntity
8
0
100
AcDbLine
10
2.0861624960843983e-06
20
-34.999998509883795
30
-6.1232340869801509e-16
11
-9.9999980628491159
21
-34.999998509883795
31
-1.8369702260940277e-15
0
LINE
5
129
100
AcDbEntity
8
0
100
AcDbLine
10
105.0000021606683
20
-29.999998435378021
30
1.2246467991473524e-14
11
100.00000208616243
21
-29.999998435378021
31
1.1021821174077501e-14
0
LINE
5
130
100
AcDbEntity
8
0
100
AcDbLine
10
80.000002086162425
20
-34.999998509883795
30
9.1848509844808017e-15
11
70.000001937150884
21
-34.99999850988381
31
7.9602041670847987e-15
0
LINE
5
131
100
AcDbEntity
8
0
100
AcDbLine
10
100.00000208616243
20
5.0000020861627803
30
1.1634144582775509e-14
11
90.000001937150813
21
5.0000020861627803
31
1.0409497765379497e-14
0
LINE
5
132
100
AcDbEntity
8
0
100
AcDbLine
10
30.000001937150884
20
-34.99999850988381
30
3.0616169704953849e-15
11
30.000001937150884
21
-29.999998435378021
31
2.4492935617973771e-15
0
LINE
5
133
100
AcDbEntity
8
0
100
AcDbLine
10
10.000002235174108
20
-29.999998435378021
30
-1.0230539864584997e-29
11
2.0861624960843983e-06
21
-29.999998435378004
31
-1.2246468173960231e-15
0
LINE
5
134
100
AcDbEntity
8
0
100
AcDbLine
10
2.0861624960843983e-06
20
-29.999998435378004
30
-1.2246468173960231e-15
11
2.0861624960843983e-06
21
-34.999998509883795
31
-6.1232340869801509e-16
0
LINE
5
135
100
AcDbEntity
8
0
100
AcDbLine
10
70.000001937150884
20
-34.99999850988381
30
7.9602041670847987e-15
11
70.000001937150884
21
-29.999998435378021
31
7.3478807583867902e-15
0
LINE
5
136
100
AcDbEntity
8
0
100
AcDbLine
10
90.000002235174037
20
-29.999998435378021
30
9.7971743931788087e-15
11
80.000002086162425
21
-29.999998435378004
31
8.5725275757827947e-15
0
LINE
5
137
100
AcDbEntity
8
0
100
AcDbLine
10
30.000002235174108
20
-29.999998435378021
30
2.4492935982946959e-15
11
20.000002086162496
21
-29.999998435378021
31
1.2246467808986834e-15
0
LINE
5
138
100
AcDbEntity
8
0
100
AcDbLine
10
10.000001937150884
20
-34.99999850988381
30
6.123233722006788e-16
11
10.000001937150884
21
-29.999998435378021
31
-3.64973289399857e-23
0
LINE
5
139
100
AcDbEntity
8
0
100
AcDbLine
10
105.00000216066837
20
2.0116569032779807e-06
30
1.2246467991473532e-14
11
100.00000208616243
21
2.0116569743322543e-06
31
1.1634144582775509e-14
0
LINE
5
140
100
AcDbEntity
8
0
100
AcDbLine
10
80.000002086162425
20
2.0116569743322543e-06
30
9.1848509844808017e-15
11
80.000002086162425
21
5.0000020861627803
31
9.1848509844808017e-15
0
LINE
5
141
100
AcDbEntity
8
0
100
AcDbLine
10
90.000001937150813
20
-34.99999850988381
30
1.0409497765379497e-14
11
90.000001937150813
21
-29.999998435378021
31
9.79717435668149e-15
0
LINE
5
142
100
AcDbEntity
8
0
100
AcDbLine
10
20.000002086162496
20
-34.99999850988381
30
1.8369701895966912e-15
11
10.000001937150884
21
-34.99999850988381
31
6.123233722006788e-16
0
LINE
5
143
100
AcDbEntity
8
0
100
AcDbLine
10
109.99999925494187
20
-19.999998286366392
30
1.2858791035198344e-14
11
109.99999925494187
21
-29.999998435378021
31
1.2858791035198344e-14
0
LINE
5
144
100
AcDbEntity
8
0
100
AcDbLine
10
100.00000208616243
20
-29.999998435378021
30
1.1021821174077501e-14
11
100.00000208616243
21
-34.99999850988381
31
1.1634144582775509e-14
0
LINE
5
145
100
AcDbEntity
8
0
100
AcDbLine
10
2.0861625671386719e-06
20
2.0116569743322543e-06
30
-6.1232340869800641e-16
11
2.0861625671386719e-06
21
5.0000020861627803
31
-6.1232340869800641e-16
0
LINE
5
146
100
AcDbEntity
8
0
100
AcDbLine
10
90.000001937150813
20
5.0000020861627803
30
1.0409497765379497e-14
11
90.000001937150813
21
2.0116569743322543e-06
31
1.0409497765379497e-14
0
LINE
5
147
100
AcDbEntity
8
0
100
AcDbLine
10
40.000002086162496
20
-29.999998435378021
30
3.6739403791933896e-15
11
40.000002086162496
21
-34.99999850988381
31
4.2862637878913973e-15
0
LINE
5
148
100
AcDbEntity
8
0
100
AcDbLine
10
70.000002235174179
20
2.0116569743322543e-06
30
7.9602042035821254e-15
11
60.000002086162567
21
2.0116569743322543e-06
31
6.7355573861861129e-15
0
LINE
5
149
100
AcDbEntity
8
0
100
AcDbLine
10
50.000001937150884
20
-29.999997764825821
30
5.510910568790091e-15
11
40.000002086162496
21
-29.999998435378021
31
3.6739403791933896e-15
0
LINE
5
150
100
AcDbEntity
8
0
100
AcDbLine
10
2.0861625671386719e-06
20
5.0000020861627803
30
-6.1232340869800641e-16
11
-9.9999980628490448
21
5.0000020861627803
31
-1.836970226094019e-15
0
LINE
5
151
100
AcDbEntity
8
0
100
AcDbLine
10
20.000002086162567
20
2.0116569743322543e-06
30
1.8369701895966999e-15
11
20.000002086162567
21
5.0000020861627803
31
1.8369701895966999e-15
0
LINE
5
152
100
AcDbEntity
8
0
100
AcDbLine
10
10.000001937150955
20
5.0000020861627803
30
6.1232337220068748e-16
11
10.000001937150955
21
2.0116569743322543e-06
31
6.1232337220068748e-16
0
LINE
5
153
100
AcDbEntity
8
0
100
AcDbLine
10
20.000002086162567
20
5.0000020861627803
30
1.8369701895966999e-15
11
10.000001937150955
21
5.0000020861627803
31
6.1232337220068748e-16
0
LINE
5
154
100
AcDbEntity
8
0
100
AcDbLine
10
-69.999997764825963
20
-29.999998435378004
30
-9.7971743931788434e-15
11
-79.999997913837575
21
-29.999998435377986
31
-1.1021821210574857e-14
0
LINE
5
155
100
AcDbEntity
8
0
100
AcDbLine
10
-99.999997913837362
20
5.0000020861628514
30
-1.2858791400171528e-14
11
-109.99999806284897
21
5.0000020861628514
31
-1.4083438217567542e-14
0
LINE
5
156
100
AcDbEntity
8
0
100
AcDbLine
10
-109.99999806284897
20
5.0000020861628514
30
-1.4083438217567542e-14
11
-109.99999806284897
21
2.0116570453865279e-06
31
-1.4083438217567542e-14
0
LINE
5
157
100
AcDbEntity
8
0
100
AcDbLine
10
-99.999997913837362
20
2.0116570453865279e-06
30
-1.2858791400171528e-14
11
-99.999997913837362
21
5.0000020861628514
31
-1.2858791400171528e-14
0
LINE
5
158
100
AcDbEntity
8
0
100
AcDbLine
10
-19.999997913837504
20
-29.999998435378004
30
-3.6739404156907296e-15
11
-19.999997913837504
21
-34.999998509883795
31
-3.0616170069927218e-15
0
LINE
5
159
100
AcDbEntity
8
0
100
AcDbLine
10
-39.999997913837433
20
5.0000020861628514
30
-5.5109106052874192e-15
11
-49.999998062849045
21
5.0000020861628514
31
-6.7355574226834325e-15
0
LINE
5
160
100
AcDbEntity
8
0
100
AcDbLine
10
-39.999997913837504
20
-34.999998509883795
30
-5.5109106052874271e-15
11
-49.999998062849116
21
-34.999998509883795
31
-6.7355574226834403e-15
0
LINE
5
161
100
AcDbEntity
8
0
100
AcDbLine
10
-49.999998062849116
20
-34.999998509883795
30
-6.7355574226834403e-15
11
-49.999998062849116
21
-29.999998435378004
31
-7.3478808313814481e-15
0
LINE
5
162
100
AcDbEntity
8
0
100
AcDbLine
10
-29.999998062849116
20
-34.999998509883795
30
-4.2862638243887342e-15
11
-29.999998062849116
21
-29.999998435378004
31
-4.898587233086742e-15
0
LINE
5
163
100
AcDbEntity
8
0
100
AcDbLine
10
-9.999997764825892
20
-29.999998435378004
30
-2.4492935982947168e-15
11
-19.999997913837504
21
-29.999998435378004
31
-3.6739404156907296e-15
0
LINE
5
164
100
AcDbEntity
8
0
100
AcDbLine
10
-59.999997913837575
20
-34.999998509883795
30
-7.9602042035821427e-15
11
-69.999998062849187
21
-34.999998509883795
31
-9.1848510209781536e-15
0
LINE
5
165
100
AcDbEntity
8
0
100
AcDbLine
10
-9.9999980628491159
20
-34.999998509883795
30
-1.8369702260940277e-15
11
-9.9999980628491159
21
-29.999998435378004
31
-2.4492936347920355e-15
0
LINE
5
166
100
AcDbEntity
8
0
100
AcDbLine
10
-59.999997913837575
20
-29.999998435378004
30
-8.5725276122801513e-15
11
-59.999997913837575
21
-34.999998509883795
31
-7.9602042035821427e-15
0
LINE
5
167
100
AcDbEntity
8
0
100
AcDbLine
10
-39.999997913837504
20
-29.999998435378004
30
-6.1232340139854357e-15
11
-39.999997913837504
21
-34.999998509883795
31
-5.5109106052874271e-15
0
LINE
5
168
100
AcDbEntity
8
0
100
AcDbLine
10
-29.999997764825892
20
-29.999998435378004
30
-4.8985871965894233e-15
11
-39.999997913837504
21
-29.999998435378004
31
-6.1232340139854357e-15
0
LINE
5
169
100
AcDbEntity
8
0
100
AcDbLine
10
-19.999997913837504
20
-34.999998509883795
30
-3.0616170069927218e-15
11
-29.999998062849116
21
-34.999998509883795
31
-4.2862638243887342e-15
0
LINE
5
170
100
AcDbEntity
8
0
100
AcDbLine
10
-59.999997913837433
20
5.0000020861628514
30
-7.9602042035821254e-15
11
-69.999998062849045
21
5.0000020861628514
31
-9.1848510209781378e-15
0
LINE
5
171
100
AcDbEntity
8
0
100
AcDbLine
10
-49.999997764825821
20
2.0116570453865279e-06
30
-6.7355573861861129e-15
11
-59.999997913837433
21
2.0116570453865279e-06
31
-7.9602042035821254e-15
0
LINE
5
172
100
AcDbEntity
8
0
100
AcDbLine
10
-39.999997913837433
20
2.0116570453865279e-06
30
-5.5109106052874192e-15
11
-39.999997913837433
21
5.0000020861628514
31
-5.5109106052874192e-15
0
LINE
5
173
100
AcDbEntity
8
0
100
AcDbLine
10
-49.999998062849045
20
5.0000020861628514
30
-6.7355574226834325e-15
11
-49.999998062849045
21
2.0116570453865279e-06
31
-6.7355574226834325e-15
0
LINE
5
174
100
AcDbEntity
8
0
100
AcDbLine
10
-59.999997913837433
20
2.0116570453865279e-06
30
-7.9602042035821254e-15
11
-59.999997913837433
21
5.0000020861628514
31
-7.9602042035821254e-15
0
LINE
5
175
100
AcDbEntity
8
0
100
AcDbLine
10
-19.999997913837433
20
2.0116569743322543e-06
30
-3.0616170069927127e-15
11
-19.999997913837433
21
5.0000020861627803
31
-3.0616170069927127e-15
0
LINE
5
176
100
AcDbEntity
8
0
100
AcDbLine
10
-9.9999977648258209
20
2.0116569743322543e-06
30
-1.8369701895966999e-15
11
-19.999997913837433
21
2.0116569743322543e-06
31
-3.0616170069927127e-15
0
LINE
5
177
100
AcDbEntity
8
0
100
AcDbLine
10
-19.999997913837433
20
5.0000020861627803
30
-3.0616170069927127e-15
11
-29.999998062849045
21
5.0000020861627803
31
-4.2862638243887255e-15
0
LINE
5
178
100
AcDbEntity
8
0
100
AcDbLine
10
-29.999997764825821
20
2.0116569743322543e-06
30
-4.2862637878914068e-15
11
-39.999997913837433
21
2.0116570453865279e-06
31
-5.5109106052874192e-15
0
LINE
5
179
100
AcDbEntity
8
0
100
AcDbLine
10
-9.9999980628490448
20
5.0000020861627803
30
-1.836970226094019e-15
11
-9.9999980628490448
21
2.0116569743322543e-06
31
-1.836970226094019e-15
0
LINE
5
180
100
AcDbEntity
8
0
100
AcDbLine
10
-29.999998062849045
20
5.0000020861627803
30
-4.2862638243887255e-15
11
-29.999998062849045
21
2.0116569743322543e-06
31
-4.2862638243887255e-15
0
LINE
5
181
100
AcDbEntity
8
0
100
AcDbLine
10
-120.00000417232528
20
-29.999998435377986
30
-1.5920409173607963e-14
11
-115.00000111758723
21
-29.999998435377986
31
-1.5308085399936769e-14
0
LINE
5
182
100
AcDbEntity
8
0
100
AcDbLine
10
-120.00000417232528
20
-9.9999981373547797
30
-1.5920409173607963e-14
11
-120.00000417232528
21
2.0116568322237072e-06
31
-1.5920409173607963e-14
0
LINE
5
183
100
AcDbEntity
8
0
100
AcDbLine
10
-114.9999996274709
20
2.0116570453865279e-06
30
-1.4695761808752143e-14
11
-109.99999806284897
21
2.0116570453865279e-06
31
-1.4083438217567542e-14
0
LINE
5
184
100
AcDbEntity
8
0
100
AcDbLine
10
-115.00000260770335
20
-19.999998286366392
30
-1.5308085582423362e-14
11
-115.00000260770335
21
-9.9999981373547797
31
-1.5308085582423362e-14
0
LINE
5
185
100
AcDbEntity
8
0
100
AcDbLine
10
-120.00000417232528
20
-19.999998286366392
30
-1.5920409173607963e-14
11
-115.00000260770335
21
-19.999998286366392
31
-1.5308085582423362e-14
0
LINE
5
186
100
AcDbEntity
8
0
100
AcDbLine
10
-114.99999962747104
20
-29.999998435378004
30
-1.5308085217450169e-14
11
-109.99999806284912
21
-29.999998435378004
31
-1.4695761626265565e-14
0
LINE
5
187
100
AcDbEntity
8
0
100
AcDbLine
10
-89.999997764825892
20
-29.999998435378004
30
-1.2246467991473543e-14
11
-99.999997913837504
21
-29.999998435378004
31
-1.3471114808869554e-14
0
LINE
5
188
100
AcDbEntity
8
0
100
AcDbLine
10
-120.00000417232528
20
2.0116568322237072e-06
30
-1.5920409173607963e-14
11
-115.00000260770335
21
2.0116568322237072e-06
31
-1.5308085582423362e-14
0
LINE
5
189
100
AcDbEntity
8
0
100
AcDbLine
10
-115.00000260770335
20
-9.9999981373547797
30
-1.5308085582423362e-14
11
-120.00000417232528
21
-9.9999981373547797
31
-1.5920409173607963e-14
0
LINE
5
190
100
AcDbEntity
8
0
100
AcDbLine
10
-120.00000417232528
20
-19.999998286366392
30
-1.5920409173607963e-14
11
-120.00000417232528
21
-29.999998435377986
31
-1.5920409173607963e-14
0
LINE
5
191
100
AcDbEntity
8
0
100
AcDbLine
10
-69.999997764825821
20
2.0116570453865279e-06
30
-9.1848509844808175e-15
11
-79.999997913837433
21
2.0116570453865279e-06
31
-1.0409497801876831e-14
0
LINE
5
192
100
AcDbEntity
8
0
100
AcDbLine
10
-109.99999806284912
20
-34.999998509883795
30
-1.4083438217567558e-14
11
-109.99999806284912
21
-29.999998435378004
31
-1.4695761626265565e-14
0
LINE
5
193
100
AcDbEntity
8
0
100
AcDbLine
10
-79.999997913837433
20
5.0000020861628514
30
-1.0409497801876831e-14
11
-89.999998062848974
21
5.0000020861628514
31
-1.1634144619272836e-14
0
LINE
5
194
100
AcDbEntity
8
0
100
AcDbLine
10
-79.999997913837575
20
-29.999998435377986
30
-1.1021821210574857e-14
11
-79.999997913837575
21
-34.999998509883774
31
-1.0409497801876849e-14
0
LINE
5
195
100
AcDbEntity
8
0
100
AcDbLine
10
-69.999998062849045
20
5.0000020861628514
30
-9.1848510209781378e-15
11
-69.999998062849045
21
2.0116570453865279e-06
31
-9.1848510209781378e-15
0
LINE
5
196
100
AcDbEntity
8
0
100
AcDbLine
10
-79.999997913837575
20
-34.999998509883774
30
-1.0409497801876849e-14
11
-89.999998062849116
21
-34.999998509883795
31
-1.1634144619272853e-14
0
LINE
5
197
100
AcDbEntity
8
0
100
AcDbLine
10
-99.999997913837504
20
-34.999998509883795
30
-1.2858791400171547e-14
11
-109.99999806284912
21
-34.999998509883795
31
-1.4083438217567558e-14
0
LINE
5
198
100
AcDbEntity
8
0
100
AcDbLine
10
-89.999998062848974
20
5.0000020861628514
30
-1.1634144619272836e-14
11
-89.999998062848974
21
2.0116570453865279e-06
31
-1.1634144619272836e-14
0
LINE
5
199
100
AcDbEntity
8
0
100
AcDbLine
10
-69.999998062849187
20
-34.999998509883795
30
-9.1848510209781536e-15
11
-69.999998062849187
21
-29.999998435378004
31
-9.7971744296761621e-15
0
LINE
5
200
100
AcDbEntity
8
0
100
AcDbLine
10
-89.999998062849116
20
-34.999998509883795
30
-1.1634144619272853e-14
11
-89.999998062849116
21
-29.999998435378004
31
-1.224646802797086e-14
0
LINE
5
201
100
AcDbEntity
8
0
100
AcDbLine
10
-89.99999776482575
20
2.0116570453865279e-06
30
-1.1634144582775517e-14
11
-99.999997913837362
21
2.0116570453865279e-06
31
-1.2858791400171528e-14
0
LINE
5
202
100
AcDbEntity
8
0
100
AcDbLine
10
-99.999997913837504
20
-29.999998435378004
30
-1.3471114808869554e-14
11
-99.999997913837504
21
-34.999998509883795
31
-1.2858791400171547e-14
0
LINE
5
203
100
AcDbEntity
8
0
100
AcDbLine
10
-79.999997913837433
20
2.0116570453865279e-06
30
-1.0409497801876831e-14
11
-79.999997913837433
21
5.0000020861628514
31
-1.0409497801876831e-14
0
CIRCLE
5
204
100
AcDbEntity
8
0
100
AcDbCircle
10
55.000005215406418
20
-19.000000223517418
30
6.1232343698342823e-15
40
4
0
CIRCLE
5
205
100
AcDbEntity
8
0
100
AcDbCircle
10
-94.999997317790999
20
-19.000000238418583
30
-1.2246467927603226e-14
40
7.9999999999999929
0
CIRCLE
5
206
100
AcDbEntity
8
0
100
AcDbCircle
10
-64.999996975064292
20
-19.000000223517421
30
-8.5725274881892496e-15
40
7.499999999999992
0
CIRCLE
5
207
100
AcDbEntity
8
0
100
AcDbCircle
10
-94.999997287988691
20
-4.4999997541308465
30
-1.2246467923953496e-14
40
2.4500000000000002
0
CIRCLE
5
208
100
AcDbEntity
8
0
100
AcDbCircle
10
85.000005424022675
20
-19.000000268220973
30
9.7971747928244649e-15
40
7.5
0
CIRCLE
5
209
100
AcDbEntity
8
0
100
AcDbCircle
10
84.988234812143361
20
-4.5205122296245737
30
9.7957333086082661e-15
40
2.4500000000000002
0
CIRCLE
5
210
100
AcDbEntity
8
0
100
AcDbCircle
10
55.000005215406418
20
-19.000000223517418
30
6.1232343698342823e-15
40
5.5
0
LWPOLYLINE
5
211
100
AcDbEntity
8
0
100
AcDbPolyline
90
4
70
1
43
0.0
10
98.000001460313825
20
-28.478374686641857
10
98.000001460313825
20
-23.000000342726715
10
101.99993580788764
20
-23.000000342726715
10
101.99993580788764
20
-28.478374686641857
0
LWPOLYLINE
5
212
100
AcDbEntity
8
0
100
AcDbPolyline
90
4
70
1
43
0.0
10
98.000001460313797
20
-17.000000253319737
10
98.000001460313797
20
-9.3789068609476178
10
102.00000146031378
20
-9.3789068609476178
10
102.00000146031378
20
-17.000000253319737
0
LWPOLYLINE
5
213
100
AcDbEntity
8
0
100
AcDbPolyline
90
4
70
1
43
0.0
10
65.000000968575534
20
-25.796875655651093
10
65.000000968575534
20
-12.000000178813943
10
69.000000968575534
20
-12.000000178813943
10
69.00000096857552
20
-25.796875655651093
0
LWPOLYLINE
5
214
100
AcDbEntity
8
0
100
AcDbPolyline
90
4
70
1
43
0.0
10
-109.00000168383121
20
-9.5605477690696752
10
-109.00000168383121
20
-28.000000417232513
10
-113.00000168383121
20
-28.000000417232513
10
-113.00000168383121
20
-9.5605477690696752
0
ENDSEC
0
SECTION
2
OBJECTS
0
DICTIONARY
5
C
100
AcDbDictionary
3
ACAD_GROUP
350
D
3
ACAD_MLINESTYLE
350
17
0
DICTIONARY
5
D
100
AcDbDictionary
0
DICTIONARY
5
1A
330
C
100
AcDbDictionary
0
DICTIONARY
5
17
100
AcDbDictionary
0
ENDSEC
0
EOF
