0
SECTION
2
HEADER
9
$INSUNITS
70
4
9
$ACADVER
1
AC1014
9
$HANDSEED
5
FFFF
0
ENDSEC
0
SECTION
2
TABLES
0
TABLE
2
VPORT
5
8
100
AcDbSymbolTable
0
ENDTAB
0
TABLE
2
LTYPE
5
5
100
AcDbSymbolTable
0
LTYPE
5
14
100
AcDbSymbolTableRecord
100
AcDbLinetypeTableRecord
2
BYBLOCK
70
0
0
LTYPE
5
15
100
AcDbSymbolTableRecord
100
AcDbLinetypeTableRecord
2
BYLAYER
70
0
0
ENDTAB
0
TABLE
2
LAYER
5
2
100
AcDbSymbolTable
70
2
0
LAYER
5
50
100
AcDbSymbolTableRecord
100
AcDbLayerTableRecord
2
0
70
0
6
CONTINUOUS
0
ENDTAB
0
TABLE
2
STYLE
5
3
100
AcDbSymbolTable
70
1
0
STYLE
5
11
100
AcDbSymbolTableRecord
100
AcDbTextStyleTableRecord
2
STANDARD
70
0
0
ENDTAB
0
TABLE
2
VIEW
5
6
100
AcDbSymbolTable
70
0
0
ENDTAB
0
TABLE
2
UCS
5
7
100
AcDbSymbolTable
70
0
0
ENDTAB
0
TABLE
2
APPID
5
9
100
AcDbSymbolTable
70
2
0
APPID
5
12
100
AcDbSymbolTableRecord
100
AcDbRegAppTableRecord
2
ACAD
70
0
0
ENDTAB
0
TABLE
2
DIMSTYLE
5
A
100
AcDbSymbolTable
70
1
0
ENDTAB
0
TABLE
2
BLOCK_RECORD
5
1
100
AcDbSymbolTable
70
1
0
BLOCK_RECORD
5
1F
100
AcDbSymbolTableRecord
100
AcDbBlockTableRecord
2
*MODEL_SPACE
0
BLOCK_RECORD
5
1B
100
AcDbSymbolTableRecord
100
AcDbBlockTableRecord
2
*PAPER_SPACE
0
ENDTAB
0
ENDSEC
0
SECTION
2
BLOCKS
0
BLOCK
5
20
100
AcDbEntity
100
AcDbBlockBegin
2
*MODEL_SPACE
0
ENDBLK
5
21
100
AcDbEntity
100
AcDbBlockEnd
0
BLOCK
5
1C
100
AcDbEntity
100
AcDbBlockBegin
2
*PAPER_SPACE
0
ENDBLK
5
1D
100
AcDbEntity
100
AcDbBlockEnd
0
ENDSEC
0
SECTION
2
ENTITIES
0
LINE
5
100
100
AcDbEntity
8
0
100
AcDbLine
10
55.000000819563972
20
-20.000000223517201
30
0
11
65.000000968575478
21
-20.000000223516984
31
0
0
LINE
5
101
100
AcDbEntity
8
0
100
AcDbLine
10
65.000000968575478
20
-20.000000223516984
30
0
11
65.000000968575492
21
-15.000000223517391
31
0
0
LINE
5
102
100
AcDbEntity
8
0
100
AcDbLine
10
-5.000000670552315
20
-20.000000223517404
30
0
11
4.9999994784592854
21
-20.0000002235174
31
0
0
LINE
5
103
100
AcDbEntity
8
0
100
AcDbLine
10
14.999999329447746
20
20.000000298023231
30
0
11
24.999999478459358
21
20.000000298023231
31
0
0
LINE
5
104
100
AcDbEntity
8
0
100
AcDbLine
10
24.999999478459358
20
20.000000298023231
30
0
11
24.999999478459358
21
15.000000223517427
31
0
0
LINE
5
105
100
AcDbEntity
8
0
100
AcDbLine
10
-5.0000006705522537
20
15.000000223517427
30
0
11
-5.0000006705522537
21
20.000000298023231
31
0
0
LINE
5
106
100
AcDbEntity
8
0
100
AcDbLine
10
-25.000000670552275
20
-15.000000149011612
30
0
11
-25.000000670552286
21
-20.000000223517411
31
0
0
LINE
5
107
100
AcDbEntity
8
0
100
AcDbLine
10
-25.000000670552286
20
-20.000000223517411
30
0
11
-15.000000521540692
21
-20.000000223517411
31
0
0
LINE
5
108
100
AcDbEntity
8
0
100
AcDbLine
10
70.000001043081284
20
5.0000002235174357
30
0
11
70.000001043081284
21
15.000000223517432
31
0
0
LINE
5
109
100
AcDbEntity
8
0
100
AcDbLine
10
-15.000000521540642
20
15.000000223517427
30
0
11
-5.0000003725290298
21
15.000000223517427
31
0
0
LINE
5
110
100
AcDbEntity
8
0
100
AcDbLine
10
70.000001043081284
20
5.0000002235174357
30
0
11
75.00000111758709
21
5.0000002235174357
31
0
0
LINE
5
111
100
AcDbEntity
8
0
100
AcDbLine
10
-15.000000521540642
20
20.000000298023231
30
0
11
-15.000000521540642
21
15.000000223517427
31
0
0
LINE
5
112
100
AcDbEntity
8
0
100
AcDbLine
10
45.000000670552254
20
20.000000223517425
30
0
11
45.000000670552254
21
15.000000223517427
31
0
0
LINE
5
113
100
AcDbEntity
8
0
100
AcDbLine
10
-15.000000521540692
20
-20.000000223517411
30
0
11
-15.000000521540692
21
-15.000000149011608
31
0
0
LINE
5
114
100
AcDbEntity
8
0
100
AcDbLine
10
4.9999994784593582
20
20.000000298023231
30
0
11
4.9999994784593582
21
15.000000223517427
31
0
0
LINE
5
115
100
AcDbEntity
8
0
100
AcDbLine
10
-25.000000670552254
20
20.000000298023231
30
0
11
-15.000000521540642
21
20.000000298023231
31
0
0
LINE
5
116
100
AcDbEntity
8
0
100
AcDbLine
10
45.000000670552254
20
15.000000223517427
30
0
11
55.000000819563866
21
15.000000223517427
31
0
0
LINE
5
117
100
AcDbEntity
8
0
100
AcDbLine
10
-15.000000521540692
20
-15.000000149011608
30
0
11
-5.000000372529092
21
-15.000000149011603
31
0
0
LINE
5
118
100
AcDbEntity
8
0
100
AcDbLine
10
75.00000111758709
20
5.0000002235174357
30
0
11
75.00000111758709
21
-5.0000002235173957
31
0
0
LINE
5
119
100
AcDbEntity
8
0
100
AcDbLine
10
4.9999994784593582
20
15.000000223517427
30
0
11
14.99999962747097
21
15.000000223517427
31
0
0
LINE
5
120
100
AcDbEntity
8
0
100
AcDbLine
10
34.99999962747097
20
15.000000223517427
30
0
11
34.99999962747097
21
20.000000223517425
31
0
0
LINE
5
121
100
AcDbEntity
8
0
100
AcDbLine
10
14.999999329447746
20
15.000000223517427
30
0
11
14.999999329447746
21
20.000000298023231
31
0
0
LINE
5
122
100
AcDbEntity
8
0
100
AcDbLine
10
34.99999962747097
20
20.000000223517425
30
0
11
45.000000670552254
21
20.000000223517425
31
0
0
LINE
5
123
100
AcDbEntity
8
0
100
AcDbLine
10
24.999999478459358
20
15.000000223517427
30
0
11
34.99999962747097
21
15.000000223517427
31
0
0
LINE
5
124
100
AcDbEntity
8
0
100
AcDbLine
10
45.000000670552254
20
-20.000000223517201
30
0
11
45.000000670552147
21
-15.000000149011615
31
0
0
LINE
5
125
100
AcDbEntity
8
0
100
AcDbLine
10
45.000000670552147
20
-15.000000149011615
30
0
11
55.000000819563866
21
-15.000000149011402
31
0
0
LINE
5
126
100
AcDbEntity
8
0
100
AcDbLine
10
55.000000819563866
20
-15.000000149011402
30
0
11
55.000000819563972
21
-20.000000223517201
31
0
0
LINE
5
127
100
AcDbEntity
8
0
100
AcDbLine
10
14.999999329447659
20
-15.000000149011598
30
0
11
14.999999329447659
21
-20.0000002235174
31
0
0
LINE
5
128
100
AcDbEntity
8
0
100
AcDbLine
10
70.000001043081284
20
-5.0000002235173957
30
0
11
70.000001043081284
21
-15.000000223517391
31
0
0
LINE
5
129
100
AcDbEntity
8
0
100
AcDbLine
10
14.999999329447659
20
-20.0000002235174
30
0
11
24.999999478459266
21
-20.0000002235174
31
0
0
LINE
5
130
100
AcDbEntity
8
0
100
AcDbLine
10
4.9999994784592836
20
-15.000000149011603
30
0
11
14.999999627470883
21
-15.000000149011598
31
0
0
LINE
5
131
100
AcDbEntity
8
0
100
AcDbLine
10
24.999999478459266
20
-20.0000002235174
30
0
11
24.999999478459259
21
-15.000000149011598
31
0
0
LINE
5
132
100
AcDbEntity
8
0
100
AcDbLine
10
75.00000111758709
20
-5.0000002235173957
30
0
11
70.000001043081284
21
-5.0000002235173957
31
0
0
LINE
5
133
100
AcDbEntity
8
0
100
AcDbLine
10
24.999999478459259
20
-15.000000149011598
30
0
11
34.999999627470856
21
-15.000000149011594
31
0
0
LINE
5
134
100
AcDbEntity
8
0
100
AcDbLine
10
70.000001043081284
20
-15.000000223517391
30
0
11
65.000000968575492
21
-15.000000223517391
31
0
0
LINE
5
135
100
AcDbEntity
8
0
100
AcDbLine
10
34.99999962747097
20
-20.000000223517421
30
0
11
45.000000670552254
21
-20.000000223517201
31
0
0
LINE
5
136
100
AcDbEntity
8
0
100
AcDbLine
10
34.999999627470856
20
-15.000000149011594
30
0
11
34.99999962747097
21
-20.000000223517421
31
0
0
LINE
5
137
100
AcDbEntity
8
0
100
AcDbLine
10
4.9999994784592854
20
-20.0000002235174
30
0
11
4.9999994784592836
21
-15.000000149011603
31
0
0
LINE
5
138
100
AcDbEntity
8
0
100
AcDbLine
10
-30.000000745058081
20
5.0000000745058104
30
0
11
-30.000000745058081
21
15.000000223517421
31
0
0
LINE
5
139
100
AcDbEntity
8
0
100
AcDbLine
10
-5.0000006705522537
20
20.000000298023231
30
0
11
4.9999994784593582
21
20.000000298023231
31
0
0
LINE
5
140
100
AcDbEntity
8
0
100
AcDbLine
10
-25.000000670552275
20
-15.000000149011612
30
0
11
-30.000000745058081
21
-15.000000149011612
31
0
0
LINE
5
141
100
AcDbEntity
8
0
100
AcDbLine
10
-35.000000819563887
20
5.0000000745058104
30
0
11
-30.000000745058081
21
5.0000000745058104
31
0
0
LINE
5
142
100
AcDbEntity
8
0
100
AcDbLine
10
-30.000000745058081
20
-5.0000000745058015
30
0
11
-35.000000819563887
21
-5.0000000745058015
31
0
0
LINE
5
143
100
AcDbEntity
8
0
100
AcDbLine
10
-35.000000819563887
20
-5.0000000745058015
30
0
11
-35.000000819563887
21
4.4408920985006262e-15
31
0
0
LINE
5
144
100
AcDbEntity
8
0
100
AcDbLine
10
-5.0000006705523159
20
-15.000000149011603
30
0
11
-5.000000670552315
21
-20.000000223517404
31
0
0
LINE
5
145
100
AcDbEntity
8
0
100
AcDbLine
10
-30.000000745058081
20
15.000000223517432
30
0
11
-25.000000670552275
21
15.000000223517432
31
0
0
LINE
5
146
100
AcDbEntity
8
0
100
AcDbLine
10
-25.000000670552275
20
15.000000223517432
30
0
11
-25.000000670552275
21
20.000000298023238
31
0
0
LINE
5
147
100
AcDbEntity
8
0
100
AcDbLine
10
65.000000968575492
20
15.000000223517432
30
0
11
70.000001043081284
21
15.000000223517432
31
0
0
LINE
5
148
100
AcDbEntity
8
0
100
AcDbLine
10
-30.000000745058081
20
-5.0000000745058015
30
0
11
-30.000000745058081
21
-15.000000223517414
31
0
0
LINE
5
149
100
AcDbEntity
8
0
100
AcDbLine
10
-35.000000819563887
20
4.4408920985006262e-15
30
0
11
-35.000000819563887
21
5.0000000745058104
31
0
0
LINE
5
150
100
AcDbEntity
8
0
100
AcDbLine
10
65.000000968575478
20
20.000000223517425
30
0
11
65.000000968575492
21
15.000000223517432
31
0
0
LINE
5
151
100
AcDbEntity
8
0
100
AcDbLine
10
55.000000819563866
20
20.000000223517425
30
0
11
65.000000968575478
21
20.000000223517425
31
0
0
LINE
5
152
100
AcDbEntity
8
0
100
AcDbLine
10
55.000000819563866
20
15.000000223517427
30
0
11
55.000000819563866
21
20.000000223517425
31
0
0
LWPOLYLINE
5
153
100
AcDbEntity
8
0
100
AcDbPolyline
90
4
70
1
43
0.0
10
-0.99999915063381906
20
8.0000001490116119
10
65.000000849366188
20
8.0000001490116102
10
65.000000849366188
20
-11.99999985098839
10
-0.99999915063381684
20
-11.999999850988388
0
LWPOLYLINE
5
154
100
AcDbEntity
8
0
100
AcDbPolyline
90
4
70
1
43
0.0
10
65.200000849366191
20
-52.199999850988391
10
-0.99999915063381684
20
-52.199999850988391
10
-0.99999915063381906
20
-31.999999850988388
10
65.200000849366191
20
-31.999999850988388
0
LWPOLYLINE
5
155
100
AcDbEntity
8
0
100
AcDbPolyline
90
4
70
1
43
0.0
10
44.224611446261434
20
-40.0000006556511
10
59.000000879168525
20
-40.000000655651093
10
59.000000879168525
20
-44.000000655651093
10
44.224611446261434
20
-44.0000006556511
0
LWPOLYLINE
5
156
100
AcDbEntity
8
0
100
AcDbPolyline
90
4
70
1
43
0.0
10
17.914083222004887
20
-40.0000006556511
10
26.000000387430195
20
-40.0000006556511
10
26.000000387430191
20
-44.000000655651093
10
17.914083222004887
20
-44.000000655651093
0
ENDSEC
0
SECTION
2
OBJECTS
0
DICTIONARY
5
C
100
AcDbDictionary
3
ACAD_GROUP
350
D
3
ACAD_MLINESTYLE
350
17
0
DICTIONARY
5
D
100
AcDbDictionary
0
DICTIONARY
5
1A
330
C
100
AcDbDictionary
0
DICTIONARY
5
17
100
AcDbDictionary
0
ENDSEC
0
EOF
