0
SECTION
2
HEADER
9
$INSUNITS
70
4
9
$ACADVER
1
AC1014
9
$HANDSEED
5
FFFF
0
ENDSEC
0
SECTION
2
TABLES
0
TABLE
2
VPORT
5
8
100
AcDbSymbolTable
0
ENDTAB
0
TABLE
2
LTYPE
5
5
100
AcDbSymbolTable
0
LTYPE
5
14
100
AcDbSymbolTableRecord
100
AcDbLinetypeTableRecord
2
BYBLOCK
70
0
0
LTYPE
5
15
100
AcDbSymbolTableRecord
100
AcDbLinetypeTableRecord
2
BYLAYER
70
0
0
ENDTAB
0
TABLE
2
LAYER
5
2
100
AcDbSymbolTable
70
2
0
LAYER
5
50
100
AcDbSymbolTableRecord
100
AcDbLayerTableRecord
2
0
70
0
6
CONTINUOUS
0
ENDTAB
0
TABLE
2
STYLE
5
3
100
AcDbSymbolTable
70
1
0
STYLE
5
11
100
AcDbSymbolTableRecord
100
AcDbTextStyleTableRecord
2
STANDARD
70
0
0
ENDTAB
0
TABLE
2
VIEW
5
6
100
AcDbSymbolTable
70
0
0
ENDTAB
0
TABLE
2
UCS
5
7
100
AcDbSymbolTable
70
0
0
ENDTAB
0
TABLE
2
APPID
5
9
100
AcDbSymbolTable
70
2
0
APPID
5
12
100
AcDbSymbolTableRecord
100
AcDbRegAppTableRecord
2
ACAD
70
0
0
ENDTAB
0
TABLE
2
DIMSTYLE
5
A
100
AcDbSymbolTable
70
1
0
ENDTAB
0
TABLE
2
BLOCK_RECORD
5
1
100
AcDbSymbolTable
70
1
0
BLOCK_RECORD
5
1F
100
AcDbSymbolTableRecord
100
AcDbBlockTableRecord
2
*MODEL_SPACE
0
BLOCK_RECORD
5
1B
100
AcDbSymbolTableRecord
100
AcDbBlockTableRecord
2
*PAPER_SPACE
0
ENDTAB
0
ENDSEC
0
SECTION
2
BLOCKS
0
BLOCK
5
20
100
AcDbEntity
100
AcDbBlockBegin
2
*MODEL_SPACE
0
ENDBLK
5
21
100
AcDbEntity
100
AcDbBlockEnd
0
BLOCK
5
1C
100
AcDbEntity
100
AcDbBlockBegin
2
*PAPER_SPACE
0
ENDBLK
5
1D
100
AcDbEntity
100
AcDbBlockEnd
0
ENDSEC
0
SECTION
2
ENTITIES
0
LINE
5
100
100
AcDbEntity
8
0
100
AcDbLine
10
-55.000000819563866
20
0
30
0
11
-55.000000819563866
21
5.000000074505806
31
0
0
LINE
5
101
100
AcDbEntity
8
0
100
AcDbLine
10
-55.000000819563866
20
5.000000074505806
30
0
11
-50.00000074505806
21
5.000000074505806
31
0
0
LINE
5
102
100
AcDbEntity
8
0
100
AcDbLine
10
-50.00000074505806
20
15.000000223517418
30
0
11
-45.000000670552254
21
15.000000223517418
31
0
0
LINE
5
103
100
AcDbEntity
8
0
100
AcDbLine
10
45.000000670552254
20
15.000000223517418
30
0
11
50.00000074505806
21
15.000000223517421
31
0
0
LINE
5
104
100
AcDbEntity
8
0
100
AcDbLine
10
50.00000074505806
20
5.0000002235174401
30
0
11
55.000000819563866
21
5.0000002235174401
31
0
0
LINE
5
105
100
AcDbEntity
8
0
100
AcDbLine
10
55.000000819563866
20
5.0000002235174401
30
0
11
55.000000819563866
21
-5.0000002235173868
31
0
0
LINE
5
106
100
AcDbEntity
8
0
100
AcDbLine
10
55.000000819563866
20
-5.0000002235173868
30
0
11
50.00000074505806
21
-5.0000002235173868
31
0
0
LINE
5
107
100
AcDbEntity
8
0
100
AcDbLine
10
50.00000074505806
20
-15.000000298023179
30
0
11
45.000000670552289
21
-15.000000298023179
31
0
0
LINE
5
108
100
AcDbEntity
8
0
100
AcDbLine
10
-45.000000670552254
20
-15.000000223517418
30
0
11
-50.00000074505806
21
-15.000000223517418
31
0
0
LINE
5
109
100
AcDbEntity
8
0
100
AcDbLine
10
-50.00000074505806
20
-5.000000074505806
30
0
11
-55.000000819563866
21
-5.000000074505806
31
0
0
LINE
5
110
100
AcDbEntity
8
0
100
AcDbLine
10
-55.000000819563866
20
-5.000000074505806
30
0
11
-55.000000819563866
21
0
31
0
0
LINE
5
111
100
AcDbEntity
8
0
100
AcDbLine
10
-45.000000670552254
20
15.000000223517418
30
0
11
-45.000000670552254
21
20.000000298023224
31
0
0
LINE
5
112
100
AcDbEntity
8
0
100
AcDbLine
10
-45.000000670552254
20
20.000000298023224
30
0
11
-35.000000521540642
21
20.000000298023224
31
0
0
LINE
5
113
100
AcDbEntity
8
0
100
AcDbLine
10
-35.000000521540642
20
20.000000298023224
30
0
11
-35.000000521540642
21
15.000000223517418
31
0
0
LINE
5
114
100
AcDbEntity
8
0
100
AcDbLine
10
-35.000000521540642
20
15.000000223517418
30
0
11
-25.00000037252903
21
15.000000223517418
31
0
0
LINE
5
115
100
AcDbEntity
8
0
100
AcDbLine
10
-25.000000670552254
20
15.000000223517418
30
0
11
-25.000000670552254
21
20.000000298023224
31
0
0
LINE
5
116
100
AcDbEntity
8
0
100
AcDbLine
10
-15.000000521540642
20
20.000000298023224
30
0
11
-15.000000521540642
21
15.000000223517418
31
0
0
LINE
5
117
100
AcDbEntity
8
0
100
AcDbLine
10
-15.000000521540642
20
15.000000223517418
30
0
11
-5.0000003725290298
21
15.000000223517418
31
0
0
LINE
5
118
100
AcDbEntity
8
0
100
AcDbLine
10
-25.000000670552254
20
20.000000298023224
30
0
11
-15.000000521540642
21
20.000000298023224
31
0
0
LINE
5
119
100
AcDbEntity
8
0
100
AcDbLine
10
-5.0000006705522537
20
15.000000223517418
30
0
11
-5.0000006705522537
21
20.000000298023224
31
0
0
LINE
5
120
100
AcDbEntity
8
0
100
AcDbLine
10
4.9999994784593582
20
20.000000298023224
30
0
11
4.9999994784593582
21
15.000000223517418
31
0
0
LINE
5
121
100
AcDbEntity
8
0
100
AcDbLine
10
4.9999994784593582
20
15.000000223517418
30
0
11
14.99999962747097
21
15.000000223517418
31
0
0
LINE
5
122
100
AcDbEntity
8
0
100
AcDbLine
10
-5.0000006705522537
20
20.000000298023224
30
0
11
4.9999994784593582
21
20.000000298023224
31
0
0
LINE
5
123
100
AcDbEntity
8
0
100
AcDbLine
10
14.999999329447746
20
15.000000223517418
30
0
11
14.999999329447746
21
20.000000298023224
31
0
0
LINE
5
124
100
AcDbEntity
8
0
100
AcDbLine
10
24.999999478459358
20
20.000000298023224
30
0
11
24.999999478459358
21
15.000000223517418
31
0
0
LINE
5
125
100
AcDbEntity
8
0
100
AcDbLine
10
24.999999478459358
20
15.000000223517418
30
0
11
34.99999962747097
21
15.000000223517418
31
0
0
LINE
5
126
100
AcDbEntity
8
0
100
AcDbLine
10
14.999999329447746
20
20.000000298023224
30
0
11
24.999999478459358
21
20.000000298023224
31
0
0
LINE
5
127
100
AcDbEntity
8
0
100
AcDbLine
10
24.999999478459266
20
-20.000000298023203
30
0
11
24.999999478459259
21
-15.0000002235174
31
0
0
LINE
5
128
100
AcDbEntity
8
0
100
AcDbLine
10
4.9999994784592836
20
-15.000000223517404
30
0
11
14.999999627470883
21
-15.0000002235174
31
0
0
LINE
5
129
100
AcDbEntity
8
0
100
AcDbLine
10
14.999999329447659
20
-20.000000298023203
30
0
11
24.999999478459266
21
-20.000000298023203
31
0
0
LINE
5
130
100
AcDbEntity
8
0
100
AcDbLine
10
14.999999329447659
20
-15.0000002235174
30
0
11
14.999999329447659
21
-20.000000298023203
31
0
0
LINE
5
131
100
AcDbEntity
8
0
100
AcDbLine
10
-5.0000006705523159
20
-15.000000223517404
30
0
11
-5.000000670552315
21
-20.000000298023206
31
0
0
LINE
5
132
100
AcDbEntity
8
0
100
AcDbLine
10
-35.000000521540656
20
-20.000000298023217
30
0
11
-35.000000521540663
21
-15.000000223517414
31
0
0
LINE
5
133
100
AcDbEntity
8
0
100
AcDbLine
10
-5.000000670552315
20
-20.000000298023206
30
0
11
4.9999994784592854
21
-20.000000298023203
31
0
0
LINE
5
134
100
AcDbEntity
8
0
100
AcDbLine
10
-15.000000521540692
20
-15.000000223517409
30
0
11
-5.000000372529092
21
-15.000000223517404
31
0
0
LINE
5
135
100
AcDbEntity
8
0
100
AcDbLine
10
-15.000000521540692
20
-20.00000029802321
30
0
11
-15.000000521540692
21
-15.000000223517409
31
0
0
LINE
5
136
100
AcDbEntity
8
0
100
AcDbLine
10
24.999999478459259
20
-15.0000002235174
30
0
11
34.999999627470856
21
-15.000000223517397
31
0
0
LINE
5
137
100
AcDbEntity
8
0
100
AcDbLine
10
4.9999994784592854
20
-20.000000298023203
30
0
11
4.9999994784592836
21
-15.000000223517404
31
0
0
LINE
5
138
100
AcDbEntity
8
0
100
AcDbLine
10
-25.000000670552286
20
-20.00000029802321
30
0
11
-15.000000521540692
21
-20.00000029802321
31
0
0
LINE
5
139
100
AcDbEntity
8
0
100
AcDbLine
10
-45.000000670552254
20
-15.000000223517418
30
0
11
-45.000000670552261
21
-20.000000298023217
31
0
0
LINE
5
140
100
AcDbEntity
8
0
100
AcDbLine
10
-35.000000521540663
20
-15.000000223517414
30
0
11
-25.000000372529065
21
-15.000000223517409
31
0
0
LINE
5
141
100
AcDbEntity
8
0
100
AcDbLine
10
-25.000000670552289
20
-15.000000223517409
30
0
11
-25.000000670552286
21
-20.00000029802321
31
0
0
LINE
5
142
100
AcDbEntity
8
0
100
AcDbLine
10
-45.000000670552261
20
-20.000000298023217
30
0
11
-35.000000521540656
21
-20.000000298023217
31
0
0
LINE
5
143
100
AcDbEntity
8
0
100
AcDbLine
10
34.99999962747097
20
15.000000223517418
30
0
11
34.99999962747097
21
20.000000223517418
31
0
0
LINE
5
144
100
AcDbEntity
8
0
100
AcDbLine
10
34.99999962747097
20
20.000000223517418
30
0
11
45.000000670552254
21
20.000000223517418
31
0
0
LINE
5
145
100
AcDbEntity
8
0
100
AcDbLine
10
34.999999627470856
20
-15.000000223517397
30
0
11
34.99999962747097
21
-20.000000298023224
31
0
0
LINE
5
146
100
AcDbEntity
8
0
100
AcDbLine
10
34.99999962747097
20
-20.000000298023224
30
0
11
45.000000670552254
21
-20.000000298023004
31
0
0
LINE
5
147
100
AcDbEntity
8
0
100
AcDbLine
10
-50.00000074505806
20
5.000000074505806
30
0
11
-50.00000074505806
21
15.000000223517418
31
0
0
LINE
5
148
100
AcDbEntity
8
0
100
AcDbLine
10
-50.00000074505806
20
-5.000000074505806
30
0
11
-50.00000074505806
21
-15.000000223517418
31
0
0
LINE
5
149
100
AcDbEntity
8
0
100
AcDbLine
10
50.00000074505806
20
-5.0000002235173868
30
0
11
50.00000074505806
21
-15.000000223517379
31
0
0
LINE
5
150
100
AcDbEntity
8
0
100
AcDbLine
10
50.00000074505806
20
5.0000002235174401
30
0
11
50.00000074505806
21
15.000000223517432
31
0
0
LINE
5
151
100
AcDbEntity
8
0
100
AcDbLine
10
45.000000670552254
20
20.000000223517418
30
0
11
45.000000670552254
21
15.000000223517418
31
0
0
LINE
5
152
100
AcDbEntity
8
0
100
AcDbLine
10
45.000000670552254
20
-20.000000298023004
30
0
11
45.000000670552147
21
-15.000000223517418
31
0
0
LWPOLYLINE
5
153
100
AcDbEntity
8
0
100
AcDbPolyline
90
4
70
1
43
0.0
10
-25.000000074505806
20
5.000000074505806
10
-30.000000149011612
20
5.000000074505806
10
-30.000000149011612
20
-10.000000149011612
10
-25.000000074505806
20
-10.000000149011612
0
ENDSEC
0
SECTION
2
OBJECTS
0
DICTIONARY
5
C
100
AcDbDictionary
3
ACAD_GROUP
350
D
3
ACAD_MLINESTYLE
350
17
0
DICTIONARY
5
D
100
AcDbDictionary
0
DICTIONARY
5
1A
330
C
100
AcDbDictionary
0
DICTIONARY
5
17
100
AcDbDictionary
0
ENDSEC
0
EOF
