0
SECTION
2
HEADER
9
$INSUNITS
70
4
9
$ACADVER
1
AC1014
9
$HANDSEED
5
FFFF
0
ENDSEC
0
SECTION
2
TABLES
0
TABLE
2
VPORT
5
8
100
AcDbSymbolTable
0
ENDTAB
0
TABLE
2
LTYPE
5
5
100
AcDbSymbolTable
0
LTYPE
5
14
100
AcDbSymbolTableRecord
100
AcDbLinetypeTableRecord
2
BYBLOCK
70
0
0
LTYPE
5
15
100
AcDbSymbolTableRecord
100
AcDbLinetypeTableRecord
2
BYLAYER
70
0
0
ENDTAB
0
TABLE
2
LAYER
5
2
100
AcDbSymbolTable
70
2
0
LAYER
5
50
100
AcDbSymbolTableRecord
100
AcDbLayerTableRecord
2
0
70
0
6
CONTINUOUS
0
ENDTAB
0
TABLE
2
STYLE
5
3
100
AcDbSymbolTable
70
1
0
STYLE
5
11
100
AcDbSymbolTableRecord
100
AcDbTextStyleTableRecord
2
STANDARD
70
0
0
ENDTAB
0
TABLE
2
VIEW
5
6
100
AcDbSymbolTable
70
0
0
ENDTAB
0
TABLE
2
UCS
5
7
100
AcDbSymbolTable
70
0
0
ENDTAB
0
TABLE
2
APPID
5
9
100
AcDbSymbolTable
70
2
0
APPID
5
12
100
AcDbSymbolTableRecord
100
AcDbRegAppTableRecord
2
ACAD
70
0
0
ENDTAB
0
TABLE
2
DIMSTYLE
5
A
100
AcDbSymbolTable
70
1
0
ENDTAB
0
TABLE
2
BLOCK_RECORD
5
1
100
AcDbSymbolTable
70
1
0
BLOCK_RECORD
5
1F
100
AcDbSymbolTableRecord
100
AcDbBlockTableRecord
2
*MODEL_SPACE
0
BLOCK_RECORD
5
1B
100
AcDbSymbolTableRecord
100
AcDbBlockTableRecord
2
*PAPER_SPACE
0
ENDTAB
0
ENDSEC
0
SECTION
2
BLOCKS
0
BLOCK
5
20
100
AcDbEntity
100
AcDbBlockBegin
2
*MODEL_SPACE
0
ENDBLK
5
21
100
AcDbEntity
100
AcDbBlockEnd
0
BLOCK
5
1C
100
AcDbEntity
100
AcDbBlockBegin
2
*PAPER_SPACE
0
ENDBLK
5
1D
100
AcDbEntity
100
AcDbBlockEnd
0
ENDSEC
0
SECTION
2
ENTITIES
0
LINE
5
100
100
AcDbEntity
8
0
100
AcDbLine
10
-60.000001341104507
20
150.00000149011612
30
0
11
-60.000001341104507
21
145.00000141561031
31
0
0
LINE
5
101
100
AcDbEntity
8
0
100
AcDbLine
10
-125.00000141561033
20
140.00000134110451
30
1.2246468173960097e-15
11
-125.00000141561033
21
130.0000011920929
31
2.4492936347920233e-15
0
LINE
5
102
100
AcDbEntity
8
0
100
AcDbLine
10
-120.00000134110451
20
150.00000149011612
30
0
11
-120.00000134110451
21
145.00000141561031
31
0
0
LINE
5
103
100
AcDbEntity
8
0
100
AcDbLine
10
-110.00000149011612
20
150.00000149011612
30
0
11
-100.00000134110451
21
150.00000149011612
31
0
0
LINE
5
104
100
AcDbEntity
8
0
100
AcDbLine
10
-80.000001341104507
20
145.00000141561031
30
0
11
-70.000001192092896
21
145.00000141561031
31
0
0
LINE
5
105
100
AcDbEntity
8
0
100
AcDbLine
10
-90.000001192092896
20
145.00000141561031
30
0
11
-90.000001192092896
21
150.00000149011612
31
0
0
LINE
5
106
100
AcDbEntity
8
0
100
AcDbLine
10
39.999998658895493
20
150.00000149011612
30
0
11
39.999998658895493
21
145.00000141561031
31
0
0
LINE
5
107
100
AcDbEntity
8
0
100
AcDbLine
10
-90.000001490116119
20
150.00000149011612
30
0
11
-80.000001341104507
21
150.00000149011612
31
0
0
LINE
5
108
100
AcDbEntity
8
0
100
AcDbLine
10
-60.000001341104507
20
145.00000141561031
30
0
11
-50.000001192092896
21
145.00000141561031
31
0
0
LINE
5
109
100
AcDbEntity
8
0
100
AcDbLine
10
-50.000001192092896
20
145.00000141561031
30
0
11
-50.000001192092896
21
150.00000149011612
31
0
0
LINE
5
110
100
AcDbEntity
8
0
100
AcDbLine
10
-100.00000134110451
20
145.00000141561031
30
0
11
-90.000001192092896
21
145.00000141561031
31
0
0
LINE
5
111
100
AcDbEntity
8
0
100
AcDbLine
10
-70.000001192092896
20
145.00000141561031
30
0
11
-70.000001192092896
21
150.00000149011612
31
0
0
LINE
5
112
100
AcDbEntity
8
0
100
AcDbLine
10
-80.000001788139144
20
44.999998509883909
30
0
11
-80.000001788139144
21
39.999998435378103
31
0
0
LINE
5
113
100
AcDbEntity
8
0
100
AcDbLine
10
-70.000001639127532
20
44.999998509883895
30
0
11
-80.000001788139144
21
44.999998509883909
31
0
0
LINE
5
114
100
AcDbEntity
8
0
100
AcDbLine
10
-80.00000149011592
20
39.999998435378103
30
0
11
-90.000001639127504
21
39.999998435378103
31
0
0
LINE
5
115
100
AcDbEntity
8
0
100
AcDbLine
10
99.999998509883866
20
140.0000002980232
30
2.4492936347920252e-15
11
99.999998509883866
21
150.00000074505803
31
2.4492936347920252e-15
0
LINE
5
116
100
AcDbEntity
8
0
100
AcDbLine
10
-100.00000178813909
20
44.999998509883916
30
0
11
-100.00000178813909
21
39.999998435378103
31
0
0
LINE
5
117
100
AcDbEntity
8
0
100
AcDbLine
10
-125.00000141561033
20
70.000001192092896
30
2.4492936347920233e-15
11
-130.00000149011615
21
70.000001192092896
31
2.4492936347920252e-15
0
LINE
5
118
100
AcDbEntity
8
0
100
AcDbLine
10
-125.00000335276125
20
50
30
0
11
-125.00000335276125
21
60.000000149011612
31
0
0
LINE
5
119
100
AcDbEntity
8
0
100
AcDbLine
10
-110.0000016391275
20
44.999998509883916
30
0
11
-120.00000178813909
21
44.999998509883916
31
0
0
LINE
5
120
100
AcDbEntity
8
0
100
AcDbLine
10
-125.00000335276125
20
50
30
0
11
-125.00000335276125
21
60.000000149011612
31
0
0
LINE
5
121
100
AcDbEntity
8
0
100
AcDbLine
10
-130.00000491738317
20
60.000000149011612
30
0
11
-130.00000149011615
21
70.000001192092896
31
2.4492936347920252e-15
0
LINE
5
122
100
AcDbEntity
8
0
100
AcDbLine
10
-100.00000134110451
20
150.00000149011612
30
0
11
-100.00000134110451
21
145.00000141561031
31
0
0
LINE
5
123
100
AcDbEntity
8
0
100
AcDbLine
10
-125.00000141561033
20
80.000001341104507
30
1.2246468173960097e-15
11
-125.00000141561033
21
70.000001192092896
31
2.4492936347920233e-15
0
LINE
5
124
100
AcDbEntity
8
0
100
AcDbLine
10
-100.00000149011586
20
39.999998435378103
30
0
11
-110.0000016391275
21
39.999998435378103
31
0
0
LINE
5
125
100
AcDbEntity
8
0
100
AcDbLine
10
-125.00000335276125
20
60.000000149011612
30
0
11
-130.00000491738317
21
60.000000149011612
31
0
0
LINE
5
126
100
AcDbEntity
8
0
100
AcDbLine
10
-120.00000178813909
20
39.999998435378103
30
0
11
-130.00000491738294
21
39.99999843537811
31
0
0
LINE
5
127
100
AcDbEntity
8
0
100
AcDbLine
10
-110.0000016391275
20
39.999998435378103
30
0
11
-110.0000016391275
21
44.999998509883916
31
0
0
LINE
5
128
100
AcDbEntity
8
0
100
AcDbLine
10
-120.00000178813909
20
44.999998509883916
30
0
11
-120.00000178813909
21
39.999998435378103
31
0
0
LINE
5
129
100
AcDbEntity
8
0
100
AcDbLine
10
-60.000001788139159
20
44.999998509883895
30
0
11
-60.000001788139159
21
39.999998435378103
31
0
0
LINE
5
130
100
AcDbEntity
8
0
100
AcDbLine
10
94.99999843537806
20
130.00000014901158
30
1.2246468173960097e-15
11
94.99999843537806
21
140.0000002980232
31
2.4492936347920233e-15
0
LINE
5
131
100
AcDbEntity
8
0
100
AcDbLine
10
-70.000001639127532
20
39.999998435378103
30
0
11
-70.000001639127532
21
44.999998509883895
31
0
0
LINE
5
132
100
AcDbEntity
8
0
100
AcDbLine
10
-60.000001490115935
20
39.999998435378103
30
0
11
-70.000001639127532
21
39.999998435378103
31
0
0
LINE
5
133
100
AcDbEntity
8
0
100
AcDbLine
10
-50.000001639127554
20
44.999998509883895
30
0
11
-60.000001788139159
21
44.999998509883895
31
0
0
LINE
5
134
100
AcDbEntity
8
0
100
AcDbLine
10
94.999998435378046
20
90.000000149011584
30
1.2246468173960097e-15
11
94.999998435378046
21
100.0000002980232
31
2.4492936347920233e-15
0
LINE
5
135
100
AcDbEntity
8
0
100
AcDbLine
10
-90.000001639127504
20
44.999998509883916
30
0
11
-100.00000178813909
21
44.999998509883916
31
0
0
LINE
5
136
100
AcDbEntity
8
0
100
AcDbLine
10
-90.000001639127504
20
39.999998435378103
30
0
11
-90.000001639127504
21
44.999998509883916
31
0
0
LINE
5
137
100
AcDbEntity
8
0
100
AcDbLine
10
94.99999843537806
20
140.0000002980232
30
2.4492936347920233e-15
11
99.999998509883866
21
140.0000002980232
31
2.4492936347920252e-15
0
LINE
5
138
100
AcDbEntity
8
0
100
AcDbLine
10
99.999998509883852
20
90.000000149011584
30
1.2246468173960116e-15
11
99.999998509883852
21
80.000000298023195
31
2.4492936347920252e-15
0
LINE
5
139
100
AcDbEntity
8
0
100
AcDbLine
10
99.999998509883852
20
70.000000149011584
30
1.2246468173960116e-15
11
99.999999105930328
21
60.000001415610285
31
0
0
LINE
5
140
100
AcDbEntity
8
0
100
AcDbLine
10
99.999998509883852
20
110.00000014901158
30
1.2246468173960116e-15
11
99.999998509883824
21
99.999999999999972
31
0
0
LINE
5
141
100
AcDbEntity
8
0
100
AcDbLine
10
94.999998435378046
20
70.000000149011584
30
1.2246468173960097e-15
11
94.999998435378046
21
80.000000298023195
31
2.4492936347920233e-15
0
LINE
5
142
100
AcDbEntity
8
0
100
AcDbLine
10
94.999998435378046
20
80.000000298023195
30
2.4492936347920233e-15
11
99.999998509883852
21
80.000000298023195
31
2.4492936347920252e-15
0
LINE
5
143
100
AcDbEntity
8
0
100
AcDbLine
10
29.999998360872343
20
39.999998435378082
30
0
11
29.999998360872347
21
44.999998509883888
31
0
0
LINE
5
144
100
AcDbEntity
8
0
100
AcDbLine
10
-40.00000149011597
20
39.999998435378103
30
0
11
-50.000001639127554
21
39.999998435378103
31
0
0
LINE
5
145
100
AcDbEntity
8
0
100
AcDbLine
10
9.9999983608723682
20
44.999998509883888
30
0
11
-1.7881392282148576e-06
21
44.999998509883888
31
0
0
LINE
5
146
100
AcDbEntity
8
0
100
AcDbLine
10
9.9999983608723682
20
39.999998435378082
30
0
11
9.9999983608723682
21
44.999998509883888
31
0
0
LINE
5
147
100
AcDbEntity
8
0
100
AcDbLine
10
49.999998360872326
20
44.999998509883881
30
0
11
39.999998211860714
21
44.999998509883881
31
0
0
LINE
5
148
100
AcDbEntity
8
0
100
AcDbLine
10
19.999998509883966
20
39.999998435378082
30
0
11
9.9999983608723682
21
39.999998435378082
31
0
0
LINE
5
149
100
AcDbEntity
8
0
100
AcDbLine
10
39.999998211860714
20
44.999998509883881
30
0
11
39.999998211860714
21
39.999998435378075
31
0
0
LINE
5
150
100
AcDbEntity
8
0
100
AcDbLine
10
79.999998211860657
20
44.999998509883881
30
0
11
79.999998211860657
21
39.999998435378082
31
0
0
LINE
5
151
100
AcDbEntity
8
0
100
AcDbLine
10
-10.000001639127609
20
39.999998435378082
30
0
11
-10.000001639127609
21
44.999998509883888
31
0
0
LINE
5
152
100
AcDbEntity
8
0
100
AcDbLine
10
-1.7881392282148576e-06
20
44.999998509883888
30
0
11
-1.788139228908747e-06
21
39.999998435378082
31
0
0
LINE
5
153
100
AcDbEntity
8
0
100
AcDbLine
10
29.999998360872347
20
44.999998509883888
30
0
11
19.999998211860742
21
44.999998509883888
31
0
0
LINE
5
154
100
AcDbEntity
8
0
100
AcDbLine
10
-10.000001639127609
20
44.999998509883888
30
0
11
-20.000001788139205
21
44.999998509883888
31
0
0
LINE
5
155
100
AcDbEntity
8
0
100
AcDbLine
10
39.999998509883937
20
39.999998435378075
30
0
11
29.999998360872343
21
39.999998435378082
31
0
0
LINE
5
156
100
AcDbEntity
8
0
100
AcDbLine
10
-1.4901160050317941e-06
20
39.999998435378082
30
0
11
-10.000001639127609
21
39.999998435378082
31
0
0
LINE
5
157
100
AcDbEntity
8
0
100
AcDbLine
10
19.999998211860742
20
44.999998509883888
30
0
11
19.999998211860742
21
39.999998435378082
31
0
0
LINE
5
158
100
AcDbEntity
8
0
100
AcDbLine
10
-20.000001788139205
20
44.999998509883888
30
0
11
-20.000001788139205
21
39.999998435378082
31
0
0
LINE
5
159
100
AcDbEntity
8
0
100
AcDbLine
10
-30.000001639127586
20
39.999998435378082
30
0
11
-30.000001639127582
21
44.999998509883888
31
0
0
LINE
5
160
100
AcDbEntity
8
0
100
AcDbLine
10
-50.000001639127554
20
39.999998435378103
30
0
11
-50.000001639127554
21
44.999998509883895
31
0
0
LINE
5
161
100
AcDbEntity
8
0
100
AcDbLine
10
49.999998807907104
20
145.00000141561031
30
0
11
49.999998807907104
21
150.00000149011612
31
0
0
LINE
5
162
100
AcDbEntity
8
0
100
AcDbLine
10
-40.000001788139194
20
44.999998509883895
30
0
11
-40.000001788139194
21
39.999998435378103
31
0
0
LINE
5
163
100
AcDbEntity
8
0
100
AcDbLine
10
89.999998360872269
20
44.999998509883881
30
0
11
79.999998211860657
21
44.999998509883881
31
0
0
LINE
5
164
100
AcDbEntity
8
0
100
AcDbLine
10
95.000001862645149
20
60.000000149011612
30
0
11
99.999999105930328
21
60.000001415610285
31
0
0
LINE
5
165
100
AcDbEntity
8
0
100
AcDbLine
10
69.999998360872297
20
39.999998435378082
30
0
11
69.999998360872297
21
44.999998509883888
31
0
0
LINE
5
166
100
AcDbEntity
8
0
100
AcDbLine
10
59.999998211860685
20
44.999998509883888
30
0
11
59.999998211860685
21
39.999998435378082
31
0
0
LINE
5
167
100
AcDbEntity
8
0
100
AcDbLine
10
-20.000001490115981
20
39.999998435378082
30
0
11
-30.000001639127586
21
39.999998435378082
31
0
0
LINE
5
168
100
AcDbEntity
8
0
100
AcDbLine
10
-30.000001639127582
20
44.999998509883888
30
0
11
-40.000001788139194
21
44.999998509883895
31
0
0
LINE
5
169
100
AcDbEntity
8
0
100
AcDbLine
10
39.999998658895493
20
145.00000141561031
30
0
11
49.999998807907104
21
145.00000141561031
31
0
0
LINE
5
170
100
AcDbEntity
8
0
100
AcDbLine
10
94.999998435378046
20
50
30
0
11
95.000001862645149
21
60.000000149011612
31
0
0
LINE
5
171
100
AcDbEntity
8
0
100
AcDbLine
10
99.999998509883852
20
39.999998435378082
30
0
11
89.999998360872269
21
39.999998435378082
31
0
0
LINE
5
172
100
AcDbEntity
8
0
100
AcDbLine
10
59.999998509883909
20
39.999998435378082
30
0
11
49.999998360872326
21
39.999998435378068
31
0
0
LINE
5
173
100
AcDbEntity
8
0
100
AcDbLine
10
79.999998658895493
20
145.00000141561031
30
0
11
89.999998807907104
21
145.00000141561031
31
0
0
LINE
5
174
100
AcDbEntity
8
0
100
AcDbLine
10
49.999998360872326
20
39.999998435378068
30
0
11
49.999998360872326
21
44.999998509883881
31
0
0
LINE
5
175
100
AcDbEntity
8
0
100
AcDbLine
10
69.999998509883881
20
150.00000149011612
30
0
11
79.999998658895493
21
150.00000149011612
31
0
0
LINE
5
176
100
AcDbEntity
8
0
100
AcDbLine
10
94.999998435378046
20
110.00000014901158
30
1.2246468173960097e-15
11
94.999998435378046
21
120.0000002980232
31
2.4492936347920233e-15
0
LINE
5
177
100
AcDbEntity
8
0
100
AcDbLine
10
79.999998509883881
20
39.999998435378082
30
0
11
69.999998360872297
21
39.999998435378082
31
0
0
LINE
5
178
100
AcDbEntity
8
0
100
AcDbLine
10
99.999998509883852
20
110.00000014901158
30
1.2246468173960116e-15
11
94.999998435378046
21
110.00000014901158
31
1.2246468173960097e-15
0
LINE
5
179
100
AcDbEntity
8
0
100
AcDbLine
10
69.999998807907104
20
145.00000141561031
30
0
11
69.999998807907104
21
150.00000149011612
31
0
0
LINE
5
180
100
AcDbEntity
8
0
100
AcDbLine
10
99.999998509883866
20
130.00000014901158
30
1.2246468173960116e-15
11
94.99999843537806
21
130.00000014901158
31
1.2246468173960097e-15
0
LINE
5
181
100
AcDbEntity
8
0
100
AcDbLine
10
69.999998360872297
20
44.999998509883888
30
0
11
59.999998211860685
21
44.999998509883888
31
0
0
LINE
5
182
100
AcDbEntity
8
0
100
AcDbLine
10
59.999998658895493
20
145.00000141561031
30
0
11
69.999998807907104
21
145.00000141561031
31
0
0
LINE
5
183
100
AcDbEntity
8
0
100
AcDbLine
10
89.999998360872269
20
39.999998435378082
30
0
11
89.999998360872269
21
44.999998509883881
31
0
0
LINE
5
184
100
AcDbEntity
8
0
100
AcDbLine
10
79.999998658895493
20
150.00000149011612
30
0
11
79.999998658895493
21
145.00000141561031
31
0
0
LINE
5
185
100
AcDbEntity
8
0
100
AcDbLine
10
89.999998807907104
20
145.00000141561031
30
0
11
89.999998807907104
21
150.00000149011612
31
0
0
LINE
5
186
100
AcDbEntity
8
0
100
AcDbLine
10
99.999998509883852
20
70.000000149011584
30
1.2246468173960116e-15
11
94.999998435378046
21
70.000000149011584
31
1.2246468173960097e-15
0
LINE
5
187
100
AcDbEntity
8
0
100
AcDbLine
10
89.999998807907104
20
150.00000149011612
30
0
11
100.00000193715096
21
150.00000149011612
31
0
0
LINE
5
188
100
AcDbEntity
8
0
100
AcDbLine
10
59.999998658895493
20
150.00000149011612
30
0
11
59.999998658895493
21
145.00000141561031
31
0
0
LINE
5
189
100
AcDbEntity
8
0
100
AcDbLine
10
94.999998435378046
20
120.0000002980232
30
2.4492936347920233e-15
11
99.999998509883852
21
120.0000002980232
31
2.4492936347920252e-15
0
LINE
5
190
100
AcDbEntity
8
0
100
AcDbLine
10
99.999998509883824
20
119.99999999999994
30
0
11
99.999998509883866
21
130.00000014901158
31
1.2246468173960116e-15
0
LINE
5
191
100
AcDbEntity
8
0
100
AcDbLine
10
94.999998435378046
20
100.0000002980232
30
2.4492936347920233e-15
11
99.999998509883852
21
100.0000002980232
31
2.4492936347920252e-15
0
LINE
5
192
100
AcDbEntity
8
0
100
AcDbLine
10
99.999998509883852
20
90.000000149011584
30
1.2246468173960116e-15
11
94.999998435378046
21
90.000000149011584
31
1.2246468173960097e-15
0
LINE
5
193
100
AcDbEntity
8
0
100
AcDbLine
10
49.999998509883881
20
150.00000149011612
30
0
11
59.999998658895493
21
150.00000149011612
31
0
0
LINE
5
194
100
AcDbEntity
8
0
100
AcDbLine
10
-80.000001341104507
20
150.00000149011612
30
0
11
-80.000001341104507
21
145.00000141561031
31
0
0
LINE
5
195
100
AcDbEntity
8
0
100
AcDbLine
10
-130.00000149011612
20
130.00000149011615
30
0
11
-130.00000149011615
21
120.00000134110451
31
1.2246468173960116e-15
0
LINE
5
196
100
AcDbEntity
8
0
100
AcDbLine
10
-125.00000141561033
20
130.0000011920929
30
2.4492936347920233e-15
11
-130.00000149011615
21
130.0000011920929
31
2.4492936347920252e-15
0
LINE
5
197
100
AcDbEntity
8
0
100
AcDbLine
10
9.999998807907108
20
140.15000208616266
30
0
11
9.9999988079071045
21
150.00000149011612
31
0
0
LINE
5
198
100
AcDbEntity
8
0
100
AcDbLine
10
19.999998658895493
20
150.00000149011612
30
0
11
19.999998658895493
21
145.00000141561031
31
0
0
LINE
5
199
100
AcDbEntity
8
0
100
AcDbLine
10
-70.000001490116119
20
150.00000149011612
30
0
11
-60.000001341104507
21
150.00000149011612
31
0
0
LINE
5
200
100
AcDbEntity
8
0
100
AcDbLine
10
-125.00000141561033
20
120.00000134110451
30
1.2246468173960097e-15
11
-125.00000141561033
21
110.0000011920929
31
2.4492936347920233e-15
0
LINE
5
201
100
AcDbEntity
8
0
100
AcDbLine
10
-130.00000149011612
20
150.00000149011615
30
0
11
-130.00000149011615
21
140.00000134110451
31
1.2246468173960116e-15
0
LINE
5
202
100
AcDbEntity
8
0
100
AcDbLine
10
-120.00000134110451
20
145.00000141561031
30
0
11
-110.0000011920929
21
145.00000141561031
31
0
0
LINE
5
203
100
AcDbEntity
8
0
100
AcDbLine
10
-40.000001341104507
20
150.00000149011612
30
0
11
-40.000001341104507
21
140.15000208616314
31
0
0
LINE
5
204
100
AcDbEntity
8
0
100
AcDbLine
10
-50.000001490116119
20
150.00000149011612
30
0
11
-40.000001341104507
21
150.00000149011612
31
0
0
LINE
5
205
100
AcDbEntity
8
0
100
AcDbLine
10
-130.00000149011615
20
140.00000134110451
30
1.2246468173960116e-15
11
-125.00000141561033
21
140.00000134110451
31
1.2246468173960097e-15
0
LINE
5
206
100
AcDbEntity
8
0
100
AcDbLine
10
-130.00000149011612
20
90.000001490116134
30
0
11
-130.00000149011615
21
80.000001341104507
31
1.2246468173960116e-15
0
LINE
5
207
100
AcDbEntity
8
0
100
AcDbLine
10
39.999998658895493
20
150.00000149011612
30
0
11
39.999998658895493
21
145.00000141561031
31
0
0
LINE
5
208
100
AcDbEntity
8
0
100
AcDbLine
10
-130.00000149011612
20
150.00000149011612
30
0
11
-120.00000134110451
21
150.00000149011612
31
0
0
LINE
5
209
100
AcDbEntity
8
0
100
AcDbLine
10
-125.00000141561033
20
100.00000134110451
30
1.2246468173960097e-15
11
-125.00000141561033
21
90.000001192092896
31
2.4492936347920233e-15
0
LINE
5
210
100
AcDbEntity
8
0
100
AcDbLine
10
-125.00000141561033
20
110.0000011920929
30
2.4492936347920233e-15
11
-130.00000149011615
21
110.0000011920929
31
2.4492936347920252e-15
0
LINE
5
211
100
AcDbEntity
8
0
100
AcDbLine
10
-130.00000149011612
20
110.00000149011613
30
0
11
-130.00000149011615
21
100.00000134110451
31
1.2246468173960116e-15
0
LINE
5
212
100
AcDbEntity
8
0
100
AcDbLine
10
19.999998658895493
20
145.00000141561031
30
0
11
29.999998807907104
21
145.00000141561031
31
0
0
LINE
5
213
100
AcDbEntity
8
0
100
AcDbLine
10
-110.0000011920929
20
145.00000141561031
30
0
11
-110.0000011920929
21
150.00000149011612
31
0
0
LINE
5
214
100
AcDbEntity
8
0
100
AcDbLine
10
29.999998509883881
20
150.00000149011612
30
0
11
39.999998658895493
21
150.00000149011612
31
0
0
LINE
5
215
100
AcDbEntity
8
0
100
AcDbLine
10
-125.00000141561033
20
90.000001192092896
30
2.4492936347920233e-15
11
-130.00000149011615
21
90.000001192092896
31
2.4492936347920252e-15
0
LINE
5
216
100
AcDbEntity
8
0
100
AcDbLine
10
-130.00000149011615
20
80.000001341104507
30
1.2246468173960116e-15
11
-125.00000141561033
21
80.000001341104507
31
1.2246468173960097e-15
0
LINE
5
217
100
AcDbEntity
8
0
100
AcDbLine
10
-130.00000149011615
20
120.00000134110451
30
1.2246468173960116e-15
11
-125.00000141561033
21
120.00000134110451
31
1.2246468173960097e-15
0
LINE
5
218
100
AcDbEntity
8
0
100
AcDbLine
10
29.999998807907104
20
145.00000141561031
30
0
11
29.999998807907104
21
150.00000149011612
31
0
0
LINE
5
219
100
AcDbEntity
8
0
100
AcDbLine
10
-130.00000149011615
20
100.00000134110451
30
1.2246468173960116e-15
11
-125.00000141561033
21
100.00000134110451
31
1.2246468173960097e-15
0
LINE
5
220
100
AcDbEntity
8
0
100
AcDbLine
10
9.9999985098838806
20
150.00000149011612
30
0
11
19.999998658895493
21
150.00000149011612
31
0
0
LINE
5
221
100
AcDbEntity
8
0
100
AcDbLine
10
9.999998807907108
20
140.15000208616266
30
0
11
2.4860330387664631e-15
21
140.15000208616266
31
0
0
LINE
5
222
100
AcDbEntity
8
0
100
AcDbLine
10
2.4860330387664631e-15
20
140.15000208616266
30
0
11
0
21
130.00000193715096
31
0
0
LINE
5
223
100
AcDbEntity
8
0
100
AcDbLine
10
0
20
130.00000193715096
30
0
11
-30.000000447034836
21
130.00000193715093
31
0
0
LINE
5
224
100
AcDbEntity
8
0
100
AcDbLine
10
-30.000000447034836
20
130.00000193715093
30
0
11
-30.000000447034715
21
140.15000208616306
31
0
0
LINE
5
225
100
AcDbEntity
8
0
100
AcDbLine
10
-30.000000447034715
20
140.15000208616306
30
0
11
-40.000001341104507
21
140.15000208616314
31
0
0
LINE
5
226
100
AcDbEntity
8
0
100
AcDbLine
10
99.999998509883852
20
39.999998435378082
30
0
11
99.999998509883852
21
50.000000000000007
31
0
0
LINE
5
227
100
AcDbEntity
8
0
100
AcDbLine
10
99.999998509883852
20
50.000000000000007
30
0
11
94.999998435378046
21
50
31
0
0
LINE
5
228
100
AcDbEntity
8
0
100
AcDbLine
10
-130.00000491738294
20
39.99999843537811
30
0
11
-130.00000491738294
21
50.000000000000014
31
0
0
LINE
5
229
100
AcDbEntity
8
0
100
AcDbLine
10
-130.00000491738294
20
50.000000000000014
30
0
11
-125.00000335276101
21
50.000000000000014
31
0
0
ENDSEC
0
SECTION
2
OBJECTS
0
DICTIONARY
5
C
100
AcDbDictionary
3
ACAD_GROUP
350
D
3
ACAD_MLINESTYLE
350
17
0
DICTIONARY
5
D
100
AcDbDictionary
0
DICTIONARY
5
1A
330
C
100
AcDbDictionary
0
DICTIONARY
5
17
100
AcDbDictionary
0
ENDSEC
0
EOF
